<?xml version="1.0" standalone="no"?>
<!DOCTYPE svg PUBLIC "-//W3C//DTD SVG 20010904//EN" "http://www.w3.org/TR/2001/REC-SVG-20010904/DTD/svg10.dtd">
<svg xmlns="http://www.w3.org/2000/svg" version="1.0" width="1024.000000pt" height="1024.000000pt" viewBox="0 0 1024.000000 1024.000000" preserveAspectRatio="xMidYMid meet">
<metadata>
Created by potrace 1.16, written by Peter Selinger 2001-2019
<meta name="Producer" content="Online-Convert"/></metadata>
<g transform="translate(0.000000,1024.000000) scale(0.100000,-0.100000)" fill="#000000" stroke="none">
<path d="M0 5120 l0 -5120 5120 0 5120 0 0 5120 0 5120 -5120 0 -5120 0 0 -5120z m5409 747 c40 -77 45 -95 49 -169 2 -46 0 -99 -6 -119 -9 -34 -8 -38 23 -62 44 -35 104 -129 133 -207 17 -46 25 -94 28 -165 l5 -100 -26 51 c-24 48 -122 160 -131 151 -3 -2 1 -17 7 -33 7 -16 12 -69 13 -119 1 -79 -3 -98 -28 -152 -15 -34 -37 -70 -47 -79 -18 -17 -19 -15 -19 37 0 30 -3 64 -6 77 -6 21 -8 19 -26 -20 -32 -71 -64 -104 -189 -194 -168 -122 -193 -148 -236 -254 -10 -24 -10 -24 -35 20 -73 125 -64 234 33 429 l52 104 23 -27 c13 -14 28 -43 33 -64 6 -20 14 -50 18 -67 6 -25 8 -19 11 33 4 82 -16 118 -83 152 -47 24 -59 25 -211 25 -155 0 -162 1 -198 25 -43 30 -54 55 -32 79 15 16 14 17 -16 13 -22 -3 -35 0 -45 14 -28 38 -17 49 100 98 173 71 198 87 237 145 42 62 72 83 153 106 197 55 194 54 227 92 39 44 108 184 117 236 3 21 11 36 17 34 6 -2 31 -42 55 -90z m-798 -1639 c37 -10 39 -13 39 -51 0 -33 -3 -38 -17 -32 -74 30 -128 29 -158 -5 -9 -10 -15 -29 -13 -41 3 -24 10 -29 118 -78 79 -36 105 -72 97 -133 -13 -97 -141 -148 -257 -102 -37 15 -40 19 -40 55 0 21 1 39 3 39 1 0 20 -9 42 -20 77 -39 175 -18 175 38 0 27 -27 47 -95 73 -33 12 -75 37 -94 56 -31 31 -33 37 -29 84 10 102 110 153 229 117z m209 -288 l0 -160 -35 0 -35 0 0 160 0 160 35 0 35 0 0 -160z m150 133 c1 -24 2 -26 13 -12 17 23 52 39 81 39 23 0 26 -4 26 -35 0 -33 -2 -35 -35 -35 -54 0 -72 -25 -80 -114 -4 -42 -5 -89 -3 -106 4 -29 3 -30 -34 -30 l-38 0 0 160 0 160 35 0 c31 0 35 -3 35 -27z m250 -133 l0 -160 -35 0 -35 0 0 160 0 160 35 0 35 0 0 -160z m150 49 c0 -131 7 -149 57 -149 64 0 73 17 73 147 l0 113 35 0 35 0 0 -160 0 -160 -30 0 c-24 0 -30 4 -30 21 0 20 -1 20 -31 -5 -45 -38 -110 -37 -150 3 l-29 29 0 136 0 136 35 0 35 0 0 -111z m459 105 c26 -6 31 -11 31 -36 0 -22 -4 -29 -14 -25 -68 26 -130 13 -124 -26 2 -16 16 -25 52 -36 62 -20 106 -60 106 -98 0 -59 -57 -103 -134 -103 -68 0 -96 14 -96 49 l0 29 38 -14 c52 -18 76 -17 103 5 32 27 17 50 -47 74 -63 24 -94 53 -94 89 0 77 71 113 179 92z"/>
</g>
</svg>
