<?xml version="1.0" encoding="UTF-8"?>
<svg version="1.1" xmlns="http://www.w3.org/2000/svg" width="1024" height="1024">
<path d="M0 0 C337.92 0 675.84 0 1024 0 C1024 337.92 1024 675.84 1024 1024 C686.08 1024 348.16 1024 0 1024 C0 686.08 0 348.16 0 0 Z " fill="#380A09" transform="translate(0,0)"/>
<path d="M0 0 C3 1 3 1 5.0078125 4.45703125 C5.72387046 5.90378777 6.42919404 7.35589521 7.125 8.8125 C7.66447266 9.90014648 7.66447266 9.90014648 8.21484375 11.00976562 C11.2258962 17.1728374 12.1630003 21.97161173 12.125 28.875 C12.12886719 29.56980469 12.13273438 30.26460938 12.13671875 30.98046875 C12.12897598 35.09187906 11.79640249 38.9674223 11 43 C11.58910156 43.2475 12.17820312 43.495 12.78515625 43.75 C21.35139638 48.58456233 26.21667047 60.68057521 28.8125 69.6875 C30.45967659 76.78516541 30.2671998 83.75591645 30 91 C28.03706234 89.03706234 27.31652719 87.72905545 26.1875 85.25 C23.64727077 80.05622277 20.68115425 75.1041312 15 73 C15.495 74.6396875 15.495 74.6396875 16 76.3125 C18.427671 86.23276712 17.5066309 96.70815445 12.5 105.69140625 C11.07691366 107.87734897 9.65953602 109.98768836 8 112 C7.67 112 7.34 112 7 112 C6.67 107.71 6.34 103.42 6 99 C3.85479905 101.84522749 3.85479905 101.84522749 1.8515625 104.7890625 C-4.03387199 113.59847081 -13.52466889 119.22264774 -22 125.3125 C-25.66963004 127.96485959 -28.97303638 130.6061317 -32 134 C-32.70125 134.763125 -33.4025 135.52625 -34.125 136.3125 C-36.51547745 139.73885101 -37.66001862 143.04705494 -39 147 C-44.38719679 142.11077939 -46.43831844 136.21261168 -47.390625 129.0703125 C-47.93393601 114.43972303 -40.92479249 102.35513191 -34 90 C-28.68235553 95.1546844 -27.0200997 98.68928549 -26 106 C-25.67162695 100.8737319 -25.4619356 96.4092163 -27.3125 91.5625 C-33.93249637 85.25041044 -42.45024318 84.59353949 -51.22265625 84.79492188 C-52.38667969 84.84197266 -53.55070312 84.88902344 -54.75 84.9375 C-70.46717724 85.51293764 -70.46717724 85.51293764 -77.5 80.0625 C-79 78 -79 78 -78.8125 75.8125 C-78 74 -78 74 -77 73 C-77.94875 73.061875 -78.8975 73.12375 -79.875 73.1875 C-80.90625 73.125625 -81.9375 73.06375 -83 73 C-85 70 -85 70 -85 66 C-84.41621582 65.75354736 -83.83243164 65.50709473 -83.23095703 65.25317383 C-80.52754295 64.10962701 -77.82627578 62.96108829 -75.125 61.8125 C-74.2071875 61.42513672 -73.289375 61.03777344 -72.34375 60.63867188 C-69.55161808 59.44906637 -66.77337765 58.23266645 -64 57 C-63.08057617 56.5963623 -62.16115234 56.19272461 -61.21386719 55.77685547 C-56.07653137 53.39307882 -52.93744932 51.52755748 -50 46.5 C-43.57045711 37.03956805 -34.45733479 35.28677396 -23.77612305 32.96142578 C-17.79926477 31.57043451 -13.5391484 29.56997642 -9.83935547 24.36816406 C-8.74195055 22.57204629 -7.76361104 20.75248359 -6.8125 18.875 C-6.30106445 17.89454712 -6.30106445 17.89454712 -5.77929688 16.89428711 C-3.03588407 11.46118888 -1.19312298 5.97804324 0 0 Z " fill="#E4E5E4" transform="translate(534,428)"/>
<path d="M0 0 C0 2.64 0 5.28 0 8 C-1.155 7.649375 -2.31 7.29875 -3.5 6.9375 C-8.02384558 5.80251383 -11.44061794 6.05667957 -16 7 C-18.28728734 8.83883881 -18.28728734 8.83883881 -18.125 11.625 C-18.08375 12.40875 -18.0425 13.1925 -18 14 C-16.88625 14.556875 -15.7725 15.11375 -14.625 15.6875 C-13.90183594 16.05359375 -13.17867188 16.4196875 -12.43359375 16.796875 C-10.75235313 17.62805014 -9.05563212 18.42837306 -7.34765625 19.203125 C-0.59268039 22.33759251 -0.59268039 22.33759251 2.125 25.375 C3.60411491 29.81234473 3.71537988 33.38098237 1.8125 37.6875 C-0.97985365 41.2501581 -3.69106581 43.5636886 -8 45 C-15.04055861 45.53524715 -20.74983486 45.40918098 -27 42 C-27 39.03 -27 36.06 -27 33 C-25.88625 33.66 -24.7725 34.32 -23.625 35 C-18.90872177 37.36234257 -14.20227423 38.02567041 -9 37 C-7.17975332 35.71688072 -7.17975332 35.71688072 -6 34 C-5.52247323 31.45683262 -5.52247323 31.45683262 -7 29 C-9.10579065 27.78951297 -11.25354203 26.92443632 -13.51171875 26.03125 C-18.45912529 23.98083347 -24.68685001 21.06001559 -27 16 C-27.50996055 10.64541423 -27.48241808 7.32300176 -24 3 C-17.0240636 -3.27834276 -8.56406188 -3.60592079 0 0 Z " fill="#DBDCDC" transform="translate(465,602)"/>
<path d="M0 0 C2.31 0 4.62 0 7 0 C7.02505615 0.68626465 7.0501123 1.3725293 7.07592773 2.07958984 C7.19171427 5.17825817 7.31451885 8.27660923 7.4375 11.375 C7.47681641 12.45523438 7.51613281 13.53546875 7.55664062 14.6484375 C7.59853516 15.6796875 7.64042969 16.7109375 7.68359375 17.7734375 C7.72025146 18.72653809 7.75690918 19.67963867 7.79467773 20.66162109 C7.85763465 23.02132349 7.85763465 23.02132349 9 25 C13.0100934 25.17864631 13.0100934 25.17864631 17 25 C19.56136221 22.43863779 19.29666857 21.33438669 19.4140625 17.7734375 C19.45273437 16.7421875 19.49140625 15.7109375 19.53125 14.6484375 C19.5621875 13.56820312 19.593125 12.48796875 19.625 11.375 C19.66367187 10.28703125 19.70234375 9.1990625 19.7421875 8.078125 C19.83666247 5.38558835 19.92222431 2.69306243 20 0 C22.31 0 24.62 0 27 0 C27 10.56 27 21.12 27 32 C25.02 32 23.04 32 21 32 C20.67 31.01 20.34 30.02 20 29 C19.360625 29.66 18.72125 30.32 18.0625 31 C13.98517233 33.6627446 10.75278867 33.87823269 6 33 C3.12970131 31.20606332 1.50868362 30.01736724 0 27 C-0.08527628 24.96767366 -0.10716135 22.93252994 -0.09765625 20.8984375 C-0.09443359 19.68671875 -0.09121094 18.475 -0.08789062 17.2265625 C-0.07951172 15.95554687 -0.07113281 14.68453125 -0.0625 13.375 C-0.05798828 12.09625 -0.05347656 10.8175 -0.04882812 9.5 C-0.03701203 6.33328708 -0.02053815 3.16666644 0 0 Z " fill="#DCDDDD" transform="translate(530,614)"/>
<path d="M0 0 C0.86367188 -0.00257813 1.72734375 -0.00515625 2.6171875 -0.0078125 C4.93165971 0.11476079 6.90789116 0.47533555 9.125 1.125 C9.125 3.435 9.125 5.745 9.125 8.125 C8.279375 7.774375 7.43375 7.42375 6.5625 7.0625 C2.67482467 6.00222491 0.04074361 6.34185128 -3.875 7.125 C-3.875 8.445 -3.875 9.765 -3.875 11.125 C-3.12734375 11.35574219 -2.3796875 11.58648438 -1.609375 11.82421875 C6.3859486 14.47188481 6.3859486 14.47188481 9.8125 17.5 C11.43546531 20.74593062 11.72251829 22.53989024 11.125 26.125 C8.90390001 29.61529998 6.94970695 31.60596745 3.125 33.125 C0.46875 33.390625 0.46875 33.390625 -2.375 33.375 C-3.3134375 33.38015625 -4.251875 33.3853125 -5.21875 33.390625 C-7.91547676 33.12095232 -9.56449293 32.4982259 -11.875 31.125 C-11.875 29.145 -11.875 27.165 -11.875 25.125 C-10.3590625 25.6509375 -10.3590625 25.6509375 -8.8125 26.1875 C-4.95162622 27.3142448 -1.82105414 26.93031717 2.125 26.125 C2.455 24.805 2.785 23.485 3.125 22.125 C2.54492188 21.89425781 1.96484375 21.66351562 1.3671875 21.42578125 C-3.79017747 19.27262393 -8.08885719 17.29946515 -11.875 13.125 C-12.5625 9.625 -12.5625 9.625 -11.875 6.125 C-8.10952025 1.56678767 -5.7976039 -0.01720357 0 0 Z " fill="#DBDBDB" transform="translate(576.875,613.875)"/>
<path d="M0 0 C2.31 0 4.62 0 7 0 C7.33 1.32 7.66 2.64 8 4 C8.45375 3.525625 8.9075 3.05125 9.375 2.5625 C11.77505231 0.2547574 12.72459065 0.00550819 16.125 -0.0625 C17.07375 -0.041875 18.0225 -0.02125 19 0 C19 2.31 19 4.62 19 7 C18.36191406 7.12117187 17.72382813 7.24234375 17.06640625 7.3671875 C16.24011719 7.53476562 15.41382813 7.70234375 14.5625 7.875 C13.32693359 8.11863281 13.32693359 8.11863281 12.06640625 8.3671875 C11.38449219 8.57601562 10.70257813 8.78484375 10 9 C8.79729036 11.40541929 8.79683337 13.10366591 8.68359375 15.7890625 C8.62075195 17.20058594 8.62075195 17.20058594 8.55664062 18.640625 C8.49766602 20.11789062 8.49766602 20.11789062 8.4375 21.625 C8.39431641 22.61757813 8.35113281 23.61015625 8.30664062 24.6328125 C8.20038931 27.08839838 8.09835036 29.54408703 8 32 C5.36 32 2.72 32 0 32 C0 21.44 0 10.88 0 0 Z " fill="#D9DAD9" transform="translate(490,614)"/>
<path d="M0 0 C2.31 0 4.62 0 7 0 C7 10.56 7 21.12 7 32 C4.69 32 2.38 32 0 32 C0 21.44 0 10.88 0 0 Z " fill="#E0E1E0" transform="translate(515,614)"/>
<path d="M0 0 C2.31 0 4.62 0 7 0 C7 10.56 7 21.12 7 32 C4.69 32 2.38 32 0 32 C0 21.44 0 10.88 0 0 Z " fill="#DCDDDC" transform="translate(475,614)"/>
<path d="M0 0 C2 1 2 1 3.125 3.1875 C4.13813569 6.44400757 4.49412803 8.61169348 4 12 C0.84690378 16.08047746 -2.04032572 17.73124612 -7 19 C-5.34464282 12.17792193 -3.37399268 6.16626248 0 0 Z " fill="#DEDEDD" transform="translate(515,441)"/>
<path d="M0 0 C0.33 0 0.66 0 1 0 C1.05454409 2.35448675 1.0939279 4.70767875 1.125 7.0625 C1.14820313 8.37347656 1.17140625 9.68445313 1.1953125 11.03515625 C0.99417522 15.11824299 0.27165462 18.14999053 -1 22 C-3.64 21.67 -6.28 21.34 -9 21 C-8.60167969 20.23816406 -8.20335937 19.47632813 -7.79296875 18.69140625 C-4.64148324 12.54946004 -1.98381552 6.61271839 0 0 Z " fill="#3D1210" transform="translate(537,445)"/>
<path d="M0 0 C1.35158203 0.15275391 1.35158203 0.15275391 2.73046875 0.30859375 C3.41753906 0.39238281 4.10460937 0.47617187 4.8125 0.5625 C1.00406511 5.0117423 -1.76582612 6.35678221 -7.5 7.375 C-8.75425781 7.60832031 -10.00851562 7.84164063 -11.30078125 8.08203125 C-12.25339844 8.24058594 -13.20601563 8.39914062 -14.1875 8.5625 C-12.76053473 4.68115447 -11.78033567 2.73997616 -8.1875 0.5625 C-4.98734144 -0.50421952 -3.30205706 -0.38595472 0 0 Z " fill="#401917" transform="translate(502.1875,476.4375)"/>
<path d="M0 0 C2.5 0.25 2.5 0.25 4.5 2.25 C4.8125 4.75 4.8125 4.75 4.5 7.25 C1.5 9.25 1.5 9.25 -1.125 8.9375 C-3.5 8.25 -3.5 8.25 -4.5 7.25 C-4.6875 4.8125 -4.6875 4.8125 -4.5 2.25 C-2.5 0.25 -2.5 0.25 0 0 Z " fill="#DBDBDB" transform="translate(478.5,599.75)"/>
<path d="M0 0 C2.5 0.25 2.5 0.25 4.5 2.25 C4.125 5.375 4.125 5.375 3.5 8.25 C1.1875 8.875 1.1875 8.875 -1.5 9.25 C-2.49 8.59 -3.48 7.93 -4.5 7.25 C-4.8125 4.75 -4.8125 4.75 -4.5 2.25 C-2.5 0.25 -2.5 0.25 0 0 Z " fill="#D8D9D9" transform="translate(518.5,599.75)"/>
<path d="M0 0 C1.65303345 3.30606689 -0.21535468 6.47349135 -1.3125 9.8125 C-1.6518457 10.88081055 -1.6518457 10.88081055 -1.99804688 11.97070312 C-3.19797865 15.7088191 -4.48333457 19.37566806 -6 23 C-6.66 23 -7.32 23 -8 23 C-4.25 4.25 -4.25 4.25 0 0 Z " fill="#440E0B" transform="translate(676,350)"/>
<path d="M0 0 C0.99 0 1.98 0 3 0 C3.33 0.99 3.66 1.98 4 3 C3.2884375 3.61875 3.2884375 3.61875 2.5625 4.25 C0.84723373 5.89078817 0.84723373 5.89078817 0.5 8.125 C0.335 8.74375 0.17 9.3625 0 10 C-0.99 10.33 -1.98 10.66 -3 11 C-2.01 7.37 -1.02 3.74 0 0 Z " fill="#480D0B" transform="translate(721,222)"/>
<path d="M0 0 C0.33 0 0.66 0 1 0 C1 4.95 1 9.9 1 15 C0.67 15 0.34 15 0 15 C-0.2165625 13.6078125 -0.2165625 13.6078125 -0.4375 12.1875 C-0.92100111 8.99274889 -0.92100111 8.99274889 -2 6 C-1.0625 2.8125 -1.0625 2.8125 0 0 Z " fill="#4C2B2B" transform="translate(537,445)"/>
</svg>
