<?xml version="1.0" encoding="UTF-8"?>
<svg version="1.1" xmlns="http://www.w3.org/2000/svg" width="1024" height="1024">
<path d="M0 0 C2.484375 0.40234375 2.484375 0.40234375 3.96875 1.7734375 C5.51482879 4.29774516 7.02747791 6.82475659 8.484375 9.40234375 C8.81985352 9.98725586 9.15533203 10.57216797 9.50097656 11.17480469 C32.45848668 51.53125587 41.09030141 97.78257507 33.671875 143.65234375 C33.5073584 144.67005859 33.3428418 145.68777344 33.17333984 146.73632812 C32.38039301 151.31713813 31.48712304 155.67951514 29.91015625 160.05859375 C28.5426653 163.90857235 27.45195648 167.25740417 27.484375 171.40234375 C29.88171396 175.93514875 33.90975591 179.05808417 37.90258789 182.14379883 C40.29186582 184.04482179 42.36906809 186.204889 44.484375 188.40234375 C45.32355469 189.26730469 46.16273438 190.13226563 47.02734375 191.0234375 C65.93257494 211.1573691 81.19827704 236.34479166 87.484375 263.40234375 C87.78214844 264.54058594 88.07992188 265.67882812 88.38671875 266.8515625 C90.69003335 277.17932795 90.776343 287.49221059 90.796875 298.02734375 C90.80046021 298.78180786 90.80404541 299.53627197 90.80773926 300.31359863 C90.8133303 302.50231434 90.80254195 304.69026296 90.78515625 306.87890625 C90.77222534 308.79823975 90.77222534 308.79823975 90.7590332 310.75634766 C90.07703196 319.80968679 90.07703196 319.80968679 87.484375 322.40234375 C85.359375 322.90234375 85.359375 322.90234375 82.484375 322.40234375 C78.46834901 319.26601869 75.29142277 315.18817961 71.984375 311.33984375 C69.24315723 308.15609755 66.34810159 305.44104935 63.109375 302.7734375 C60.76084522 300.7918655 58.65618617 298.57415492 56.484375 296.40234375 C54.82681044 295.05771173 53.16131885 293.72272811 51.484375 292.40234375 C51.41968018 293.14581055 51.35498535 293.88927734 51.28833008 294.65527344 C47.5497939 336.30866369 35.91974345 370.76790605 5.484375 400.40234375 C5.02289062 400.89734375 4.56140625 401.39234375 4.0859375 401.90234375 C0.2781612 405.91443976 -3.84886503 409.38240443 -8.203125 412.77734375 C-8.76193359 413.21844482 -9.32074219 413.6595459 -9.89648438 414.11401367 C-12.67886129 416.24536437 -14.9884416 417.93891819 -18.515625 418.40234375 C-21.18229167 414.40234375 -23.84895833 410.40234375 -26.515625 406.40234375 C-27.23363281 406.97339844 -27.95164062 407.54445313 -28.69140625 408.1328125 C-36.73029125 414.42977223 -45.02530899 420.2447328 -53.4765625 425.97265625 C-58.58839216 429.4396198 -63.64952722 432.97621946 -68.703125 436.52734375 C-73.99340735 440.24478446 -79.29288267 443.94456184 -84.63867188 447.58178711 C-94.45502576 454.26565646 -104.00459356 461.29261233 -113.515625 468.40234375 C-114.14662109 468.8705957 -114.77761719 469.33884766 -115.42773438 469.82128906 C-123.02438793 475.46608324 -130.18433666 481.44077213 -137.02294922 487.97705078 C-138.02485995 488.93373296 -139.03178864 489.88518523 -140.04345703 490.83154297 C-152.17405268 502.19988602 -160.59801579 514.57479912 -167.65917969 529.58837891 C-168.88766747 532.19033564 -170.16782531 534.76557208 -171.453125 537.33984375 C-171.83339844 538.11199219 -172.21367187 538.88414062 -172.60546875 539.6796875 C-173.515625 541.40234375 -173.515625 541.40234375 -174.515625 542.40234375 C-178.49955965 542.48202244 -180.49948514 542.34924763 -183.46484375 539.5859375 C-184.68601179 538.1548412 -185.8777679 536.69799587 -187.03515625 535.21484375 C-188.40251218 533.28814769 -188.40251218 533.28814769 -190.515625 532.40234375 C-202.06848164 514.48149686 -206.6895242 494.90747954 -206.703125 473.83984375 C-206.71537109 472.83759766 -206.72761719 471.83535156 -206.74023438 470.80273438 C-206.7511726 465.26434393 -206.30695439 460.69603096 -204.515625 455.40234375 C-204.15560724 454.00899517 -203.80611905 452.61290105 -203.46484375 451.21484375 C-199.68366827 436.53807518 -193.92211845 422.91027002 -187.92579651 409.03977966 C-183.62127749 399.0483487 -179.46373143 388.99754774 -176.265625 378.58984375 C-176.01530518 377.78289062 -175.76498535 376.9759375 -175.50708008 376.14453125 C-172.9167726 367.652507 -171.37866718 359.51625584 -170.76171875 350.65234375 C-170.515625 348.40234375 -170.515625 348.40234375 -169.515625 346.40234375 C-163.46272865 347.6263739 -159.27179965 350.99408737 -155.6640625 355.94140625 C-149.66393081 366.49140084 -150.28769933 377.16228828 -153.265625 388.52734375 C-156.76306159 400.69820719 -162.11254341 412.32256441 -167.05712891 423.96044922 C-177.50502241 448.61635858 -186.46588824 472.61752832 -178.515625 499.40234375 C-178.0309375 498.57992188 -177.54625 497.7575 -177.046875 496.91015625 C-165.41144716 477.53269373 -149.72793945 461.71171398 -131.515625 448.40234375 C-130.54931152 447.68546387 -130.54931152 447.68546387 -129.56347656 446.95410156 C-118.04957781 438.41650982 -106.20455499 430.36822628 -94.328125 422.34765625 C-89.01712265 418.75531861 -83.75421846 415.09930375 -78.515625 411.40234375 C-77.87351074 410.95004395 -77.23139648 410.49774414 -76.56982422 410.03173828 C-64.52295214 401.848481 -64.52295214 401.848481 -53.515625 392.40234375 C-52.17239599 391.51064415 -50.81638983 390.63810003 -49.453125 389.77734375 C-46.12356535 387.58768111 -43.14352429 385.27805551 -40.203125 382.58984375 C-36.63167559 379.33963582 -32.96394808 376.28543672 -29.140625 373.33984375 C-28.14289063 372.56511719 -27.14515625 371.79039062 -26.1171875 370.9921875 C-24.82941406 370.20521484 -24.82941406 370.20521484 -23.515625 369.40234375 C-20.515625 370.40234375 -20.515625 370.40234375 -18.91015625 373.125 C-18.38808594 374.22714844 -17.86601563 375.32929687 -17.328125 376.46484375 C-16.79832031 377.56957031 -16.26851562 378.67429687 -15.72265625 379.8125 C-15.32433594 380.66714844 -14.92601562 381.52179688 -14.515625 382.40234375 C6.87456726 365.02281254 19.44744604 337.58751062 22.484375 310.40234375 C22.57209348 306.71929388 22.50655011 303.04249432 22.44140625 299.359375 C22.41903562 297.21289968 22.39757832 295.06641468 22.37695312 292.91992188 C22.33974837 289.55547846 22.2964667 286.19153042 22.23754883 282.82739258 C22.18318369 279.56714586 22.15401032 276.30746071 22.12890625 273.046875 C22.09323296 271.53586967 22.09323296 271.53586967 22.05683899 269.99433899 C22.03061472 263.02485544 22.03061472 263.02485544 24.3815918 259.79956055 C28.41726646 257.11801334 31.72700297 256.86239662 36.484375 257.40234375 C43.32580642 259.1042762 50.1675195 261.243916 56.484375 264.40234375 C56.814375 265.06234375 57.144375 265.72234375 57.484375 266.40234375 C58.144375 266.40234375 58.804375 266.40234375 59.484375 266.40234375 C58.90120006 262.92698799 58.0138275 260.07718874 56.4453125 256.92578125 C56.03361816 256.09594727 55.62192383 255.26611328 55.19775391 254.41113281 C54.53525635 253.10740723 54.53525635 253.10740723 53.859375 251.77734375 C53.40353027 250.87725586 52.94768555 249.97716797 52.47802734 249.04980469 C49.15996206 242.57284763 45.70121457 236.34463663 41.484375 230.40234375 C41.06462402 229.8103418 40.64487305 229.21833984 40.21240234 228.60839844 C32.573672 217.92214681 24.44349536 206.93616571 14.1328125 198.6640625 C13.25882813 197.91769531 12.38484375 197.17132813 11.484375 196.40234375 C11.484375 195.74234375 11.484375 195.08234375 11.484375 194.40234375 C10.66646484 194.0465625 10.66646484 194.0465625 9.83203125 193.68359375 C6.88122067 192.07316801 4.49733283 190.06082269 1.921875 187.90234375 C-0.84474211 185.58994736 -3.51439048 183.40316676 -6.515625 181.40234375 C-6.185625 179.75234375 -5.855625 178.10234375 -5.515625 176.40234375 C-4.855625 176.40234375 -4.195625 176.40234375 -3.515625 176.40234375 C8.01331363 138.414463 11.31666026 98.23904233 -0.52734375 59.82421875 C-1.515625 56.40234375 -1.515625 56.40234375 -1.515625 53.40234375 C-2.505625 53.07234375 -3.495625 52.74234375 -4.515625 52.40234375 C-4.96550781 53.03398437 -5.41539062 53.665625 -5.87890625 54.31640625 C-13.89971253 65.47159574 -22.2125936 76.26535759 -31.6171875 86.29296875 C-33.55341081 88.25630787 -33.55341081 88.25630787 -34.515625 90.40234375 C-35.175625 90.40234375 -35.835625 90.40234375 -36.515625 90.40234375 C-36.77085937 90.98371094 -37.02609375 91.56507813 -37.2890625 92.1640625 C-41.04864234 99.02469705 -48.55976757 104.44241612 -54.515625 109.40234375 C-55.50046875 110.22605469 -56.4853125 111.04976563 -57.5 111.8984375 C-84.97461606 134.40234375 -84.97461606 134.40234375 -94.515625 134.40234375 C-94.845625 135.06234375 -95.175625 135.72234375 -95.515625 136.40234375 C-97.21069336 137.12646484 -97.21069336 137.12646484 -99.41796875 137.80078125 C-100.2363623 138.05827148 -101.05475586 138.31576172 -101.89794922 138.58105469 C-103.19369873 138.98759277 -103.19369873 138.98759277 -104.515625 139.40234375 C-106.18537896 139.97266445 -107.85331896 140.54831983 -109.51953125 141.12890625 C-118.52139596 144.21539962 -127.53320935 147.18059616 -136.70703125 149.71484375 C-137.40597 149.90815277 -138.10490875 150.10146179 -138.82502747 150.30062866 C-142.25341202 151.24446523 -145.68531907 152.17229833 -149.12329102 153.08056641 C-176.48659777 160.42385032 -192.27183445 175.02077585 -207.04296875 198.53125 C-211.18522696 205.09708567 -215.81156531 211.11565428 -221.515625 216.40234375 C-222.26972656 217.16417969 -222.26972656 217.16417969 -223.0390625 217.94140625 C-249.19327891 242.95351714 -294.0749135 252.15118765 -327.515625 263.40234375 C-323.65095722 275.2173871 -317.43974974 284.90449119 -306.390625 291.0859375 C-294.89740386 296.34845859 -283.48379169 297.45451205 -271.078125 297.52734375 C-269.86817871 297.53459473 -269.86817871 297.53459473 -268.63378906 297.54199219 C-264.44137876 297.63993331 -264.44137876 297.63993331 -260.515625 296.40234375 C-258.09956957 296.30323312 -255.71309617 296.2626658 -253.296875 296.26953125 C-252.2074762 296.26755234 -252.2074762 296.26755234 -251.09606934 296.26553345 C-248.73587788 296.26361597 -246.37580438 296.26994731 -244.015625 296.27734375 C-243.21995117 296.27822998 -242.42427734 296.27911621 -241.60449219 296.2800293 C-230.20837174 296.29504243 -218.88392465 296.57340523 -207.515625 297.40234375 C-206.525625 297.40234375 -205.535625 297.40234375 -204.515625 297.40234375 C-181.12286251 300.02726685 -155.75879614 304.11231394 -137.515625 320.40234375 C-136.87753906 320.94890625 -136.23945313 321.49546875 -135.58203125 322.05859375 C-125.77679384 331.08017671 -119.36775663 342.44748081 -116.515625 355.40234375 C-116.25652344 356.55089844 -116.25652344 356.55089844 -115.9921875 357.72265625 C-113.73887256 371.29261957 -118.5899027 385.08083966 -126.265625 396.08984375 C-131.4009128 402.79775277 -136.96608729 409.39595558 -144.515625 413.40234375 C-145.175625 413.40234375 -145.835625 413.40234375 -146.515625 413.40234375 C-146.25007812 412.30277344 -145.98453125 411.20320313 -145.7109375 410.0703125 C-144.78642559 406.21978157 -143.88876581 402.36350554 -143.00292969 398.50390625 C-142.61751205 396.84174441 -142.21427913 395.18371431 -141.8046875 393.52734375 C-138.68027619 379.39957086 -138.51960452 363.0455308 -146.390625 350.58984375 C-157.32558124 335.36091689 -173.65459728 329.67184005 -191.515625 326.40234375 C-203.70352668 324.42418038 -215.86241676 324.24893441 -228.1796875 324.3125 C-229.37936252 324.31850566 -229.37936252 324.31850566 -230.60327339 324.32463264 C-238.14685919 324.36705803 -245.6901304 324.43864946 -253.23339844 324.51879883 C-257.39853889 324.56205126 -261.56357682 324.58980178 -265.72889328 324.60909843 C-267.28906743 324.61948627 -268.84921672 324.63566819 -270.4092598 324.6584034 C-285.28298005 324.87510571 -299.18972976 323.3067469 -312.9765625 317.390625 C-315.52747066 316.22098226 -315.52747066 316.22098226 -318.515625 316.40234375 C-319.88087215 315.10170707 -321.21048161 313.76328323 -322.515625 312.40234375 C-324.03788252 311.35278725 -325.5810006 310.33302476 -327.140625 309.33984375 C-342.62036159 298.61784973 -350.59759476 282.30477439 -357.515625 265.40234375 C-357.91007812 264.50515625 -358.30453125 263.60796875 -358.7109375 262.68359375 C-359.515625 260.40234375 -359.515625 260.40234375 -359.515625 256.40234375 C-360.175625 256.07234375 -360.835625 255.74234375 -361.515625 255.40234375 C-360.52764803 251.28577305 -359.74434853 249.18318455 -356.10375977 246.86962891 C-348.93330282 243.40892656 -341.73000119 240.48946261 -334.203125 237.90234375 C-332.38961718 237.26559162 -330.57612235 236.62880183 -328.76300049 235.99095154 C-326.78304087 235.29528709 -324.80199633 234.60278061 -322.82080078 233.91064453 C-268.00120888 218.25662479 -268.00120888 218.25662479 -226.390625 182.96484375 C-207.51549047 153.41091995 -186.20286856 136.40851146 -152.54199219 126.64477539 C-123.42680515 118.63622595 -123.42680515 118.63622595 -96.515625 105.40234375 C-95.44441406 104.72945313 -94.37320312 104.0565625 -93.26953125 103.36328125 C-75.75237267 91.79733021 -61.16538217 76.7641288 -48.02734375 60.5078125 C-46.16702252 58.20772638 -44.29510165 55.92034739 -42.41015625 53.640625 C-35.85197554 45.68425841 -29.62432503 37.59682838 -23.73046875 29.13769531 C-21.62127566 26.12480454 -19.47164398 23.14085706 -17.328125 20.15234375 C-13.82925405 15.2670893 -10.3810068 10.35050634 -6.98828125 5.390625 C-3.39816787 0.54349579 -3.39816787 0.54349579 0 0 Z " fill="#7E1630" transform="translate(630.515625,215.59765625)"/>
<path d="M0 0 C3.54647623 0.94288819 4.80182312 1.70458873 6.87890625 4.80078125 C13.44217536 18.49075557 21.4454645 36.75061664 16.74609375 52.19140625 C11.86276163 64.02901237 0.19617482 70.33664925 -10.98535156 75.19726562 C-18.04905829 78.01179152 -24.5086559 79.5894098 -32 78 C-29.9518624 72.1519415 -27.43155676 66.91267042 -24.4375 61.5 C-14.02647946 42.15919385 -5.84981437 21.17745297 0 0 Z " fill="#7E1630" transform="translate(529,242)"/>
<path d="M0 0 C1.29624802 -0.00074776 1.29624802 -0.00074776 2.61868286 -0.00151062 C4.44258936 0.00082442 6.26649941 0.01051931 8.09033203 0.02709961 C10.86650783 0.05064298 13.64171873 0.04766208 16.41796875 0.04101562 C18.19531817 0.04659482 19.97266358 0.05370622 21.75 0.0625 C22.5731369 0.06158859 23.3962738 0.06067719 24.24435425 0.05973816 C29.19721832 0.11994346 33.30743745 0.7845743 38.0078125 2.36328125 C36.23267193 4.5328975 35.05466929 5.34782343 32.35693359 6.23779297 C28.57382276 7.50912559 25.09562009 9.19407628 21.546875 10.99609375 C20.4845314 11.52938797 20.4845314 11.52938797 19.40072632 12.07345581 C17.14283455 13.20796071 14.88777778 14.34797256 12.6328125 15.48828125 C11.15774057 16.23084329 9.68248153 16.97303376 8.20703125 17.71484375 C7.47877136 18.08123962 6.75051147 18.4476355 6.00018311 18.82513428 C4.53254695 19.56348548 3.06481434 20.301645 1.59698486 21.03961182 C-2.10408734 22.90212334 -5.79923632 24.77503404 -9.48535156 26.66699219 C-10.20759918 27.03492889 -10.9298468 27.4028656 -11.67398071 27.7819519 C-13.03862774 28.47715094 -14.40092209 29.17699573 -15.76034546 29.88235474 C-19.151199 31.60269097 -22.21455364 32.84573551 -25.9921875 33.36328125 C-25.40813003 28.02332724 -24.15645505 23.37428096 -22.2421875 18.36328125 C-21.84012085 17.30717651 -21.84012085 17.30717651 -21.42993164 16.22973633 C-17.08922133 5.18965315 -12.18746058 -0.1356932 0 0 Z " fill="#7E1730" transform="translate(467.9921875,410.63671875)"/>
<path d="M0 0 C0.99 0.33 1.98 0.66 3 1 C3.24438813 16.81191207 2.86777079 32.29071354 1 48 C-4.141138 46.33327623 -9.19889762 44.48110421 -14.25 42.5625 C-15.47203125 42.11293945 -15.47203125 42.11293945 -16.71875 41.65429688 C-17.49734375 41.35716797 -18.2759375 41.06003906 -19.078125 40.75390625 C-19.78356445 40.48908447 -20.48900391 40.2242627 -21.21582031 39.95141602 C-23 39 -23 39 -25 36 C-24.11828125 35.16855469 -24.11828125 35.16855469 -23.21875 34.3203125 C-20.96277397 31.96106996 -19.27681218 29.61035559 -17.5 26.875 C-16.81808594 25.8334375 -16.13617187 24.791875 -15.43359375 23.71875 C-15.05444824 23.13738281 -14.67530273 22.55601562 -14.28466797 21.95703125 C-12.81829122 19.72318936 -11.33430783 17.501649 -9.84765625 15.28125 C-9.30496094 14.47059082 -8.76226563 13.65993164 -8.203125 12.82470703 C-7.11881941 11.20567098 -6.03418975 9.58685193 -4.94921875 7.96826172 C-4.45164062 7.22334473 -3.9540625 6.47842773 -3.44140625 5.7109375 C-2.77153687 4.71006104 -2.77153687 4.71006104 -2.08813477 3.68896484 C-0.94791274 1.98621631 -0.94791274 1.98621631 0 0 Z " fill="#7F1830" transform="translate(621,325)"/>
<path d="M0 0 C37.7565645 -0.19846164 37.7565645 -0.19846164 54 1 C54.99 1 55.98 1 57 1 C59.02500796 1.26111214 61.04573216 1.556434 63.0625 1.875 C64.65771484 2.11863281 64.65771484 2.11863281 66.28515625 2.3671875 C69 3 69 3 71 5 C51.2 4.505 51.2 4.505 31 4 C31 3.67 31 3.34 31 3 C20.44 2.67 9.88 2.34 -1 2 C-0.67 1.34 -0.34 0.68 0 0 Z " fill="#8E2C3E" transform="translate(369,512)"/>
<path d="M0 0 C25.08 0.33 50.16 0.66 76 1 C76 1.33 76 1.66 76 2 C59.46442288 2.64582705 42.93183255 3.11522 26.38290405 3.17724609 C24.7613242 3.18404559 23.13975484 3.19426234 21.51821899 3.20800781 C19.22949004 3.22595191 16.94113507 3.23016694 14.65234375 3.23046875 C12.68769165 3.23663208 12.68769165 3.23663208 10.68334961 3.24291992 C6.77239388 2.98498919 3.7073253 2.20921647 0 1 C0 0.67 0 0.34 0 0 Z " fill="#770A15" transform="translate(337,513)"/>
<path d="M0 0 C0.66 1.32 1.32 2.64 2 4 C2.33 4.33 2.66 4.66 3 5 C3.12571806 7.4741696 3.18863319 9.91892118 3.203125 12.39453125 C3.20882507 13.13829514 3.21452515 13.88205902 3.22039795 14.64836121 C3.22986268 16.22625296 3.23638776 17.80416462 3.24023438 19.38208008 C3.24991837 21.79218332 3.28091738 24.20142606 3.3125 26.61132812 C3.31903205 28.14322409 3.32428173 29.67512618 3.328125 31.20703125 C3.3404718 31.92695755 3.3528186 32.64688385 3.36553955 33.3886261 C3.3449486 38.03482279 2.95141416 39.06478112 0 43 C0 28.81 0 14.62 0 0 Z " fill="#7D2128" transform="translate(718,491)"/>
<path d="M0 0 C3.37869799 4.50493066 3.37869799 4.50493066 3.36328125 8.01953125 C3.36392578 8.7880542 3.36457031 9.55657715 3.36523438 10.34838867 C3.34783203 11.16154541 3.33042969 11.97470215 3.3125 12.8125 C3.30412109 13.64821533 3.29574219 14.48393066 3.28710938 15.3449707 C3.1416239 22.99968899 2.26346339 30.45306246 1 38 C0.67 38 0.34 38 0 38 C0 25.46 0 12.92 0 0 Z " fill="#85222E" transform="translate(654,495)"/>
<path d="M0 0 C5.64166991 -0.04940499 11.28321413 -0.08572193 16.92504883 -0.10986328 C18.84466749 -0.11992639 20.76427081 -0.13357816 22.68383789 -0.15087891 C25.44160752 -0.17511364 28.19917464 -0.18647992 30.95703125 -0.1953125 C32.24623222 -0.21079636 32.24623222 -0.21079636 33.56147766 -0.22659302 C34.36208115 -0.22674408 35.16268463 -0.22689514 35.98754883 -0.22705078 C36.6914827 -0.231492 37.39541656 -0.23593323 38.12068176 -0.24050903 C40 0 40 0 43 2 C11.473206 3.19388403 11.473206 3.19388403 -1 3 C-0.67 2.01 -0.34 1.02 0 0 Z " fill="#8A2D3B" transform="translate(459,411)"/>
<path d="M0 0 C0.33 0 0.66 0 1 0 C3.77276249 18.06333621 5.11607753 36.80173326 3 55 C2.67 55 2.34 55 2 55 C1.97494385 53.92516357 1.9498877 52.85032715 1.92407227 51.74291992 C1.82992505 47.75646978 1.72972215 43.77019091 1.62768555 39.78393555 C1.58436438 38.05839035 1.54268727 36.33280307 1.50268555 34.60717773 C1.44491474 32.12731236 1.38123997 29.64765828 1.31640625 27.16796875 C1.29969376 26.39599655 1.28298126 25.62402435 1.26576233 24.82865906 C1.17772105 21.64817067 1.01254805 19.03764416 0 16 C0 14.33333333 0 12.66666667 0 11 C-0.185625 10.38125 -0.37125 9.7625 -0.5625 9.125 C-1.211857 5.9709803 -0.54383279 3.14214498 0 0 Z " fill="#8B2E3F" transform="translate(663,292)"/>
<path d="M0 0 C3.95598605 0.52746481 6.20263128 2.52202022 8.8125 5.375 C11.61773683 9.1642276 13.39775217 12.54666959 12.8125 17.375 C10.8125 16.375 10.8125 16.375 9.6875 13.25 C7.75354784 8.38490159 3.94605889 5.42419479 -0.1875 2.375 C-0.5175 2.375 -0.8475 2.375 -1.1875 2.375 C-1.5175 5.345 -1.8475 8.315 -2.1875 11.375 C-2.5175 11.375 -2.8475 11.375 -3.1875 11.375 C-3.21438151 9.72925434 -3.23384123 8.08338587 -3.25 6.4375 C-3.26160156 5.52097656 -3.27320313 4.60445312 -3.28515625 3.66015625 C-3.15532967 0.62221427 -2.97311795 0.50967736 0 0 Z " fill="#79121E" transform="translate(464.1875,563.625)"/>
<path d="M0 0 C0.99 0 1.98 0 3 0 C4.33447266 1.46533203 4.33447266 1.46533203 5.6640625 3.5078125 C6.14617188 4.24773437 6.62828125 4.98765625 7.125 5.75 C7.62 6.53375 8.115 7.3175 8.625 8.125 C9.37910156 9.26582031 9.37910156 9.26582031 10.1484375 10.4296875 C12.82634775 14.60492391 14.65967626 17.92755569 15 23 C9.15852 15.90311421 4.45697278 8.022551 0 0 Z " fill="#7A1723" transform="translate(687,421)"/>
<path d="M0 0 C0 4.27798714 -2.49796216 6.30913401 -5.1875 9.375 C-5.91163086 10.22191406 -5.91163086 10.22191406 -6.65039062 11.0859375 C-9.63095748 14.54259489 -12.73433821 17.81194992 -16 21 C-15.51604968 16.40657325 -13.83866305 14.30072725 -10.6875 11 C-8.29567215 8.46980194 -5.98858829 5.9855246 -3.83203125 3.25 C-2 1 -2 1 0 0 Z " fill="#7C1823" transform="translate(593,265)"/>
<path d="M0 0 C4.35760415 3.90468781 5.73505869 8.96716252 6.23583984 14.69970703 C6.29340115 17.49364414 6.26331229 20.26910881 6.1875 23.0625 C6.17396484 24.02349609 6.16042969 24.98449219 6.14648438 25.97460938 C6.11152306 28.31701752 6.06246104 30.65819156 6 33 C5.67 33 5.34 33 5 33 C4.96261719 31.80503906 4.92523438 30.61007812 4.88671875 29.37890625 C4.56797703 18.34707961 4.56797703 18.34707961 1.69921875 7.76953125 C0.70182245 5.24539425 0.34363645 2.6803643 0 0 Z " fill="#780F19" transform="translate(487,567)"/>
<path d="M0 0 C0.33 0 0.66 0 1 0 C1.34414421 6.99759901 0.71498778 13.46391831 -2 20 C-2.99 20.66 -3.98 21.32 -5 22 C-3.77048326 14.52164523 -2.11170763 7.2783523 0 0 Z " fill="#7C1520" transform="translate(676,536)"/>
<path d="M0 0 C0.33 0 0.66 0 1 0 C1.33 4.95 1.66 9.9 2 15 C2.33 15 2.66 15 3 15 C3.08159574 19.16138263 2.98248524 22.9472484 2 27 C-1.43054885 23.42500698 -1.34784582 20.58358369 -1.25 15.75 C-1.23904297 15.08411865 -1.22808594 14.4182373 -1.21679688 13.73217773 C-1.11263625 9.09080276 -0.74744262 4.57808604 0 0 Z " fill="#8E2E44" transform="translate(491,582)"/>
<path d="M0 0 C0 4.13997696 -2.16832917 6.45607031 -4.5 9.6875 C-4.92925781 10.29400391 -5.35851562 10.90050781 -5.80078125 11.52539062 C-6.86093138 13.02138026 -7.92965571 14.511287 -9 16 C-9.73828125 14.35546875 -9.73828125 14.35546875 -10 12 C-8.41796875 9.23828125 -8.41796875 9.23828125 -6.1875 6.3125 C-5.45917969 5.33925781 -4.73085938 4.36601562 -3.98046875 3.36328125 C-2 1 -2 1 0 0 Z " fill="#7B1620" transform="translate(613,340)"/>
<path d="M0 0 C0.33 0.99 0.66 1.98 1 3 C-0.23414044 5.34282452 -1.49246493 7.48292584 -2.9375 9.6875 C-3.32357422 10.29400391 -3.70964844 10.90050781 -4.10742188 11.52539062 C-5.06246419 13.02280265 -6.03006086 14.51219401 -7 16 C-7.99 15.67 -8.98 15.34 -10 15 C-8.52235475 12.68651501 -7.04296381 10.37418021 -5.5625 8.0625 C-5.14162109 7.40314453 -4.72074219 6.74378906 -4.28710938 6.06445312 C-1.11328125 1.11328125 -1.11328125 1.11328125 0 0 Z " fill="#7C1923" transform="translate(473,722)"/>
<path d="M0 0 C0 0.33 0 0.66 0 1 C-0.62648438 1.02578125 -1.25296875 1.0515625 -1.8984375 1.078125 C-2.71570313 1.13484375 -3.53296875 1.1915625 -4.375 1.25 C-5.18710937 1.29640625 -5.99921875 1.3428125 -6.8359375 1.390625 C-9.18838927 1.7922092 -9.18838927 1.7922092 -10.2890625 4.046875 C-10.52367187 4.69140625 -10.75828125 5.3359375 -11 6 C-11.66 6 -12.32 6 -13 6 C-13 10.62 -13 15.24 -13 20 C-13.33 20 -13.66 20 -14 20 C-14.10826289 17.5821288 -14.18739789 15.16912444 -14.25 12.75 C-14.28351562 12.06808594 -14.31703125 11.38617188 -14.3515625 10.68359375 C-14.41949729 7.18495207 -14.29299486 5.37532399 -12.109375 2.578125 C-7.95493203 -0.53001382 -5.08459042 -0.08200952 0 0 Z " fill="#943D4B" transform="translate(667,473)"/>
<path d="M0 0 C0 4.08481881 -1.70119331 5.84704653 -4 9.1875 C-4.7425 10.27417969 -5.485 11.36085937 -6.25 12.48046875 C-6.8275 13.31191406 -7.405 14.14335937 -8 15 C-8.70703125 13.32421875 -8.70703125 13.32421875 -9 11 C-7.63671875 8.45703125 -7.63671875 8.45703125 -5.6875 5.8125 C-5.05199219 4.93207031 -4.41648437 4.05164063 -3.76171875 3.14453125 C-2 1 -2 1 0 0 Z " fill="#7B1822" transform="translate(622,225)"/>
<path d="M0 0 C3.90285767 1.58667578 6.33520982 4.13350481 9.25 7.125 C10.14203125 8.03507813 11.0340625 8.94515625 11.953125 9.8828125 C12.62859375 10.58148437 13.3040625 11.28015625 14 12 C13.01 12.33 12.02 12.66 11 13 C2.3690205 4.738041 2.3690205 4.738041 0 0 Z " fill="#7A1621" transform="translate(690,512)"/>
<path d="M0 0 C-1.49678501 2.99357002 -4.0285712 3.55176584 -6.9921875 4.90234375 C-9.06024934 6.03293787 -10.42516796 7.26174199 -12 9 C-12 7.35 -12 5.7 -12 4 C-4.71428571 -0.57142857 -4.71428571 -0.57142857 0 0 Z " fill="#781821" transform="translate(284,460)"/>
<path d="M0 0 C1.66666667 1.66666667 3.33333333 3.33333333 5 5 C5.78375 5.680625 6.5675 6.36125 7.375 7.0625 C8.179375 8.0215625 8.179375 8.0215625 9 9 C8.6015625 11.12109375 8.6015625 11.12109375 8 13 C6.6578508 11.40320196 5.32652885 9.79729803 4 8.1875 C2.88625 6.84751953 2.88625 6.84751953 1.75 5.48046875 C0 3 0 3 0 0 Z " fill="#811C28" transform="translate(656,422)"/>
<path d="M0 0 C3.34726719 1.11575573 3.62079748 1.51344622 5.25 4.4375 C5.8275 5.613125 6.405 6.78875 7 8 C6.67 8.66 6.34 9.32 6 10 C5.34 10 4.68 10 4 10 C3.5875 9.05125 3.175 8.1025 2.75 7.125 C0.9959869 3.99283376 0.29148243 3.13499394 -3 2 C-2.01 1.34 -1.02 0.68 0 0 Z " fill="#83212E" transform="translate(607,585)"/>
<path d="M0 0 C0.66 0.33 1.32 0.66 2 1 C2.20413361 6.73842251 2.27141454 11.60539047 0 17 C-0.33 17 -0.66 17 -1 17 C-0.67 11.39 -0.34 5.78 0 0 Z " fill="#751119" transform="translate(663,343)"/>
<path d="M0 0 C1.32 0.33 2.64 0.66 4 1 C0.7 3.64 -2.6 6.28 -6 9 C-6.66 8.67 -7.32 8.34 -8 8 C-6.33333333 6.33333333 -4.66666667 4.66666667 -3 3 C-2.484375 2.38125 -1.96875 1.7625 -1.4375 1.125 C-0.963125 0.75375 -0.48875 0.3825 0 0 Z " fill="#7B1621" transform="translate(549,310)"/>
<path d="M0 0 C1.32 0.33 2.64 0.66 4 1 C0.7 3.31 -2.6 5.62 -6 8 C-6.66 7.67 -7.32 7.34 -8 7 C-5.42215154 4.35247996 -3.08351902 2.05567935 0 0 Z " fill="#7E1520" transform="translate(559,622)"/>
<path d="M0 0 C0.55171875 0.36867188 1.1034375 0.73734375 1.671875 1.1171875 C-0.09671191 1.78979101 -1.86808516 2.45507145 -3.640625 3.1171875 C-4.62675781 3.4884375 -5.61289062 3.8596875 -6.62890625 4.2421875 C-9.328125 5.1171875 -9.328125 5.1171875 -12.328125 5.1171875 C-12.328125 4.4571875 -12.328125 3.7971875 -12.328125 3.1171875 C-10.7533956 2.38992698 -9.16788221 1.68598328 -7.578125 0.9921875 C-6.69640625 0.59773438 -5.8146875 0.20328125 -4.90625 -0.203125 C-2.328125 -0.8828125 -2.328125 -0.8828125 0 0 Z " fill="#84202D" transform="translate(342.328125,463.8828125)"/>
<path d="M0 0 C3.67024761 1.22341587 4.3606842 2.83514059 6.1484375 6.14453125 C7.18118719 8.39478859 7.70252005 10.54579041 8 13 C7.34 13 6.68 13 6 13 C4.99491199 11.21118264 3.99607264 9.41885304 3 7.625 C2.1646875 6.12839844 2.1646875 6.12839844 1.3125 4.6015625 C0 2 0 2 0 0 Z " fill="#862834" transform="translate(434,735)"/>
<path d="M0 0 C-2.64738916 1.4606285 -3.89448334 2 -7 2 C-7 2.99 -7 3.98 -7 5 C-8.65 5.33 -10.3 5.66 -12 6 C-12.66 5.01 -13.32 4.02 -14 3 C-12.04486839 2.303447 -10.08577524 1.61800435 -8.125 0.9375 C-7.03445313 0.55464844 -5.94390625 0.17179687 -4.8203125 -0.22265625 C-2 -1 -2 -1 0 0 Z " fill="#892839" transform="translate(311,450)"/>
<path d="M0 0 C3.98381075 2.16264012 6.88983545 4.71211176 10 8 C9.67 8.99 9.34 9.98 9 11 C7.49403892 9.54782324 5.99537896 8.08807139 4.5 6.625 C3.6646875 5.81289063 2.829375 5.00078125 1.96875 4.1640625 C0 2 0 2 0 0 Z " fill="#79151F" transform="translate(670,401)"/>
<path d="M0 0 C-0.66 0 -1.32 0 -2 0 C-2 0.66 -2 1.32 -2 2 C-8.75 4.125 -8.75 4.125 -11 3 C-11.33 3.66 -11.66 4.32 -12 5 C-12.99 4.34 -13.98 3.68 -15 3 C-13.06643218 2.30151736 -11.12797702 1.61655186 -9.1875 0.9375 C-8.10855469 0.55464844 -7.02960938 0.17179687 -5.91796875 -0.22265625 C-3 -1 -3 -1 0 0 Z " fill="#862230" transform="translate(474,345)"/>
<path d="M0 0 C5.78898419 -0.20674944 10.42932723 0.40837921 16 2 C16 2.33 16 2.66 16 3 C10.26157749 3.20413361 5.39460953 3.27141454 0 1 C0 0.67 0 0.34 0 0 Z " fill="#78121C" transform="translate(433,539)"/>
<path d="M0 0 C4.25 6.375 4.25 6.375 4.125 11.1875 C4.10695313 12.08855469 4.08890625 12.98960937 4.0703125 13.91796875 C4.03550781 14.94857422 4.03550781 14.94857422 4 16 C2.60025314 13.36518239 1.58775959 10.89629292 0.875 8 C0.70742188 7.34 0.53984375 6.68 0.3671875 6 C0 4 0 4 0 0 Z " fill="#761019" transform="translate(714,473)"/>
<path d="M0 0 C1.21386936 3.64160808 0.6674695 4.33165469 -0.9375 7.6875 C-1.31777344 8.49574219 -1.69804688 9.30398438 -2.08984375 10.13671875 C-2.39019531 10.75160156 -2.69054687 11.36648438 -3 12 C-3.33 12 -3.66 12 -4 12 C-3.28571429 3.42857143 -3.28571429 3.42857143 0 0 Z " fill="#7B1620" transform="translate(521,270)"/>
<path d="M0 0 C3.65316671 1.24976756 4.78065836 1.67098753 7 5 C6.625 7.1875 6.625 7.1875 6 9 C5.54625 8.195625 5.0925 7.39125 4.625 6.5625 C3.25274335 3.91143428 3.25274335 3.91143428 1 3 C0.67 4.32 0.34 5.64 0 7 C0 4.69 0 2.38 0 0 Z " fill="#7C1C26" transform="translate(529,242)"/>
<path d="M0 0 C1.32 0.33 2.64 0.66 4 1 C0.7 3.31 -2.6 5.62 -6 8 C-6.66 7.67 -7.32 7.34 -8 7 C-5.42215154 4.35247996 -3.08351902 2.05567935 0 0 Z " fill="#831F2C" transform="translate(564,647)"/>
<path d="M0 0 C0 0.66 0 1.32 0 2 C-1.6210103 2.69685498 -3.24696066 3.38222861 -4.875 4.0625 C-5.77992188 4.44535156 -6.68484375 4.82820313 -7.6171875 5.22265625 C-10 6 -10 6 -12 5 C-10.71735273 2.43470546 -9.77227651 2.33500137 -7.125 1.375 C-6.42632812 1.11460937 -5.72765625 0.85421875 -5.0078125 0.5859375 C-3 0 -3 0 0 0 Z " fill="#821C29" transform="translate(367,454)"/>
<path d="M0 0 C0.66 0.99 1.32 1.98 2 3 C1.40844669 4.31823302 0.80128537 5.62947051 0.1875 6.9375 C-0.14894531 7.66839844 -0.48539062 8.39929688 -0.83203125 9.15234375 C-2 11 -2 11 -5 12 C-3.68938409 7.76570244 -2.05643741 3.92592596 0 0 Z " fill="#821F2A" transform="translate(512,289)"/>
<path d="M0 0 C0 3.60573896 -0.81707462 4.41336566 -3 7.1875 C-3.556875 7.90292969 -4.11375 8.61835938 -4.6875 9.35546875 C-5.120625 9.89816406 -5.55375 10.44085938 -6 11 C-6.609375 9.1640625 -6.609375 9.1640625 -7 7 C-4.91882331 3.87823497 -3.13348366 2.08898911 0 0 Z " fill="#79131E" transform="translate(606,248)"/>
<path d="M0 0 C0.33 0.99 0.66 1.98 1 3 C2.98 3 4.96 3 7 3 C2.375 7 2.375 7 -1 7 C-0.67 4.69 -0.34 2.38 0 0 Z " fill="#892935" transform="translate(443,437)"/>
<path d="M0 0 C1.07999887 3.2399966 0.92129428 4.38363535 0.1875 7.625 C0.01605469 8.42164063 -0.15539062 9.21828125 -0.33203125 10.0390625 C-1 12 -1 12 -3 13 C-3.31563182 7.73946963 -2.66590937 4.55426184 0 0 Z " fill="#7A141D" transform="translate(634,373)"/>
<path d="M0 0 C-1.32 0.33 -2.64 0.66 -4 1 C-4 1.66 -4 2.32 -4 3 C-7.21451269 4.60725635 -10.43612536 4.05748185 -14 4 C-11.37350692 2.24900461 -9.38191413 1.30690675 -6.4375 0.3125 C-5.65246094 0.04050781 -4.86742187 -0.23148437 -4.05859375 -0.51171875 C-2 -1 -2 -1 0 0 Z " fill="#872633" transform="translate(513,333)"/>
<path d="M0 0 C0.66 0.33 1.32 0.66 2 1 C0.02 3.31 -1.96 5.62 -4 8 C-5.32 7.67 -6.64 7.34 -8 7 C-5.36 4.69 -2.72 2.38 0 0 Z " fill="#85212D" transform="translate(590,598)"/>
<path d="M0 0 C3 1 3 1 4.75 3.8125 C6.05483179 7.13982105 6.02866653 7.79584277 5 11 C4.16151196 9.54462432 3.32936066 8.08559627 2.5 6.625 C1.80390625 5.40683594 1.80390625 5.40683594 1.09375 4.1640625 C0 2 0 2 0 0 Z " fill="#7A1722" transform="translate(302,484)"/>
<path d="M0 0 C4.83256305 0.41421969 6.82679218 2.46413986 10 6 C9.01 6.495 9.01 6.495 8 7 C6.66382648 6.02471263 5.3311249 5.04466681 4 4.0625 C3.2575 3.51722656 2.515 2.97195313 1.75 2.41015625 C1.1725 1.94480469 0.595 1.47945313 0 1 C0 0.67 0 0.34 0 0 Z " fill="#85202C" transform="translate(627,398)"/>
<path d="M0 0 C0.33 0 0.66 0 1 0 C1.08121924 1.60332791 1.13929134 3.20784026 1.1875 4.8125 C1.23970703 6.15248047 1.23970703 6.15248047 1.29296875 7.51953125 C0.95081002 10.41647515 0.24606427 11.22555028 -2 13 C-1.85851011 11.3954444 -1.71164314 9.79136233 -1.5625 8.1875 C-1.48128906 7.29417969 -1.40007813 6.40085937 -1.31640625 5.48046875 C-1 3 -1 3 0 0 Z " fill="#780F19" transform="translate(661,361)"/>
<path d="M0 0 C0.12375 0.5775 0.2475 1.155 0.375 1.75 C1.00648824 4.02335767 1.88858191 5.9253529 3 8 C0.03 7.505 0.03 7.505 -3 7 C-3.33 6.01 -3.66 5.02 -4 4 C-2.68 2.68 -1.36 1.36 0 0 Z " fill="#872834" transform="translate(600,357)"/>
<path d="M0 0 C3 0 3 0 5 1 C2.36 2.98 -0.28 4.96 -3 7 C-3 3.47190093 -2.35723489 2.53184488 0 0 Z " fill="#832435" transform="translate(625,219)"/>
<path d="M0 0 C4 5 4 5 8 10 C6.25 9.875 6.25 9.875 4 9 C0 3.88888889 0 3.88888889 0 0 Z " fill="#791922" transform="translate(441,744)"/>
<path d="M0 0 C0.95465783 2.16967689 1.14401212 3.56328793 0.3984375 5.82421875 C-0.35870385 7.5684743 -1.17609198 9.28627131 -2 11 C-2.33 11 -2.66 11 -3 11 C-2.88590407 9.54077307 -2.75834456 8.08259402 -2.625 6.625 C-2.55539062 5.81289063 -2.48578125 5.00078125 -2.4140625 4.1640625 C-2 2 -2 2 0 0 Z " fill="#79131D" transform="translate(456,593)"/>
<path d="M0 0 C0.391875 0.433125 0.78375 0.86625 1.1875 1.3125 C3.00305796 3.14164898 3.00305796 3.14164898 5.625 4.4375 C8 6 8 6 8.6484375 8.09765625 C8.76445313 8.72542969 8.88046875 9.35320312 9 10 C7.67823515 9.09674384 6.36784934 8.17682097 5.0625 7.25 C4.33160156 6.73953125 3.60070312 6.2290625 2.84765625 5.703125 C0.79194601 3.80822085 0.37330824 2.72574271 0 0 Z " fill="#75111B" transform="translate(655,386)"/>
<path d="M0 0 C0.66 0.66 1.32 1.32 2 2 C0.35 3.98 -1.3 5.96 -3 8 C-4.32 7.67 -5.64 7.34 -7 7 C-5.47005208 5.76302083 -3.94010417 4.52604167 -2.41015625 3.2890625 C-0.86733563 2.0333609 -0.86733563 2.0333609 0 0 Z " fill="#882835" transform="translate(576,608)"/>
<path d="M0 0 C2 1 2 1 2.8515625 3.06640625 C3.10679687 3.89011719 3.36203125 4.71382813 3.625 5.5625 C3.88539063 6.38878906 4.14578125 7.21507812 4.4140625 8.06640625 C4.60742188 8.70449219 4.80078125 9.34257812 5 10 C2 9 2 9 0.8125 7.25 C-0.10819096 4.70039426 -0.14948718 2.69076919 0 0 Z " fill="#791720" transform="translate(277,486)"/>
<path d="M0 0 C0.33 0 0.66 0 1 0 C1.33 4.29 1.66 8.58 2 13 C1.34 13 0.68 13 0 13 C-0.33 13.66 -0.66 14.32 -1 15 C-0.67 10.05 -0.34 5.1 0 0 Z " fill="#903041" transform="translate(637,344)"/>
<path d="M0 0 C0.33 0.99 0.66 1.98 1 3 C-1.15343189 6.23014784 -2.27059611 7.75686537 -6 9 C-4.47291037 5.56404834 -2.40072955 2.88087546 0 0 Z " fill="#811E29" transform="translate(598,257)"/>
<path d="M0 0 C2.61500768 2.36595933 4.38999603 4.86049226 6 8 C5.67 8.66 5.34 9.32 5 10 C1.32769295 6.92000054 0.43197635 4.7517398 0 0 Z " fill="#80202B" transform="translate(635,220)"/>
<path d="M0 0 C0.66 0.33 1.32 0.66 2 1 C0.35 2.98 -1.3 4.96 -3 7 C-4.32 6.67 -5.64 6.34 -7 6 C-4.69 4.02 -2.38 2.04 0 0 Z " fill="#872330" transform="translate(500,663)"/>
<path d="M0 0 C-1.4638611 4.39158329 -3.97831338 4.87947433 -8 7 C-8 6.01 -8 5.02 -8 4 C-2.74285714 0 -2.74285714 0 0 0 Z " fill="#7D1821" transform="translate(543,663)"/>
<path d="M0 0 C1.32 0.33 2.64 0.66 4 1 C0.535 3.97 0.535 3.97 -3 7 C-3.66 6.67 -4.32 6.34 -5 6 C-3.35 4.02 -1.7 2.04 0 0 Z " fill="#79121C" transform="translate(580,606)"/>
<path d="M0 0 C0 0.66 0 1.32 0 2 C0.99 2.33 1.98 2.66 3 3 C-2.28 2.67 -7.56 2.34 -13 2 C-13 1.67 -13 1.34 -13 1 C-11.20843648 0.83222817 -9.4167455 0.66581706 -7.625 0.5 C-6.62726563 0.4071875 -5.62953125 0.314375 -4.6015625 0.21875 C-2 0 -2 0 0 0 Z " fill="#93374A" transform="translate(433,538)"/>
<path d="M0 0 C0.625 1.8125 0.625 1.8125 1 4 C0.01 5.485 0.01 5.485 -1 7 C-3.625 7.1875 -3.625 7.1875 -6 7 C-6.33 6.34 -6.66 5.68 -7 5 C-5.35 5 -3.7 5 -2 5 C-2 4.34 -2 3.68 -2 3 C-1.34 3 -0.68 3 0 3 C0 2.01 0 1.02 0 0 Z " fill="#85333C" transform="translate(719,531)"/>
<path d="M0 0 C-0.66 0 -1.32 0 -2 0 C-2 0.66 -2 1.32 -2 2 C-6.455 2.495 -6.455 2.495 -11 3 C-7.74003139 -0.25996861 -4.40088745 -1.46696248 0 0 Z " fill="#7E151F" transform="translate(317,473)"/>
<path d="M0 0 C-2.97 1.65 -5.94 3.3 -9 5 C-9 4.01 -9 3.02 -9 2 C-5.3823098 -0.81375904 -4.61553765 -1.15388441 0 0 Z " fill="#831E2B" transform="translate(399,440)"/>
<path d="M0 0 C0.66 0.33 1.32 0.66 2 1 C2 1.99 2 2.98 2 4 C-0.5 6.1875 -0.5 6.1875 -3 8 C-3.66 7.67 -4.32 7.34 -5 7 C-3.35 4.69 -1.7 2.38 0 0 Z " fill="#842035" transform="translate(597,622)"/>
<path d="M0 0 C0.33 0 0.66 0 1 0 C1.36923077 6.52307692 1.36923077 6.52307692 -0.5 8.9375 C-0.995 9.288125 -1.49 9.63875 -2 10 C-3 8 -3 8 -2.44140625 6.0546875 C-2.15136719 5.33539062 -1.86132812 4.61609375 -1.5625 3.875 C-1.27503906 3.15054688 -0.98757813 2.42609375 -0.69140625 1.6796875 C-0.46324219 1.12539063 -0.23507812 0.57109375 0 0 Z " fill="#862332" transform="translate(448,611)"/>
<path d="M0 0 C0.66 0.33 1.32 0.66 2 1 C0.68 2.65 -0.64 4.3 -2 6 C-3.32 5.67 -4.64 5.34 -6 5 C-4.02 3.35 -2.04 1.7 0 0 Z " fill="#882332" transform="translate(567,616)"/>
<path d="M0 0 C0 3 0 3 -2.5 5.6875 C-3.325 6.450625 -4.15 7.21375 -5 8 C-4.45773019 4.20411134 -2.79872437 2.52788007 0 0 Z " fill="#7B161F" transform="translate(635,579)"/>
<path d="M0 0 C3.77545388 1.09068668 6.47043472 1.9083091 9 5 C3.48387097 4.38709677 3.48387097 4.38709677 1.125 2.5 C0 1 0 1 0 0 Z " fill="#86222E" transform="translate(476,526)"/>
<path d="M0 0 C2.4375 0.6875 2.4375 0.6875 5 2 C5.8125 4.625 5.8125 4.625 6 7 C3.95880212 5.38405168 1.95927063 3.7143618 0 2 C0 1.34 0 0.68 0 0 Z " fill="#832533" transform="translate(292,513)"/>
<path d="M0 0 C2.72426311 2.35277269 3.8141763 4.62496331 5 8 C3.0625 7.375 3.0625 7.375 1 6 C0.25 2.875 0.25 2.875 0 0 Z " fill="#7A1621" transform="translate(283,498)"/>
<path d="M0 0 C-2.55068845 2.35448165 -3.71017358 2.98327924 -7.25 3.1875 C-8.1575 3.125625 -9.065 3.06375 -10 3 C-7.28464405 0.28464405 -3.67870689 -1.83935344 0 0 Z " fill="#79131C" transform="translate(351,461)"/>
<path d="M0 0 C-1 3 -1 3 -2.8125 4.25 C-5.33943414 5.11637742 -6.52221994 4.88492145 -9 4 C-2.25 0 -2.25 0 0 0 Z " fill="#7C1520" transform="translate(457,435)"/>
<path d="M0 0 C0.99 0 1.98 0 3 0 C3 1.65 3 3.3 3 5 C1.02 5.99 1.02 5.99 -1 7 C-0.67 4.69 -0.34 2.38 0 0 Z " fill="#852038" transform="translate(400,432)"/>
<path d="M0 0 C2.46800047 1.15173355 4.04783565 2.04783565 6 4 C5.67 4.99 5.34 5.98 5 7 C2.5 5.1875 2.5 5.1875 0 3 C0 2.01 0 1.02 0 0 Z " fill="#801C27" transform="translate(642,409)"/>
<path d="M0 0 C-0.66 0 -1.32 0 -2 0 C-2 0.66 -2 1.32 -2 2 C-3.98 2.33 -5.96 2.66 -8 3 C-8.33 2.34 -8.66 1.68 -9 1 C-3.375 -1.125 -3.375 -1.125 0 0 Z " fill="#7A0F25" transform="translate(481,366)"/>
<path d="M0 0 C0.33 0 0.66 0 1 0 C1.144375 0.7425 1.28875 1.485 1.4375 2.25 C1.93059024 4.91958229 1.93059024 4.91958229 2.6875 7.125 C3 9 3 9 1 12 C0.03929566 9.11788698 -0.10581883 7.30149956 -0.0625 4.3125 C-0.05347656 3.50425781 -0.04445313 2.69601562 -0.03515625 1.86328125 C-0.02355469 1.24839844 -0.01195312 0.63351562 0 0 Z " fill="#862637" transform="translate(637,304)"/>
<path d="M0 0 C3 3 3 3 3.07421875 5.48046875 C2.94660156 6.37378906 2.81898438 7.26710938 2.6875 8.1875 C2.56761719 9.08855469 2.44773437 9.98960937 2.32421875 10.91796875 C2.21722656 11.60503906 2.11023438 12.29210937 2 13 C1.67 13 1.34 13 1 13 C0.67 8.71 0.34 4.42 0 0 Z " fill="#8E2D3E" transform="translate(635,290)"/>
<path d="M0 0 C0.99 0 1.98 0 3 0 C3.66 0.99 4.32 1.98 5 3 C4.34 4.32 3.68 5.64 3 7 C1.5 5.75 1.5 5.75 0 4 C0 2.68 0 1.36 0 0 Z " fill="#85223B" transform="translate(648,251)"/>
<path d="M0 0 C0.75 1.75 0.75 1.75 1 4 C-0.9375 6.25 -0.9375 6.25 -3 8 C-3 4.42424104 -1.91159393 2.94704065 0 0 Z " fill="#84222E" transform="translate(638,572)"/>
<path d="M0 0 C3 1 3 1 5 4 C5.125 6.6875 5.125 6.6875 5 9 C2.67527795 6.14693203 1.2491742 3.45925163 0 0 Z " fill="#7B131C" transform="translate(504,552)"/>
<path d="M0 0 C2.64 1.65 5.28 3.3 8 5 C6.68 5.33 5.36 5.66 4 6 C1.75 4.1875 1.75 4.1875 0 2 C0 1.34 0 0.68 0 0 Z " fill="#79111D" transform="translate(680,504)"/>
<path d="M0 0 C1.5625 1.8125 1.5625 1.8125 3 4 C2 7 2 7 0 9 C-0.84454356 5.62182575 -1.10844919 3.32534757 0 0 Z " fill="#832339" transform="translate(276,480)"/>
<path d="M0 0 C1.98362069 2.91708924 1.9876191 4.12380904 1.625 7.75 C1.41875 8.8225 1.2125 9.895 1 11 C0.87625 10.360625 0.7525 9.72125 0.625 9.0625 C0.41875 8.381875 0.2125 7.70125 0 7 C-0.66 6.67 -1.32 6.34 -2 6 C-1.34 4.02 -0.68 2.04 0 0 Z " fill="#8A3B45" transform="translate(271,465)"/>
<path d="M0 0 C-1.29299694 2.88437779 -2.65941363 4.87219421 -5 7 C-5 3 -5 3 -3.625 1.25 C-2 0 -2 0 0 0 Z " fill="#7B131D" transform="translate(444,385)"/>
<path d="M0 0 C1.31223496 3.93670488 0.24296256 6.12488144 -1 10 C-2.42944945 7.64561267 -3.08661261 6.51967567 -2.625 3.75 C-2.41875 3.1725 -2.2125 2.595 -2 2 C-1.34 2 -0.68 2 0 2 C0 1.34 0 0.68 0 0 Z " fill="#862432" transform="translate(660,372)"/>
<path d="M0 0 C-3.44450737 2.29633824 -5.93812283 2.54016485 -10 3 C-9.34 2.67 -8.68 2.34 -8 2 C-8 1.34 -8 0.68 -8 0 C-4.71023192 -1.09658936 -3.28696233 -0.79953138 0 0 Z " fill="#8A2737" transform="translate(487,366)"/>
<path d="M0 0 C-3.44450737 2.29633824 -5.93812283 2.54016485 -10 3 C-9.34 2.67 -8.68 2.34 -8 2 C-8 1.34 -8 0.68 -8 0 C-4.71023192 -1.09658936 -3.28696233 -0.79953138 0 0 Z " fill="#8B2B3A" transform="translate(509,360)"/>
<path d="M0 0 C-3.75 3 -3.75 3 -6 3 C-6.33 3.66 -6.66 4.32 -7 5 C-7.33 3.68 -7.66 2.36 -8 1 C-5.07175348 0.02391783 -3.04386724 -0.08226668 0 0 Z " fill="#882535" transform="translate(542,347)"/>
<path d="M0 0 C0.99 0.33 1.98 0.66 3 1 C4.16552619 5.19589427 4.08954032 5.82091936 2 10 C1.34 6.7 0.68 3.4 0 0 Z " fill="#882535" transform="translate(630,272)"/>
<path d="M0 0 C0.99 0 1.98 0 3 0 C2.67 0.66 2.34 1.32 2 2 C1.34 1.34 0.68 0.68 0 0 Z " fill="#8E2D42" transform="translate(307,478)"/>
<path d="M0 0 C0.66 0 1.32 0 2 0 C1.67 0.99 1.34 1.98 1 3 C0.67 2.01 0.34 1.02 0 0 Z " fill="#8D2B40" transform="translate(632,291)"/>
<path d="M0 0 C3 1 3 1 3 1 Z " fill="#8D3D47" transform="translate(451,759)"/>
<path d="" fill="#8C2F42" transform="translate(0,0)"/>
<path d="" fill="#902E42" transform="translate(0,0)"/>
<path d="M0 0 C0.99 0.495 0.99 0.495 2 1 C1.01 1.495 1.01 1.495 0 2 C0 1.34 0 0.68 0 0 Z " fill="#8D3345" transform="translate(604,584)"/>
<path d="M0 0 C3 1 3 1 3 1 Z " fill="#8F3044" transform="translate(640,413)"/>
<path d="M0 0 C0.33 0.66 0.66 1.32 1 2 C0.34 1.67 -0.32 1.34 -1 1 C-0.67 0.67 -0.34 0.34 0 0 Z " fill="#8D2F42" transform="translate(575,326)"/>
<path d="M0 0 C0.33 0.66 0.66 1.32 1 2 C0.34 1.67 -0.32 1.34 -1 1 C-0.67 0.67 -0.34 0.34 0 0 Z " fill="#8E3446" transform="translate(497,314)"/>
<path d="" fill="#883545" transform="translate(0,0)"/>
<path d="" fill="#8A3345" transform="translate(0,0)"/>
<path d="" fill="#852736" transform="translate(0,0)"/>
<path d="M0 0 C2 1 2 1 2 1 Z " fill="#8F2F44" transform="translate(456,547)"/>
<path d="M0 0 C2 1 2 1 2 1 Z " fill="#8F434D" transform="translate(716,540)"/>
<path d="" fill="#893444" transform="translate(0,0)"/>
<path d="M0 0 C2 1 2 1 2 1 Z " fill="#8A3545" transform="translate(284,456)"/>
<path d="M0 0 C2 1 2 1 2 1 Z " fill="#923C49" transform="translate(440,445)"/>
<path d="M0 0 C2 1 2 1 2 1 Z " fill="#922F43" transform="translate(648,419)"/>
<path d="" fill="#8C3345" transform="translate(0,0)"/>
<path d="M0 0 C2 1 2 1 2 1 Z " fill="#8F3645" transform="translate(624,399)"/>
<path d="M0 0 C2 1 2 1 2 1 Z " fill="#8F2F41" transform="translate(438,394)"/>
<path d="M0 0 C2 1 2 1 2 1 Z " fill="#8D2F43" transform="translate(587,265)"/>
<path d="" fill="#88404C" transform="translate(0,0)"/>
<path d="" fill="#8D3E4A" transform="translate(0,0)"/>
<path d="" fill="#8B3949" transform="translate(0,0)"/>
<path d="" fill="#8A3746" transform="translate(0,0)"/>
<path d="" fill="#893645" transform="translate(0,0)"/>
<path d="" fill="#8E3648" transform="translate(0,0)"/>
<path d="" fill="#8C2F43" transform="translate(0,0)"/>
<path d="" fill="#8A3245" transform="translate(0,0)"/>
<path d="" fill="#8B3145" transform="translate(0,0)"/>
<path d="" fill="#8D3042" transform="translate(0,0)"/>
<path d="" fill="#8F2C42" transform="translate(0,0)"/>
<path d="" fill="#8F2F43" transform="translate(0,0)"/>
<path d="" fill="#8C2E40" transform="translate(0,0)"/>
<path d="" fill="#8F3245" transform="translate(0,0)"/>
<path d="" fill="#8C3042" transform="translate(0,0)"/>
<path d="" fill="#8D2E43" transform="translate(0,0)"/>
<path d="" fill="#8E2E43" transform="translate(0,0)"/>
<path d="" fill="#8E2E42" transform="translate(0,0)"/>
<path d="" fill="#903144" transform="translate(0,0)"/>
<path d="" fill="#8B3145" transform="translate(0,0)"/>
<path d="" fill="#903045" transform="translate(0,0)"/>
<path d="" fill="#923446" transform="translate(0,0)"/>
<path d="" fill="#8F3042" transform="translate(0,0)"/>
<path d="" fill="#903043" transform="translate(0,0)"/>
<path d="" fill="#8D3647" transform="translate(0,0)"/>
<path d="" fill="#8F3144" transform="translate(0,0)"/>
<path d="" fill="#8E3244" transform="translate(0,0)"/>
<path d="" fill="#8D2A40" transform="translate(0,0)"/>
<path d="" fill="#8C2B43" transform="translate(0,0)"/>
<path d="" fill="#8E3242" transform="translate(0,0)"/>
<path d="" fill="#8F3045" transform="translate(0,0)"/>
<path d="" fill="#8E3044" transform="translate(0,0)"/>
<path d="" fill="#8D2E42" transform="translate(0,0)"/>
<path d="" fill="#903243" transform="translate(0,0)"/>
<path d="" fill="#8C2F44" transform="translate(0,0)"/>
<path d="" fill="#903247" transform="translate(0,0)"/>
<path d="" fill="#8F3345" transform="translate(0,0)"/>
<path d="" fill="#8B2E42" transform="translate(0,0)"/>
<path d="" fill="#913347" transform="translate(0,0)"/>
<path d="" fill="#8D3245" transform="translate(0,0)"/>
<path d="" fill="#8E2D44" transform="translate(0,0)"/>
<path d="" fill="#923245" transform="translate(0,0)"/>
<path d="" fill="#923348" transform="translate(0,0)"/>
<path d="" fill="#8E3549" transform="translate(0,0)"/>
<path d="" fill="#913446" transform="translate(0,0)"/>
<path d="" fill="#912E42" transform="translate(0,0)"/>
<path d="" fill="#8F3146" transform="translate(0,0)"/>
<path d="" fill="#8F2D42" transform="translate(0,0)"/>
<path d="" fill="#903448" transform="translate(0,0)"/>
<path d="" fill="#912E43" transform="translate(0,0)"/>
<path d="" fill="#90434C" transform="translate(0,0)"/>
<path d="" fill="#923248" transform="translate(0,0)"/>
<path d="" fill="#913347" transform="translate(0,0)"/>
<path d="" fill="#903446" transform="translate(0,0)"/>
<path d="" fill="#8F3246" transform="translate(0,0)"/>
<path d="" fill="#8D3044" transform="translate(0,0)"/>
<path d="" fill="#8F3144" transform="translate(0,0)"/>
<path d="" fill="#92424E" transform="translate(0,0)"/>
<path d="" fill="#8F3245" transform="translate(0,0)"/>
<path d="" fill="#8F3245" transform="translate(0,0)"/>
<path d="" fill="#913647" transform="translate(0,0)"/>
<path d="" fill="#943748" transform="translate(0,0)"/>
<path d="" fill="#8D3546" transform="translate(0,0)"/>
<path d="" fill="#8D3144" transform="translate(0,0)"/>
<path d="" fill="#943647" transform="translate(0,0)"/>
<path d="" fill="#8D3345" transform="translate(0,0)"/>
<path d="" fill="#8E3140" transform="translate(0,0)"/>
<path d="" fill="#903043" transform="translate(0,0)"/>
<path d="" fill="#8B3749" transform="translate(0,0)"/>
<path d="" fill="#903346" transform="translate(0,0)"/>
<path d="" fill="#8C3043" transform="translate(0,0)"/>
<path d="" fill="#913345" transform="translate(0,0)"/>
<path d="" fill="#8D2E42" transform="translate(0,0)"/>
<path d="" fill="#8A3042" transform="translate(0,0)"/>
<path d="" fill="#8F2F41" transform="translate(0,0)"/>
<path d="" fill="#8A3041" transform="translate(0,0)"/>
<path d="" fill="#883745" transform="translate(0,0)"/>
<path d="" fill="#8D2D41" transform="translate(0,0)"/>
<path d="" fill="#8B3142" transform="translate(0,0)"/>
<path d="" fill="#8C3346" transform="translate(0,0)"/>
<path d="" fill="#853B45" transform="translate(0,0)"/>
<path d="" fill="#8B3144" transform="translate(0,0)"/>
<path d="" fill="#913040" transform="translate(0,0)"/>
<path d="" fill="#8B3244" transform="translate(0,0)"/>
<path d="" fill="#883E4A" transform="translate(0,0)"/>
<path d="" fill="#903043" transform="translate(0,0)"/>
<path d="" fill="#892E42" transform="translate(0,0)"/>
<path d="" fill="#8E2E43" transform="translate(0,0)"/>
<path d="" fill="#8B2E43" transform="translate(0,0)"/>
<path d="" fill="#8E2E43" transform="translate(0,0)"/>
<path d="" fill="#8C3545" transform="translate(0,0)"/>
<path d="" fill="#8D2E42" transform="translate(0,0)"/>
<path d="" fill="#882F3F" transform="translate(0,0)"/>
<path d="" fill="#913B4A" transform="translate(0,0)"/>
<path d="" fill="#8F3A49" transform="translate(0,0)"/>
<path d="" fill="#8C3042" transform="translate(0,0)"/>
<path d="" fill="#8C3343" transform="translate(0,0)"/>
<path d="" fill="#923543" transform="translate(0,0)"/>
<path d="" fill="#913745" transform="translate(0,0)"/>
<path d="" fill="#8D3042" transform="translate(0,0)"/>
<path d="" fill="#923345" transform="translate(0,0)"/>
<path d="" fill="#8B3144" transform="translate(0,0)"/>
<path d="" fill="#8E2E44" transform="translate(0,0)"/>
<path d="" fill="#8F2D3E" transform="translate(0,0)"/>
<path d="" fill="#8D3144" transform="translate(0,0)"/>
<path d="" fill="#8C2D42" transform="translate(0,0)"/>
<path d="" fill="#8F3044" transform="translate(0,0)"/>
<path d="" fill="#8C3245" transform="translate(0,0)"/>
<path d="" fill="#8B3142" transform="translate(0,0)"/>
<path d="" fill="#882D41" transform="translate(0,0)"/>
<path d="" fill="#8E2D42" transform="translate(0,0)"/>
<path d="" fill="#963949" transform="translate(0,0)"/>
<path d="" fill="#913447" transform="translate(0,0)"/>
<path d="" fill="#953E4F" transform="translate(0,0)"/>
<path d="" fill="#893042" transform="translate(0,0)"/>
<path d="" fill="#8D2E43" transform="translate(0,0)"/>
<path d="" fill="#8B2C40" transform="translate(0,0)"/>
<path d="" fill="#8E2E41" transform="translate(0,0)"/>
<path d="" fill="#8E2C3F" transform="translate(0,0)"/>
<path d="" fill="#8C3545" transform="translate(0,0)"/>
<path d="" fill="#903648" transform="translate(0,0)"/>
<path d="" fill="#8A2D41" transform="translate(0,0)"/>
<path d="" fill="#892F3F" transform="translate(0,0)"/>
<path d="" fill="#8C3143" transform="translate(0,0)"/>
<path d="" fill="#8C3242" transform="translate(0,0)"/>
<path d="" fill="#8E2C45" transform="translate(0,0)"/>
<path d="" fill="#902E46" transform="translate(0,0)"/>
<path d="" fill="#902D41" transform="translate(0,0)"/>
<path d="" fill="#8C3144" transform="translate(0,0)"/>
<path d="" fill="#902F43" transform="translate(0,0)"/>
<path d="" fill="#8B3648" transform="translate(0,0)"/>
<path d="" fill="#8D2E43" transform="translate(0,0)"/>
<path d="" fill="#8A293D" transform="translate(0,0)"/>
<path d="" fill="#8D2F44" transform="translate(0,0)"/>
<path d="" fill="#903143" transform="translate(0,0)"/>
<path d="" fill="#902F44" transform="translate(0,0)"/>
<path d="" fill="#933649" transform="translate(0,0)"/>
<path d="" fill="#902E45" transform="translate(0,0)"/>
<path d="" fill="#8B3344" transform="translate(0,0)"/>
<path d="" fill="#8F3344" transform="translate(0,0)"/>
<path d="" fill="#8F3447" transform="translate(0,0)"/>
<path d="" fill="#923044" transform="translate(0,0)"/>
<path d="" fill="#8F3345" transform="translate(0,0)"/>
<path d="" fill="#903042" transform="translate(0,0)"/>
<path d="" fill="#8F3144" transform="translate(0,0)"/>
<path d="" fill="#8E3044" transform="translate(0,0)"/>
<path d="" fill="#8F3044" transform="translate(0,0)"/>
<path d="" fill="#8C2F44" transform="translate(0,0)"/>
<path d="" fill="#8C2E43" transform="translate(0,0)"/>
<path d="" fill="#902F44" transform="translate(0,0)"/>
<path d="" fill="#8E2F42" transform="translate(0,0)"/>
<path d="" fill="#8E3045" transform="translate(0,0)"/>
<path d="" fill="#8A2F42" transform="translate(0,0)"/>
<path d="" fill="#8D2D42" transform="translate(0,0)"/>
<path d="" fill="#8D2E43" transform="translate(0,0)"/>
<path d="" fill="#8A2B3F" transform="translate(0,0)"/>
<path d="" fill="#8E2F46" transform="translate(0,0)"/>
<path d="" fill="#8F3043" transform="translate(0,0)"/>
<path d="" fill="#8D2C40" transform="translate(0,0)"/>
<path d="" fill="#892E41" transform="translate(0,0)"/>
<path d="" fill="#8C273E" transform="translate(0,0)"/>
<path d="" fill="#8C2C41" transform="translate(0,0)"/>
<path d="" fill="#8D2B41" transform="translate(0,0)"/>
<path d="" fill="#893040" transform="translate(0,0)"/>
<path d="" fill="#892E40" transform="translate(0,0)"/>
<path d="" fill="#8E2E42" transform="translate(0,0)"/>
<path d="" fill="#8A3043" transform="translate(0,0)"/>
<path d="" fill="#872D3F" transform="translate(0,0)"/>
<path d="" fill="#8F2E43" transform="translate(0,0)"/>
<path d="" fill="#893444" transform="translate(0,0)"/>
<path d="" fill="#8C3947" transform="translate(0,0)"/>
<path d="" fill="#892C41" transform="translate(0,0)"/>
<path d="" fill="#8B3142" transform="translate(0,0)"/>
<path d="" fill="#892E40" transform="translate(0,0)"/>
<path d="" fill="#8A3444" transform="translate(0,0)"/>
<path d="" fill="#8B3746" transform="translate(0,0)"/>
<path d="" fill="#893544" transform="translate(0,0)"/>
<path d="" fill="#883645" transform="translate(0,0)"/>
</svg>
