<?xml version="1.0" encoding="UTF-8"?>
<svg xmlns="http://www.w3.org/2000/svg" xmlns:xlink="http://www.w3.org/1999/xlink" width="162px" height="200px" viewBox="0 0 162 200" version="1.1">
<g id="surface1">
<path style=" stroke:none;fill-rule:nonzero;fill:rgb(98.823529%,37.64706%,0%);fill-opacity:1;" d="M 125.183594 1.226562 C 126.566406 1.316406 126.566406 1.316406 128.25 1.839844 C 132.339844 6.710938 134.878906 13.035156 136.839844 19.019531 C 137.035156 19.601562 137.035156 19.601562 137.234375 20.195312 C 139.269531 26.605469 139.535156 33.042969 139.5625 39.722656 C 139.570312 40.515625 139.578125 41.308594 139.582031 42.121094 C 139.539062 46.945312 138.988281 51.261719 137.847656 55.9375 C 137.386719 57.671875 137.386719 57.671875 137.453125 59.507812 C 138.375 60.46875 138.375 60.46875 139.601562 61.386719 C 142.617188 63.925781 144.929688 66.785156 147.273438 69.9375 C 147.722656 70.539062 148.171875 71.140625 148.636719 71.761719 C 156.402344 82.519531 160.910156 93.78125 160.847656 107.207031 C 160.851562 107.730469 160.855469 108.25 160.855469 108.789062 C 160.855469 109.539062 160.855469 109.539062 160.855469 110.304688 C 160.855469 110.757812 160.851562 111.207031 160.851562 111.671875 C 160.773438 112.882812 160.773438 112.882812 160.160156 114.722656 C 157.753906 113.800781 156.765625 112.410156 155.328125 110.3125 C 151.949219 105.554688 149.648438 102.347656 144.203125 100 C 144.289062 100.382812 144.375 100.765625 144.464844 101.160156 C 145.464844 106.03125 145.667969 110.757812 145.660156 115.722656 C 145.660156 116.125 145.660156 116.53125 145.660156 116.945312 C 145.613281 129.347656 142.984375 139.710938 134.386719 149.078125 C 131.242188 152.148438 131.242188 152.148438 129.476562 152.148438 C 129.476562 152.550781 129.476562 152.957031 129.476562 153.375 C 127.207031 155.109375 125.558594 155.472656 122.726562 155.214844 C 122.113281 154.601562 122.113281 154.601562 122.054688 152.796875 C 122.0625 151.695312 122.0625 151.695312 122.074219 150.574219 C 122.082031 149.839844 122.085938 149.105469 122.09375 148.347656 C 122.101562 147.496094 122.101562 147.496094 122.113281 146.625 C 121.53125 147.171875 121.53125 147.171875 120.9375 147.730469 C 114.78125 153.433594 108.332031 158.585938 101.296875 163.171875 C 95.789062 166.808594 90.425781 170.699219 85.296875 174.847656 C 84.675781 175.335938 84.058594 175.824219 83.421875 176.328125 C 75.738281 182.527344 70.230469 189.425781 65.660156 198.160156 C 62.136719 198.265625 62.136719 198.265625 60.710938 197.316406 C 56.449219 191.542969 54.996094 185.601562 55.035156 178.527344 C 55.039062 177.898438 55.042969 177.273438 55.046875 176.625 C 55.207031 166.519531 58.277344 157.613281 62.039062 148.339844 C 62.257812 147.800781 62.476562 147.257812 62.699219 146.703125 C 63.125 145.660156 63.554688 144.621094 63.992188 143.582031 C 65.726562 139.371094 66.835938 135.179688 67.269531 130.636719 C 67.382812 129.441406 67.382812 129.441406 67.5 128.222656 C 69.6875 128.011719 71.011719 128.144531 73.023438 129.0625 C 77.222656 132.738281 79.097656 137.625 80.386719 142.945312 C 81.65625 139.953125 81.8125 137.480469 81 134.355469 C 78.429688 128.253906 72.898438 125.429688 67.054688 122.875 C 61.019531 120.507812 55.082031 119.609375 48.625 119.460938 C 47.96875 119.441406 47.96875 119.441406 47.296875 119.425781 C 45.914062 119.390625 44.53125 119.355469 43.144531 119.324219 C 16.640625 118.707031 16.640625 118.707031 7.976562 111.3125 C 6.75 109.816406 6.75 109.816406 6.75 107.363281 C 6.378906 107.210938 6.007812 107.058594 5.625 106.898438 C 4.085938 106.011719 3.542969 105.238281 2.644531 103.71875 C 2.390625 103.296875 2.136719 102.875 1.871094 102.4375 C 0.417969 99.707031 0.5625 97.496094 0.613281 94.480469 C 2.210938 93.65625 3.808594 92.839844 5.40625 92.023438 C 6.085938 91.671875 6.085938 91.671875 6.78125 91.316406 C 7.21875 91.09375 7.652344 90.871094 8.105469 90.644531 C 8.507812 90.4375 8.90625 90.234375 9.320312 90.019531 C 10.433594 89.570312 10.433594 89.570312 12.273438 89.570312 C 12.273438 89.164062 12.273438 88.761719 12.273438 88.34375 C 14.355469 87.484375 16.441406 86.628906 18.523438 85.773438 C 19.140625 85.519531 19.761719 85.265625 20.398438 85.003906 C 23.644531 83.675781 26.894531 82.386719 30.183594 81.171875 C 38.839844 77.839844 43.84375 73.804688 48.140625 65.542969 C 53.757812 55.273438 61.507812 51.167969 72.253906 47.585938 C 94.636719 40.09375 112.128906 25.917969 123.339844 4.90625 C 123.78125 3.546875 123.78125 3.546875 123.953125 2.453125 C 124.359375 2.453125 124.765625 2.453125 125.183594 2.453125 C 125.183594 2.050781 125.183594 1.644531 125.183594 1.226562 Z M 125.796875 33.742188 C 125.621094 34.0625 125.441406 34.378906 125.261719 34.707031 C 124.457031 36.164062 123.648438 37.617188 122.84375 39.070312 C 122.425781 39.824219 122.425781 39.824219 122.003906 40.589844 C 120.644531 43.035156 119.28125 45.46875 117.816406 47.851562 C 118.695312 48.382812 119.578125 48.90625 120.464844 49.425781 C 120.957031 49.714844 121.445312 50.007812 121.953125 50.308594 C 123.398438 51.128906 123.398438 51.128906 125.183594 50.308594 C 127.257812 45.117188 127.351562 39.191406 126.410156 33.742188 C 126.207031 33.742188 126.003906 33.742188 125.796875 33.742188 Z M 60.328125 73.851562 C 59.378906 75.625 59.378906 75.625 58.910156 77.300781 C 59.113281 77.707031 59.3125 78.109375 59.523438 78.527344 C 61.40625 77.664062 63.28125 76.792969 65.160156 75.921875 C 65.691406 75.675781 66.222656 75.433594 66.769531 75.183594 C 69.542969 73.886719 71.953125 72.625 74.25 70.550781 C 66.234375 69.363281 66.234375 69.363281 60.328125 73.851562 Z M 60.328125 73.851562 "/>
<path style=" stroke:none;fill-rule:nonzero;fill:rgb(94.117647%,36.470589%,0.784314%);fill-opacity:1;" d="M 90.203125 10.429688 C 91.328125 10.515625 91.328125 10.515625 92.660156 11.042969 C 93.546875 12.605469 93.546875 12.605469 94.308594 14.570312 C 94.5625 15.210938 94.820312 15.855469 95.082031 16.515625 C 96.71875 21.308594 97.199219 26.882812 96.339844 31.902344 C 95.242188 33.820312 93.996094 34.613281 92.046875 35.582031 C 91.648438 35.832031 91.253906 36.078125 90.847656 36.332031 C 88.097656 38.035156 88.097656 38.035156 86.523438 38.035156 C 86.523438 38.441406 86.523438 38.847656 86.523438 39.265625 C 84.449219 39.78125 83.039062 39.945312 81 39.265625 C 81.339844 36.28125 82.242188 34.121094 83.644531 31.480469 C 87.195312 24.59375 88.949219 18.015625 90.203125 10.429688 Z M 90.203125 10.429688 "/>
<path style=" stroke:none;fill-rule:nonzero;fill:rgb(5.098039%,3.137255%,2.745098%);fill-opacity:1;" d="M 0.613281 96.933594 C 2.128906 98.445312 2.816406 99.996094 3.757812 101.917969 C 4.089844 102.589844 4.417969 103.261719 4.761719 103.953125 C 5.011719 104.472656 5.261719 104.988281 5.523438 105.519531 C 5.789062 105.253906 6.054688 104.988281 6.328125 104.714844 C 7.285156 103.757812 8.246094 102.800781 9.203125 101.839844 C 8.996094 102.496094 8.996094 102.496094 8.785156 103.164062 C 7.816406 106.59375 7.816406 106.59375 8.65625 109.90625 C 15.355469 116.941406 25.976562 117.015625 35.015625 117.253906 C 35.871094 117.273438 36.726562 117.289062 37.582031 117.308594 C 38.011719 117.316406 38.445312 117.324219 38.890625 117.335938 C 40.664062 117.367188 42.433594 117.402344 44.203125 117.425781 C 57.152344 117.59375 69.949219 119.667969 79.773438 128.835938 C 82.574219 132.398438 83.246094 136.078125 82.839844 140.492188 C 82.175781 143.195312 81.558594 145.027344 79.160156 146.625 C 79.023438 145.980469 78.890625 145.335938 78.75 144.671875 C 76.898438 136.242188 76.898438 136.242188 71.183594 130.0625 C 70.164062 129.824219 69.144531 129.613281 68.113281 129.449219 C 68.113281 131.066406 68.113281 132.6875 68.113281 134.355469 C 67.910156 134.355469 67.707031 134.355469 67.5 134.355469 C 67.5 132.332031 67.5 130.308594 67.5 128.222656 C 69.6875 128.011719 71.011719 128.144531 73.023438 129.0625 C 77.222656 132.738281 79.097656 137.625 80.386719 142.945312 C 81.65625 139.953125 81.8125 137.480469 81 134.355469 C 78.429688 128.253906 72.898438 125.429688 67.054688 122.875 C 61.019531 120.507812 55.082031 119.609375 48.625 119.460938 C 47.96875 119.441406 47.96875 119.441406 47.296875 119.425781 C 45.914062 119.390625 44.53125 119.355469 43.144531 119.324219 C 16.640625 118.707031 16.640625 118.707031 7.976562 111.3125 C 6.75 109.816406 6.75 109.816406 6.75 107.363281 C 6.195312 107.128906 6.195312 107.128906 5.625 106.890625 C 3.371094 105.609375 2.324219 103.523438 1.226562 101.226562 C 0.84375 99.753906 0.710938 98.460938 0.613281 96.933594 Z M 0.613281 96.933594 "/>
<path style=" stroke:none;fill-rule:nonzero;fill:rgb(9.411765%,9.019608%,9.411765%);fill-opacity:1;" d="M 122.726562 143.558594 C 122.929688 143.558594 123.132812 143.558594 123.339844 143.558594 C 123.375 144.9375 123.398438 146.320312 123.417969 147.699219 C 123.433594 148.46875 123.445312 149.238281 123.460938 150.027344 C 123.339844 152.148438 123.339844 152.148438 122.113281 154.601562 C 122.113281 151.96875 122.113281 149.335938 122.113281 146.625 C 121.175781 147.5 120.242188 148.371094 119.277344 149.269531 C 113.65625 154.414062 107.679688 159.011719 101.296875 163.171875 C 95.789062 166.808594 90.425781 170.699219 85.296875 174.847656 C 84.675781 175.335938 84.058594 175.824219 83.421875 176.328125 C 75.738281 182.527344 70.230469 189.425781 65.660156 198.160156 C 62.136719 198.265625 62.136719 198.265625 60.710938 197.316406 C 58.949219 194.929688 57.511719 192.34375 56.453125 189.570312 C 56.757812 188.964844 56.757812 188.964844 57.066406 188.34375 C 57.304688 188.808594 57.542969 189.273438 57.789062 189.753906 C 58.105469 190.363281 58.425781 190.972656 58.753906 191.601562 C 59.226562 192.511719 59.226562 192.511719 59.703125 193.4375 C 60.742188 195.078125 61.550781 195.945312 63.203125 196.933594 C 63.609375 196.933594 64.015625 196.933594 64.433594 196.933594 C 64.898438 196.089844 64.898438 196.089844 65.375 195.226562 C 70.546875 185.972656 70.546875 185.972656 73.023438 183.4375 C 73.425781 183.4375 73.832031 183.4375 74.25 183.4375 C 74.390625 183.09375 74.53125 182.75 74.675781 182.394531 C 79.832031 173.316406 93.046875 166.597656 101.441406 160.964844 C 106.839844 157.339844 111.785156 153.453125 116.589844 149.078125 C 117.558594 148.207031 118.53125 147.339844 119.503906 146.472656 C 120.050781 145.972656 120.050781 145.972656 120.609375 145.464844 C 121.5 144.785156 121.5 144.785156 122.726562 144.785156 C 122.726562 144.378906 122.726562 143.976562 122.726562 143.558594 Z M 122.726562 143.558594 "/>
<path style=" stroke:none;fill-rule:nonzero;fill:rgb(8.235294%,8.627451%,9.411765%);fill-opacity:1;" d="M 125.183594 1.226562 C 125.796875 3.066406 125.796875 3.066406 125.15625 4.574219 C 124.835938 5.140625 124.515625 5.703125 124.183594 6.289062 C 123.84375 6.886719 123.507812 7.484375 123.15625 8.101562 C 122.285156 9.535156 121.382812 10.886719 120.386719 12.230469 C 119.011719 13.910156 119.011719 13.910156 118.742188 15.363281 C 118.242188 17.292969 116.78125 18.28125 115.363281 19.632812 C 113.917969 21.316406 113 22.429688 112.296875 24.539062 C 111.441406 25.398438 111.441406 25.398438 110.300781 26.34375 C 108.6875 27.703125 107.113281 29.078125 105.589844 30.535156 C 99.242188 36.589844 92.988281 41.726562 84.683594 44.785156 C 84.054688 45.019531 83.429688 45.253906 82.785156 45.496094 C 80.773438 46.238281 78.757812 46.972656 76.742188 47.699219 C 75.710938 48.078125 75.710938 48.078125 74.65625 48.464844 C 73.996094 48.703125 73.339844 48.941406 72.660156 49.183594 C 71.769531 49.507812 71.769531 49.507812 70.859375 49.839844 C 69.339844 50.308594 69.339844 50.308594 67.5 50.308594 C 67.5 50.710938 67.5 51.117188 67.5 51.535156 C 66.417969 51.960938 65.328125 52.382812 64.238281 52.800781 C 63.636719 53.035156 63.03125 53.269531 62.40625 53.511719 C 60.75 53.988281 60.75 53.988281 58.910156 53.375 C 63.171875 50.75 67.550781 49.105469 72.292969 47.546875 C 94.667969 40.121094 112.144531 25.882812 123.339844 4.90625 C 123.78125 3.546875 123.78125 3.546875 123.953125 2.453125 C 124.359375 2.453125 124.765625 2.453125 125.183594 2.453125 C 125.183594 2.050781 125.183594 1.644531 125.183594 1.226562 Z M 125.183594 1.226562 "/>
<path style=" stroke:none;fill-rule:nonzero;fill:rgb(6.666667%,7.058824%,7.450981%);fill-opacity:1;" d="M 129.476562 4.90625 C 131.753906 6.882812 132.914062 9.082031 134.078125 11.808594 C 134.265625 12.238281 134.449219 12.664062 134.640625 13.101562 C 136.519531 17.613281 137.667969 22.21875 138.683594 26.992188 C 138.789062 27.457031 138.898438 27.921875 139.007812 28.398438 C 139.550781 31.550781 139.433594 34.753906 139.441406 37.945312 C 139.449219 39.203125 139.46875 40.457031 139.488281 41.714844 C 139.527344 46.652344 139.039062 51.148438 137.851562 55.957031 C 137.386719 57.675781 137.386719 57.675781 137.453125 59.507812 C 138.375 60.46875 138.375 60.46875 139.601562 61.386719 C 142.617188 63.925781 144.929688 66.785156 147.273438 69.9375 C 147.722656 70.539062 148.171875 71.140625 148.636719 71.761719 C 153.398438 78.355469 158.476562 86.253906 159.546875 94.480469 C 159.34375 95.085938 159.140625 95.691406 158.933594 96.320312 C 158.691406 95.574219 158.449219 94.824219 158.203125 94.058594 C 157.835938 92.96875 157.464844 91.882812 157.089844 90.796875 C 156.882812 90.183594 156.671875 89.570312 156.457031 88.933594 C 152.878906 78.988281 145.867188 67.765625 137.070312 61.542969 C 136.589844 61.074219 136.109375 60.605469 135.613281 60.121094 C 135.824219 57.410156 136.46875 54.914062 137.1875 52.300781 C 140.355469 37.636719 138.175781 21 130.265625 8.101562 C 129.476562 6.75 129.476562 6.75 129.476562 4.90625 Z M 129.476562 4.90625 "/>
<path style=" stroke:none;fill-rule:nonzero;fill:rgb(9.019608%,9.019608%,8.627451%);fill-opacity:1;" d="M 68.113281 122.085938 C 71.09375 122.390625 73.148438 123.835938 75.515625 125.535156 C 75.890625 125.789062 76.265625 126.042969 76.652344 126.304688 C 79.917969 128.628906 81.5625 131.128906 82.839844 134.96875 C 83.238281 138.859375 82.671875 141.871094 81 145.398438 C 80.390625 145.804688 79.785156 146.207031 79.160156 146.625 C 79.023438 145.980469 78.890625 145.335938 78.75 144.671875 C 76.898438 136.242188 76.898438 136.242188 71.183594 130.0625 C 70.164062 129.824219 69.144531 129.613281 68.113281 129.449219 C 68.113281 131.066406 68.113281 132.6875 68.113281 134.355469 C 67.910156 134.355469 67.707031 134.355469 67.5 134.355469 C 67.5 132.332031 67.5 130.308594 67.5 128.222656 C 69.6875 128.011719 71.011719 128.144531 73.023438 129.0625 C 77.222656 132.738281 79.097656 137.625 80.386719 142.945312 C 81.65625 139.953125 81.8125 137.480469 81 134.355469 C 78.609375 128.679688 73.539062 125.777344 68.113281 123.3125 C 68.113281 122.90625 68.113281 122.503906 68.113281 122.085938 Z M 68.113281 122.085938 "/>
<path style=" stroke:none;fill-rule:nonzero;fill:rgb(9.411765%,8.235294%,7.450981%);fill-opacity:1;" d="M 87.328125 171.933594 C 87.667969 172.085938 88.011719 172.234375 88.363281 172.394531 C 87.941406 172.734375 87.515625 173.074219 87.082031 173.429688 C 85.25 174.914062 83.429688 176.414062 81.613281 177.914062 C 81.132812 178.304688 80.648438 178.691406 80.152344 179.09375 C 74.316406 183.984375 70.078125 190.042969 66.742188 196.828125 C 65.660156 198.160156 65.660156 198.160156 63.773438 198.410156 C 61.976562 198.160156 61.976562 198.160156 60.710938 197.316406 C 58.949219 194.929688 57.511719 192.34375 56.453125 189.570312 C 56.65625 189.164062 56.859375 188.761719 57.066406 188.34375 C 57.304688 188.808594 57.542969 189.273438 57.789062 189.753906 C 58.105469 190.363281 58.425781 190.972656 58.753906 191.601562 C 59.070312 192.207031 59.382812 192.8125 59.703125 193.4375 C 60.742188 195.078125 61.550781 195.945312 63.203125 196.933594 C 63.609375 196.933594 64.015625 196.933594 64.433594 196.933594 C 64.742188 196.371094 65.054688 195.804688 65.375 195.226562 C 70.546875 185.972656 70.546875 185.972656 73.023438 183.4375 C 73.425781 183.4375 73.832031 183.4375 74.25 183.4375 C 74.378906 183.101562 74.507812 182.765625 74.640625 182.417969 C 75.78125 180.460938 77.367188 179.097656 79.042969 177.605469 C 79.363281 177.316406 79.683594 177.027344 80.011719 176.726562 C 80.648438 176.15625 81.285156 175.589844 81.925781 175.03125 C 82.78125 174.285156 83.621094 173.523438 84.457031 172.757812 C 85.910156 171.777344 85.910156 171.777344 87.328125 171.933594 Z M 87.328125 171.933594 "/>
<path style=" stroke:none;fill-rule:nonzero;fill:rgb(22.745098%,13.333334%,7.450981%);fill-opacity:1;" d="M 90.203125 10.429688 C 91.328125 10.515625 91.328125 10.515625 92.660156 11.042969 C 93.546875 12.605469 93.546875 12.605469 94.308594 14.570312 C 94.5625 15.210938 94.820312 15.855469 95.082031 16.515625 C 96.71875 21.308594 97.199219 26.882812 96.339844 31.902344 C 95.242188 33.820312 93.996094 34.613281 92.046875 35.582031 C 91.648438 35.832031 91.253906 36.078125 90.847656 36.332031 C 88.097656 38.035156 88.097656 38.035156 86.523438 38.035156 C 86.523438 38.441406 86.523438 38.847656 86.523438 39.265625 C 84.449219 39.78125 83.039062 39.945312 81 39.265625 C 81.320312 36.253906 82.226562 34.242188 83.800781 31.671875 C 84.191406 31.023438 84.585938 30.371094 84.992188 29.703125 C 85.292969 29.214844 85.597656 28.722656 85.910156 28.222656 C 86.113281 28.625 86.3125 29.03125 86.523438 29.449219 C 85.863281 30.945312 85.175781 32.371094 84.414062 33.820312 C 84.207031 34.222656 84 34.628906 83.785156 35.042969 C 83.269531 36.042969 82.75 37.039062 82.226562 38.035156 C 87.175781 36.738281 91.460938 34.328125 95.113281 30.675781 C 95.816406 23.355469 94.21875 16.589844 90.203125 10.429688 Z M 90.203125 10.429688 "/>
<path style=" stroke:none;fill-rule:nonzero;fill:rgb(6.27451%,5.098039%,4.705882%);fill-opacity:1;" d="M 49.703125 63.191406 C 50.46875 64.71875 50.179688 65.28125 49.703125 66.871094 C 49.300781 66.871094 48.894531 66.871094 48.476562 66.871094 C 48.351562 67.378906 48.222656 67.882812 48.09375 68.40625 C 45.820312 74.1875 41.378906 78 35.792969 80.535156 C 34.757812 80.972656 33.71875 81.402344 32.675781 81.824219 C 32.125 82.054688 31.570312 82.285156 31.003906 82.523438 C 29.261719 83.242188 27.519531 83.953125 25.773438 84.664062 C 25.1875 84.902344 24.601562 85.140625 24 85.390625 C 22.304688 86.085938 20.605469 86.773438 18.90625 87.460938 C 18.382812 87.675781 17.859375 87.886719 17.316406 88.105469 C 16.832031 88.300781 16.351562 88.492188 15.851562 88.691406 C 15.425781 88.863281 15 89.03125 14.5625 89.207031 C 13.5 89.570312 13.5 89.570312 12.273438 89.570312 C 12.273438 89.164062 12.273438 88.761719 12.273438 88.34375 C 14.355469 87.484375 16.441406 86.628906 18.523438 85.773438 C 19.140625 85.519531 19.761719 85.265625 20.398438 85.003906 C 23.644531 83.675781 26.894531 82.386719 30.183594 81.171875 C 38.984375 77.785156 44.085938 73.605469 48.398438 65.144531 C 49.089844 63.804688 49.089844 63.804688 49.703125 63.191406 Z M 49.703125 63.191406 "/>
<path style=" stroke:none;fill-rule:nonzero;fill:rgb(8.235294%,6.666667%,5.882353%);fill-opacity:1;" d="M 125.796875 31.289062 C 126.199219 31.289062 126.605469 31.289062 127.023438 31.289062 C 127.753906 38.398438 127.453125 44.578125 125.796875 51.535156 C 123.953125 52.148438 123.953125 52.148438 122.164062 51.402344 C 121.5 51.054688 120.839844 50.703125 120.15625 50.34375 C 119.492188 49.996094 118.824219 49.652344 118.136719 49.292969 C 117.625 49.019531 117.117188 48.746094 116.589844 48.464844 C 117.527344 45.910156 118.785156 43.601562 120.15625 41.257812 C 120.597656 40.5 121.035156 39.738281 121.472656 38.980469 C 121.792969 38.429688 121.792969 38.429688 122.121094 37.863281 C 123.371094 35.6875 124.585938 33.488281 125.796875 31.289062 Z M 125.796875 33.742188 C 125.621094 34.0625 125.441406 34.378906 125.261719 34.707031 C 124.457031 36.164062 123.648438 37.617188 122.84375 39.070312 C 122.425781 39.824219 122.425781 39.824219 122.003906 40.589844 C 120.644531 43.035156 119.28125 45.46875 117.816406 47.851562 C 118.695312 48.382812 119.578125 48.90625 120.464844 49.425781 C 120.957031 49.714844 121.445312 50.007812 121.953125 50.308594 C 123.398438 51.128906 123.398438 51.128906 125.183594 50.308594 C 127.257812 45.117188 127.351562 39.191406 126.410156 33.742188 C 126.207031 33.742188 126.003906 33.742188 125.796875 33.742188 Z M 125.796875 33.742188 "/>
<path style=" stroke:none;fill-rule:nonzero;fill:rgb(17.254902%,10.196079%,5.882353%);fill-opacity:1;" d="M 63.34375 68.828125 C 64.988281 68.828125 66.492188 69.046875 68.113281 69.324219 C 69.570312 69.4375 71.027344 69.539062 72.484375 69.632812 C 73.6875 69.730469 74.890625 69.832031 76.089844 69.9375 C 75.886719 70.34375 75.6875 70.75 75.476562 71.164062 C 71.425781 71.164062 67.378906 71.164062 63.203125 71.164062 C 61.988281 73.394531 60.773438 75.621094 59.523438 77.914062 C 60.09375 77.597656 60.660156 77.28125 61.25 76.957031 C 63.203125 76.074219 63.203125 76.074219 65.046875 76.6875 C 63.84375 77.304688 62.644531 77.917969 61.441406 78.527344 C 60.769531 78.871094 60.101562 79.210938 59.414062 79.5625 C 57.683594 80.367188 57.683594 80.367188 56.453125 80.367188 C 59.640625 70.175781 59.640625 70.175781 63.34375 68.828125 Z M 63.34375 68.828125 "/>
<path style=" stroke:none;fill-rule:nonzero;fill:rgb(12.156863%,8.627451%,6.27451%);fill-opacity:1;" d="M 142.976562 98.160156 C 148.066406 98.636719 152.035156 102.457031 155.25 106.136719 C 157.378906 108.820312 159.074219 111.46875 160.160156 114.722656 C 157.753906 113.800781 156.765625 112.410156 155.328125 110.3125 C 151.949219 105.554688 149.648438 102.347656 144.203125 100 C 144.003906 100.40625 143.800781 100.808594 143.589844 101.226562 C 143.386719 100.214844 143.1875 99.203125 142.976562 98.160156 Z M 142.976562 98.160156 "/>
<path style=" stroke:none;fill-rule:nonzero;fill:rgb(8.627451%,9.019608%,9.803922%);fill-opacity:1;" d="M 141.75 133.742188 C 142.15625 133.742188 142.558594 133.742188 142.976562 133.742188 C 141.972656 140.238281 137.253906 146.703125 132.355469 150.957031 C 130.703125 152.148438 130.703125 152.148438 129.476562 152.148438 C 129.476562 152.550781 129.476562 152.957031 129.476562 153.375 C 127.195312 155.121094 125.566406 155.414062 122.726562 155.214844 C 123.679688 154.578125 124.636719 153.945312 125.628906 153.371094 C 133.609375 148.671875 138.351562 142.285156 141.75 133.742188 Z M 141.75 133.742188 "/>
<path style=" stroke:none;fill-rule:nonzero;fill:rgb(4.313726%,4.705882%,5.098039%);fill-opacity:1;" d="M 88.976562 41.105469 C 89.382812 41.308594 89.789062 41.507812 90.203125 41.71875 C 85.285156 44.398438 80.34375 46.582031 75.054688 48.429688 C 74.25 48.710938 74.25 48.710938 73.433594 48.996094 C 69.589844 50.308594 69.589844 50.308594 67.5 50.308594 C 67.5 50.710938 67.5 51.117188 67.5 51.535156 C 66.417969 51.960938 65.328125 52.382812 64.238281 52.800781 C 63.636719 53.035156 63.03125 53.269531 62.40625 53.511719 C 60.75 53.988281 60.75 53.988281 58.910156 53.375 C 63.171875 50.75 67.550781 49.105469 72.292969 47.546875 C 77.953125 45.667969 83.632812 43.777344 88.976562 41.105469 Z M 88.976562 41.105469 "/>
<path style=" stroke:none;fill-rule:nonzero;fill:rgb(7.058824%,6.666667%,6.666667%);fill-opacity:1;" d="M 0.613281 96.933594 C 2.128906 98.445312 2.816406 99.996094 3.757812 101.917969 C 4.089844 102.589844 4.417969 103.261719 4.761719 103.953125 C 5.011719 104.472656 5.261719 104.988281 5.523438 105.519531 C 5.789062 105.253906 6.054688 104.988281 6.328125 104.714844 C 7.285156 103.757812 8.246094 102.800781 9.203125 101.839844 C 8.996094 102.496094 8.996094 102.496094 8.785156 103.164062 C 8.300781 105.035156 7.976562 106.652344 7.976562 108.589844 C 9.082031 110.464844 10.523438 111.617188 12.273438 112.882812 C 12.765625 113.277344 13.261719 113.667969 13.769531 114.070312 C 14.242188 114.394531 14.242188 114.394531 14.726562 114.722656 C 11.332031 114.640625 9.84375 113.253906 7.558594 110.972656 C 6.75 109.816406 6.75 109.816406 6.75 107.363281 C 6.195312 107.128906 6.195312 107.128906 5.625 106.890625 C 3.371094 105.609375 2.324219 103.523438 1.226562 101.226562 C 0.84375 99.753906 0.710938 98.460938 0.613281 96.933594 Z M 0.613281 96.933594 "/>
<path style=" stroke:none;fill-rule:nonzero;fill:rgb(9.803922%,8.235294%,7.450981%);fill-opacity:1;" d="M 125.183594 1.226562 C 125.796875 3.066406 125.796875 3.066406 125.15625 4.574219 C 124.835938 5.140625 124.515625 5.703125 124.183594 6.289062 C 123.84375 6.886719 123.507812 7.484375 123.15625 8.101562 C 122.285156 9.535156 121.382812 10.886719 120.386719 12.230469 C 119.011719 13.910156 119.011719 13.910156 118.742188 15.363281 C 118.242188 17.292969 116.78125 18.28125 115.363281 19.632812 C 113.917969 21.316406 113 22.429688 112.296875 24.539062 C 111.03125 25.269531 111.03125 25.269531 109.839844 25.765625 C 110.210938 23.804688 110.839844 22.625 112.085938 21.070312 C 112.585938 20.4375 112.585938 20.4375 113.097656 19.792969 C 113.453125 19.347656 113.808594 18.902344 114.175781 18.441406 C 120.320312 11.097656 120.320312 11.097656 123.953125 2.453125 C 124.359375 2.453125 124.765625 2.453125 125.183594 2.453125 C 125.183594 2.050781 125.183594 1.644531 125.183594 1.226562 Z M 125.183594 1.226562 "/>
<path style=" stroke:none;fill-rule:nonzero;fill:rgb(8.235294%,7.843138%,7.843138%);fill-opacity:1;" d="M 68.113281 122.085938 C 71.09375 122.390625 73.148438 123.835938 75.515625 125.535156 C 75.890625 125.789062 76.265625 126.042969 76.652344 126.304688 C 79.589844 128.394531 81.671875 130.722656 82.507812 134.351562 C 82.660156 135.367188 82.757812 136.394531 82.839844 137.421875 C 81.535156 136.117188 81.21875 135.292969 80.578125 133.589844 C 78.175781 128.109375 73.242188 125.929688 68.113281 123.3125 C 68.113281 122.90625 68.113281 122.503906 68.113281 122.085938 Z M 68.113281 122.085938 "/>
<path style=" stroke:none;fill-rule:nonzero;fill:rgb(6.666667%,4.313726%,3.529412%);fill-opacity:1;" d="M 90.203125 10.429688 C 91.328125 10.515625 91.328125 10.515625 92.660156 11.042969 C 93.546875 12.605469 93.546875 12.605469 94.308594 14.570312 C 94.5625 15.210938 94.820312 15.855469 95.082031 16.515625 C 96.253906 19.949219 96.484375 23.125 96.53125 26.726562 C 96.550781 27.1875 96.566406 27.652344 96.585938 28.128906 C 96.613281 30.421875 96.558594 31.628906 95.101562 33.453125 C 94.699219 33.75 94.300781 34.046875 93.886719 34.355469 C 93.480469 34.152344 93.078125 33.949219 92.660156 33.742188 C 93.058594 33.3125 93.457031 32.882812 93.867188 32.4375 C 96.007812 29.40625 95.507812 26.273438 95.113281 22.699219 C 94.136719 18.253906 92.691406 14.246094 90.203125 10.429688 Z M 90.203125 10.429688 "/>
<path style=" stroke:none;fill-rule:nonzero;fill:rgb(4.705882%,4.313726%,3.921569%);fill-opacity:1;" d="M 82.226562 137.421875 C 82.429688 137.421875 82.632812 137.421875 82.839844 137.421875 C 82.671875 141.230469 82.160156 143.621094 79.773438 146.625 C 78.546875 145.398438 78.546875 145.398438 78.425781 143.800781 C 78.441406 143.191406 78.453125 142.578125 78.46875 141.949219 C 78.480469 141.332031 78.492188 140.71875 78.503906 140.082031 C 78.515625 139.609375 78.53125 139.136719 78.546875 138.648438 C 79.773438 140.492188 79.773438 140.492188 80.386719 142.945312 C 80.992188 141.121094 81.601562 139.300781 82.226562 137.421875 Z M 82.226562 137.421875 "/>
<path style=" stroke:none;fill-rule:nonzero;fill:rgb(5.882353%,5.882353%,5.882353%);fill-opacity:1;" d="M 85.910156 171.777344 C 87.175781 172.046875 87.175781 172.046875 88.363281 172.394531 C 87.304688 173.277344 86.242188 174.160156 85.179688 175.039062 C 84.292969 175.773438 84.292969 175.773438 83.390625 176.527344 C 81.824219 177.75 80.273438 178.78125 78.546875 179.753906 C 78.546875 179.148438 78.546875 178.539062 78.546875 177.914062 C 80 176.546875 80 176.546875 81.882812 175.078125 C 82.5 174.589844 83.121094 174.097656 83.757812 173.59375 C 84.265625 173.199219 84.773438 172.800781 85.296875 172.394531 C 85.496094 172.191406 85.699219 171.988281 85.910156 171.777344 Z M 85.910156 171.777344 "/>
<path style=" stroke:none;fill-rule:nonzero;fill:rgb(13.333334%,13.333334%,12.941177%);fill-opacity:1;" d="M 100.023438 35.582031 C 96.984375 37.808594 93.949219 40.035156 90.816406 42.332031 C 90.414062 42.128906 90.007812 41.925781 89.589844 41.71875 C 96.3125 34.347656 96.3125 34.347656 100.023438 35.582031 Z M 100.023438 35.582031 "/>
<path style=" stroke:none;fill-rule:nonzero;fill:rgb(17.647059%,15.294118%,13.725491%);fill-opacity:1;" d="M 125.796875 31.289062 C 126.199219 31.289062 126.605469 31.289062 127.023438 31.289062 C 127.023438 33.71875 127.023438 36.148438 127.023438 38.648438 C 126.820312 38.648438 126.617188 38.648438 126.410156 38.648438 C 126.207031 37.4375 126.003906 36.222656 125.796875 34.96875 C 125.515625 35.476562 125.238281 35.980469 124.953125 36.503906 C 124.621094 37.007812 124.292969 37.515625 123.953125 38.035156 C 123.550781 38.035156 123.144531 38.035156 122.726562 38.035156 C 123.476562 35.5625 124.296875 33.410156 125.796875 31.289062 Z M 125.796875 31.289062 "/>
<path style=" stroke:none;fill-rule:nonzero;fill:rgb(8.627451%,9.411765%,10.196079%);fill-opacity:1;" d="M 42.339844 76.6875 C 38.578125 79.113281 35.011719 81.015625 30.683594 82.207031 C 30.683594 81.804688 30.683594 81.398438 30.683594 80.980469 C 32.277344 80.144531 33.875 79.3125 35.476562 78.488281 C 35.929688 78.25 36.382812 78.011719 36.847656 77.765625 C 37.285156 77.539062 37.722656 77.316406 38.171875 77.085938 C 38.574219 76.878906 38.976562 76.667969 39.390625 76.453125 C 40.5 76.074219 40.5 76.074219 42.339844 76.6875 Z M 42.339844 76.6875 "/>
<path style=" stroke:none;fill-rule:nonzero;fill:rgb(8.235294%,9.019608%,9.803922%);fill-opacity:1;" d="M 63.203125 76.074219 C 63.8125 76.277344 64.417969 76.480469 65.046875 76.6875 C 63.84375 77.304688 62.644531 77.917969 61.441406 78.527344 C 60.769531 78.871094 60.101562 79.210938 59.414062 79.5625 C 57.683594 80.367188 57.683594 80.367188 56.453125 80.367188 C 56.859375 79.152344 57.265625 77.9375 57.683594 76.6875 C 58.289062 76.890625 58.898438 77.09375 59.523438 77.300781 C 60.902344 77.050781 61.949219 76.699219 63.203125 76.074219 Z M 63.203125 76.074219 "/>
<path style=" stroke:none;fill-rule:nonzero;fill:rgb(5.882353%,6.27451%,6.27451%);fill-opacity:1;" d="M 85.910156 28.222656 C 86.113281 28.625 86.3125 29.03125 86.523438 29.449219 C 86.140625 30.488281 86.140625 30.488281 85.507812 31.714844 C 85.285156 32.152344 85.0625 32.59375 84.832031 33.046875 C 84.59375 33.503906 84.351562 33.960938 84.105469 34.433594 C 83.871094 34.894531 83.632812 35.359375 83.386719 35.835938 C 82.800781 36.980469 82.207031 38.121094 81.613281 39.265625 C 80.894531 37.132812 80.960938 36.890625 82.015625 34.691406 C 82.472656 33.910156 82.941406 33.132812 83.417969 32.363281 C 83.652344 31.964844 83.890625 31.566406 84.132812 31.152344 C 84.71875 30.171875 85.3125 29.195312 85.910156 28.222656 Z M 85.910156 28.222656 "/>
<path style=" stroke:none;fill-rule:nonzero;fill:rgb(9.803922%,10.196079%,10.588235%);fill-opacity:1;" d="M 58.910156 53.988281 C 58.214844 56.074219 57.566406 56.617188 55.917969 58.015625 C 55.273438 58.566406 55.273438 58.566406 54.617188 59.128906 C 53.386719 60.121094 53.386719 60.121094 51.546875 61.351562 C 52.265625 58.382812 55.589844 53.988281 58.910156 53.988281 Z M 58.910156 53.988281 "/>
<path style=" stroke:none;fill-rule:nonzero;fill:rgb(11.372549%,7.843138%,5.882353%);fill-opacity:1;" d="M 61.976562 70.550781 C 62.382812 70.753906 62.789062 70.957031 63.203125 71.164062 C 61.6875 73.898438 61.6875 73.898438 60.136719 76.6875 C 59.527344 76.6875 58.921875 76.6875 58.296875 76.6875 C 59.035156 73.96875 59.839844 72.402344 61.976562 70.550781 Z M 61.976562 70.550781 "/>
<path style=" stroke:none;fill-rule:nonzero;fill:rgb(9.411765%,10.588235%,11.372549%);fill-opacity:1;" d="M 141.75 133.742188 C 142.15625 133.742188 142.558594 133.742188 142.976562 133.742188 C 142.605469 136.105469 141.890625 137.953125 140.792969 140.070312 C 140.511719 140.609375 140.234375 141.152344 139.945312 141.710938 C 139.730469 142.117188 139.515625 142.523438 139.296875 142.945312 C 138.613281 141.226562 138.660156 140.550781 139.292969 138.773438 C 139.585938 138.175781 139.875 137.578125 140.175781 136.964844 C 140.46875 136.359375 140.757812 135.753906 141.058594 135.132812 C 141.285156 134.671875 141.515625 134.214844 141.75 133.742188 Z M 141.75 133.742188 "/>
<path style=" stroke:none;fill-rule:nonzero;fill:rgb(6.666667%,5.490196%,5.098039%);fill-opacity:1;" d="M 0.613281 96.933594 C 2.109375 98.429688 2.839844 99.953125 3.796875 101.839844 C 4.132812 102.5 4.472656 103.15625 4.820312 103.835938 C 5.167969 104.667969 5.167969 104.667969 5.523438 105.519531 C 5.320312 105.925781 5.117188 106.332031 4.910156 106.75 C 2.292969 103.773438 0.613281 100.957031 0.613281 96.933594 Z M 0.613281 96.933594 "/>
<path style=" stroke:none;fill-rule:nonzero;fill:rgb(31.37255%,17.254902%,8.627451%);fill-opacity:1;" d="M 67.5 50.921875 C 66.019531 51.90625 64.835938 52.550781 63.203125 53.183594 C 62.785156 53.347656 62.371094 53.515625 61.9375 53.6875 C 60.75 53.988281 60.75 53.988281 58.910156 53.375 C 59.757812 52.839844 60.617188 52.316406 61.480469 51.800781 C 62.195312 51.363281 62.195312 51.363281 62.925781 50.917969 C 64.730469 50.1875 65.660156 50.375 67.5 50.921875 Z M 67.5 50.921875 "/>
<path style=" stroke:none;fill-rule:nonzero;fill:rgb(11.764706%,12.156863%,12.54902%);fill-opacity:1;" d="M 79.160156 128.835938 C 81.292969 130.683594 82.210938 132.214844 82.839844 134.96875 C 82.558594 136.3125 82.558594 136.3125 82.226562 137.421875 C 79.523438 131.648438 79.523438 131.648438 79.160156 128.835938 Z M 79.160156 128.835938 "/>
<path style=" stroke:none;fill-rule:nonzero;fill:rgb(11.372549%,12.156863%,12.54902%);fill-opacity:1;" d="M 101.863281 161.351562 C 101.03125 163.84375 99.832031 164.402344 97.566406 165.644531 C 96.21875 165.40625 96.21875 165.40625 95.113281 165.03125 C 96.007812 164.414062 96.902344 163.800781 97.796875 163.191406 C 98.546875 162.675781 98.546875 162.675781 99.308594 162.15625 C 100.636719 161.351562 100.636719 161.351562 101.863281 161.351562 Z M 101.863281 161.351562 "/>
<path style=" stroke:none;fill-rule:nonzero;fill:rgb(10.980392%,12.156863%,13.333334%);fill-opacity:1;" d="M 114.136719 152.148438 C 113.289062 154.195312 112.386719 155.328125 110.453125 156.441406 C 109.847656 156.238281 109.238281 156.035156 108.613281 155.828125 C 109.300781 155.210938 109.992188 154.597656 110.683594 153.988281 C 111.261719 153.476562 111.261719 153.476562 111.851562 152.953125 C 112.910156 152.148438 112.910156 152.148438 114.136719 152.148438 Z M 114.136719 152.148438 "/>
<path style=" stroke:none;fill-rule:nonzero;fill:rgb(5.490196%,6.666667%,7.058824%);fill-opacity:1;" d="M 129.476562 152.148438 C 129.476562 152.550781 129.476562 152.957031 129.476562 153.375 C 127.195312 155.121094 125.566406 155.414062 122.726562 155.214844 C 127.328125 152.148438 127.328125 152.148438 129.476562 152.148438 Z M 129.476562 152.148438 "/>
<path style=" stroke:none;fill-rule:nonzero;fill:rgb(17.254902%,12.941177%,10.196079%);fill-opacity:1;" d="M 6.136719 92.023438 C 5.523438 93.863281 5.523438 93.863281 3.71875 94.898438 C 1.839844 95.707031 1.839844 95.707031 0.613281 95.707031 C 1.226562 93.863281 1.226562 93.863281 3.03125 92.828125 C 4.910156 92.023438 4.910156 92.023438 6.136719 92.023438 Z M 6.136719 92.023438 "/>
<path style=" stroke:none;fill-rule:nonzero;fill:rgb(19.607843%,12.54902%,8.235294%);fill-opacity:1;" d="M 8.589844 101.839844 C 9.574219 103.804688 8.609375 105.351562 7.976562 107.363281 C 7.167969 106.957031 6.355469 106.550781 5.523438 106.136719 C 6.535156 104.71875 7.546875 103.300781 8.589844 101.839844 Z M 8.589844 101.839844 "/>
<path style=" stroke:none;fill-rule:nonzero;fill:rgb(15.686275%,13.333334%,11.764706%);fill-opacity:1;" d="M 142.976562 98.160156 C 145.890625 98.621094 145.890625 98.621094 147.273438 100 C 146.261719 100 145.246094 100 144.203125 100 C 144.003906 100.40625 143.800781 100.808594 143.589844 101.226562 C 143.386719 100.214844 143.1875 99.203125 142.976562 98.160156 Z M 142.976562 98.160156 "/>
<path style=" stroke:none;fill-rule:nonzero;fill:rgb(10.588235%,8.627451%,7.843138%);fill-opacity:1;" d="M 49.703125 63.191406 C 50.46875 64.71875 50.179688 65.28125 49.703125 66.871094 C 49.300781 66.871094 48.894531 66.871094 48.476562 66.871094 C 48.074219 67.679688 47.667969 68.492188 47.25 69.324219 C 47.542969 66.738281 47.964844 65.15625 49.703125 63.191406 Z M 49.703125 63.191406 "/>
<path style=" stroke:none;fill-rule:nonzero;fill:rgb(18.039216%,14.509805%,12.156863%);fill-opacity:1;" d="M 57.683594 76.6875 C 58.289062 76.890625 58.898438 77.09375 59.523438 77.300781 C 59.320312 78.109375 59.117188 78.921875 58.910156 79.753906 C 58.097656 79.957031 57.289062 80.160156 56.453125 80.367188 C 56.859375 79.152344 57.265625 77.9375 57.683594 76.6875 Z M 57.683594 76.6875 "/>
</g>
</svg>
