<?xml version="1.0" encoding="UTF-8"?>
<svg version="1.1" xmlns="http://www.w3.org/2000/svg" width="164" height="200">
<path d="M0 0 C3.12699911 1.0514964 4.01906473 2.03013457 5.81640625 4.87109375 C6.39261719 6.04800781 6.96882812 7.22492187 7.5625 8.4375 C8.43068359 10.16806641 8.43068359 10.16806641 9.31640625 11.93359375 C13.35336966 21.14328093 14.44290343 29.75519128 14.25 39.75 C14.24484375 40.83410156 14.2396875 41.91820312 14.234375 43.03515625 C14.19120517 47.45466724 14.13537906 51.71200407 13.296875 56.05859375 C12.69820648 58.95087801 12.69820648 58.95087801 14.1875 60.86328125 C14.785625 61.34152344 15.38375 61.81976563 16 62.3125 C27.0063688 72.15915201 33.96929169 86.47262514 36 101 C36.20242656 105.01704257 36.19540128 108.98341806 36 113 C34.68 113.33 33.36 113.66 32 114 C28 108.25 28 108.25 28 106 C27.01 105.67 26.02 105.34 25 105 C25 104.34 25 103.68 25 103 C23.35 102.34 21.7 101.68 20 101 C20.15855469 101.8146875 20.31710938 102.629375 20.48046875 103.46875 C22.60272874 117.89373521 21.67138801 132.68289116 13.25 145 C9.77957743 149.36872562 6.0985828 153.54311362 1 156 C-2 155.875 -2 155.875 -4 155 C-4 152.69 -4 150.38 -4 148 C-4.59167969 148.53109375 -5.18335937 149.0621875 -5.79296875 149.609375 C-6.58316406 150.31578125 -7.37335938 151.0221875 -8.1875 151.75 C-8.96480469 152.44609375 -9.74210937 153.1421875 -10.54296875 153.859375 C-15.27537835 157.9823646 -20.20360833 161.55596361 -25.4375 165 C-26.40139648 165.63808594 -26.40139648 165.63808594 -27.38476562 166.2890625 C-30.35591588 168.25575282 -33.33077051 170.21544887 -36.31640625 172.16015625 C-39.25314662 174.17355467 -41.51639019 176.45429994 -44 179 C-44.94875 179.721875 -45.8975 180.44375 -46.875 181.1875 C-52.58425466 185.83456775 -56.29972037 192.73970818 -60 199 C-62.25 198.875 -62.25 198.875 -65 198 C-71.73075743 189.92309108 -71.68210289 181.0716755 -71 171 C-69.88081422 163.36680321 -67.6169155 156.74537825 -64.26953125 149.828125 C-61.03478562 142.62210705 -58.73265334 134.87602338 -58 127 C-54.2962668 127.2116419 -53.07653522 127.92528705 -50.375 130.5625 C-47.66340415 134.07816528 -46.37443511 137.80435598 -45 142 C-44.70448016 136.9761627 -44.69723185 133.90327145 -48 130 C-57.80818626 122.16541219 -67.23442003 120.13905295 -79.62109375 119.5703125 C-81.06578503 119.49667645 -82.51044576 119.4224392 -83.95507812 119.34765625 C-86.19714883 119.23438816 -88.43913804 119.12492766 -90.68188477 119.02587891 C-110.8823559 118.1176441 -110.8823559 118.1176441 -119 110 C-119 109.01 -119 108.02 -119 107 C-119.928125 106.62875 -119.928125 106.62875 -120.875 106.25 C-123.48998244 104.71177504 -124.06708246 103.87649576 -125 101 C-125.03000824 98.66685964 -125.03259286 96.33310569 -125 94 C-115.65500283 89.15349113 -106.25434313 84.69663615 -96.47338867 80.79101562 C-91.89303519 78.93059743 -88.05695251 76.81699373 -84 74 C-83.01 73.67 -82.02 73.34 -81 73 C-79.91881347 70.69159478 -79.91881347 70.69159478 -79 68 C-72.47867436 55.26019666 -65.16010869 51.35374591 -52.07226562 46.74121094 C-42.87600995 43.45188103 -34.81598725 39.62683016 -27.109375 33.5390625 C-25 32 -25 32 -23 32 C-22.74347656 31.41089844 -22.48695312 30.82179688 -22.22265625 30.21484375 C-20.88860233 27.79820295 -19.47643273 26.41195616 -17.4375 24.5625 C-10.26219297 17.58323961 -4.70627633 8.79869053 0 0 Z M0 35 C-1.2264128 36.97637747 -2.4062303 38.9817838 -3.5625 41 C-4.20316406 42.11375 -4.84382813 43.2275 -5.50390625 44.375 C-5.99761719 45.24125 -6.49132812 46.1075 -7 47 C-4.8614515 49.1385485 -3.86724686 49.42655063 -1 50 C1.02558881 46.65060119 1.21738987 44.13037449 1.125 40.25 C1.09792969 38.77273437 1.09792969 38.77273437 1.0703125 37.265625 C1.04710938 36.51796875 1.02390625 35.7703125 1 35 C0.67 35 0.34 35 0 35 Z M-65.125 73.375 C-65.41375 74.24125 -65.7025 75.1075 -66 76 C-65.67 76.66 -65.34 77.32 -65 78 C-61.37 76.02 -57.74 74.04 -54 72 C-54 71.67 -54 71.34 -54 71 C-60.23929973 70.16950717 -60.23929973 70.16950717 -65.125 73.375 Z " fill="#F8F8F8" transform="translate(126,0)"/>
<path d="M0 0 C0.99 0 1.98 0 3 0 C7.05546263 7.00653588 8.45023034 13.95879744 7 22 C5.24912829 24.70537919 3.91884141 25.3721846 1 27 C0.34 27.433125 -0.32 27.86625 -1 28.3125 C-3.71073224 29.24431421 -6.15820829 29.12917235 -9 29 C-7.92629976 25.5104742 -6.65904443 22.27261022 -5.0625 19 C-2.29401764 12.95496174 -1.22052583 6.50022469 0 0 Z " fill="#F1F1F1" transform="translate(90,10)"/>
<path d="M0 0 C0.25 7.625 0.25 7.625 -2 11 C-2 8.69 -2 6.38 -2 4 C-2.59167969 4.53109375 -3.18335938 5.0621875 -3.79296875 5.609375 C-4.58316406 6.31578125 -5.37335938 7.0221875 -6.1875 7.75 C-7.35345703 8.79414063 -7.35345703 8.79414063 -8.54296875 9.859375 C-13.27537835 13.9823646 -18.20360833 17.55596361 -23.4375 21 C-24.08009766 21.42539063 -24.72269531 21.85078125 -25.38476562 22.2890625 C-28.35591588 24.25575282 -31.33077051 26.21544887 -34.31640625 28.16015625 C-37.25314662 30.17355467 -39.51639019 32.45429994 -42 35 C-42.94875 35.721875 -43.8975 36.44375 -44.875 37.1875 C-48.52196045 40.13530223 -50.90524214 43.91846061 -53.484375 47.79296875 C-55 50 -55 50 -57 52 C-56.50196477 44.03143628 -49.04871108 37.60221702 -43.66796875 32.34765625 C-39.02757535 28.26438183 -33.97143297 24.80705202 -28.88330078 21.31005859 C-26.92281016 19.94630533 -24.98867138 18.5509555 -23.05859375 17.14453125 C-22.42074951 16.68103271 -21.78290527 16.21753418 -21.12573242 15.73999023 C-19.89602353 14.84511812 -18.66824624 13.94758426 -17.44262695 13.04711914 C-13.22358616 10 -13.22358616 10 -11 10 C-11 9.34 -11 8.68 -11 8 C-9.4089357 6.56197818 -7.7513985 5.19674665 -6.0625 3.875 C-5.14597656 3.15054688 -4.22945312 2.42609375 -3.28515625 1.6796875 C-1 0 -1 0 0 0 Z " fill="#3E4142" transform="translate(124,144)"/>
<path d="M0 0 C0.99 0 1.98 0 3 0 C7.05546263 7.00653588 8.45023034 13.95879744 7 22 C5.24912829 24.70537919 3.91884141 25.3721846 1 27 C0.34 27.433125 -0.32 27.86625 -1 28.3125 C-3.71073224 29.24431421 -6.15820829 29.12917235 -9 29 C-7.92629976 25.5104742 -6.65904443 22.27261022 -5.0625 19 C-2.29401764 12.95496174 -1.22052583 6.50022469 0 0 Z M2 5 C2 6.32 2 7.64 2 9 C1.34 9 0.68 9 0 9 C-0.18175781 9.73605469 -0.36351563 10.47210938 -0.55078125 11.23046875 C-1.85331659 16.28697774 -3.03980381 20.63018657 -6 25 C-6 25.66 -6 26.32 -6 27 C-1.89367242 26.62669749 1.33284783 25.22748593 4.60546875 22.7890625 C7.04751423 19.65613021 6.68414076 16.43241076 6.44140625 12.60546875 C5.91735915 9.51219961 5.05636403 7.38538228 3 5 C2.67 5 2.34 5 2 5 Z " fill="#444748" transform="translate(90,10)"/>
<path d="M0 0 C1.33203059 3.64423462 0.60838214 5.34077142 -0.9375 8.8125 C-3.19663825 15.15063788 -3.42110399 21.1118222 -3.4375 27.8125 C-3.4470874 28.80290283 -3.4566748 29.79330566 -3.46655273 30.8137207 C-3.40072748 36.59220318 -2.89889495 40.94764024 0 46 C2.57732914 47.05167527 2.57732914 47.05167527 5 47 C4.67 47.99 4.34 48.98 4 50 C1.75 49.875 1.75 49.875 -1 49 C-7.72647158 40.92823411 -7.69097812 32.06701964 -7 22 C-5.7977822 14.18119664 -3.5870825 7.04670522 0 0 Z " fill="#CBCBCC" transform="translate(62,149)"/>
<path d="M0 0 C0.33 0 0.66 0 1 0 C2.32594359 5.96674616 2.0884587 11.92583615 2 18 C0.68 18.33 -0.64 18.66 -2 19 C-6 13.25 -6 13.25 -6 11 C-6.99 10.67 -7.98 10.34 -9 10 C-9 9.34 -9 8.68 -9 8 C-11.475 7.01 -11.475 7.01 -14 6 C-13.76023438 7.21623047 -13.76023438 7.21623047 -13.515625 8.45703125 C-11.93059551 19.34810508 -12.15881337 30.61965042 -16 41 C-16.95514676 37.92749994 -17.00170571 37.00591313 -16.0625 33.75 C-13.48278255 24.45953109 -14.65463316 13.41756786 -16 4 C-10.54094483 4.38993251 -7.88149502 6.20476043 -4 10 C-1 14.3 -1 14.3 -1 17 C-0.34 17 0.32 17 1 17 C0.67 11.39 0.34 5.78 0 0 Z " fill="#282A2A" transform="translate(160,95)"/>
<path d="M0 0 C0.66 0.33 1.32 0.66 2 1 C0.54634731 2.17249353 -0.91307419 3.33783816 -2.375 4.5 C-3.59316406 5.47453125 -3.59316406 5.47453125 -4.8359375 6.46875 C-7 8 -7 8 -9 8 C-9 8.66 -9 9.32 -9 10 C-18.10058453 15.52619474 -28.09568629 21.06905036 -39 20 C-36.84580441 17.84580441 -35.69964147 17.42296072 -32.8515625 16.51953125 C-32.01633057 16.2460083 -31.18109863 15.97248535 -30.32055664 15.69067383 C-29.43102295 15.40087646 -28.54148926 15.1110791 -27.625 14.8125 C-17.23524573 11.30784652 -8.53441555 7.00768647 0 0 Z " fill="#56585A" transform="translate(101,32)"/>
<path d="M0 0 C4.95 0 9.9 0 15 0 C15 0.66 15 1.32 15 2 C13.04414675 3.00484204 11.08523763 4.00373805 9.125 5 C8.03445312 5.556875 6.94390625 6.11375 5.8203125 6.6875 C3 8 3 8 1 8 C1 8.66 1 9.32 1 10 C-0.32 10 -1.64 10 -3 10 C-3 10.66 -3 11.32 -3 12 C-3.66 12 -4.32 12 -5 12 C-4.42365861 7.24518354 -2.44931479 4.02951788 0 0 Z M-1.125 4.375 C-1.41375 5.24125 -1.7025 6.1075 -2 7 C-1.67 7.66 -1.34 8.32 -1 9 C2.63 7.02 6.26 5.04 10 3 C10 2.67 10 2.34 10 2 C3.76070027 1.16950717 3.76070027 1.16950717 -1.125 4.375 Z " fill="#414244" transform="translate(62,69)"/>
<path d="M0 0 C2 2 2 2 2.23046875 4.86328125 C2.20919922 6.57064453 2.20919922 6.57064453 2.1875 8.3125 C2.17783203 10.00826172 2.17783203 10.00826172 2.16796875 11.73828125 C2.02015783 14.60856308 1.65474022 17.20818772 1 20 C-2.55780196 19.39009109 -5.6828589 18.4216319 -9 17 C-8.35826346 12.88473708 -6.13013842 9.69611565 -3.9375 6.25 C-3.56044922 5.64800781 -3.18339844 5.04601563 -2.79492188 4.42578125 C-1.86806837 2.94750857 -0.93467611 1.47333911 0 0 Z M0 3 C-1.2264128 4.97637747 -2.4062303 6.9817838 -3.5625 9 C-4.20316406 10.11375 -4.84382813 11.2275 -5.50390625 12.375 C-5.99761719 13.24125 -6.49132812 14.1075 -7 15 C-4.8614515 17.1385485 -3.86724686 17.42655063 -1 18 C1.02558881 14.65060119 1.21738987 12.13037449 1.125 8.25 C1.09792969 6.77273437 1.09792969 6.77273437 1.0703125 5.265625 C1.04710938 4.51796875 1.02390625 3.7703125 1 3 C0.67 3 0.34 3 0 3 Z " fill="#47494A" transform="translate(126,32)"/>
<path d="M0 0 C0.66 0.33 1.32 0.66 2 1 C0.04500307 4.80138291 -2.09786439 6.87415307 -5.44921875 9.46875 C-7.95247154 11.94047568 -9.30962276 14.96567747 -10.82421875 18.109375 C-12 20 -12 20 -15 21 C-11.69889416 12.30553813 -7.42501762 5.64301339 0 0 Z " fill="#848586" transform="translate(60,52)"/>
<path d="M0 0 C1.4123551 4.44700997 0.07203271 7.78682621 -1.375 12.0625 C-1.60960937 12.78244141 -1.84421875 13.50238281 -2.0859375 14.24414062 C-2.71407251 16.16601963 -3.35630848 18.08327526 -4 20 C-4.90238747 22.70716242 -5.11851302 24.23776768 -5.09765625 27.01171875 C-5.09443359 27.76904297 -5.09121094 28.52636719 -5.08789062 29.30664062 C-5.07951172 30.09232422 -5.07113281 30.87800781 -5.0625 31.6875 C-5.05798828 32.48478516 -5.05347656 33.28207031 -5.04882812 34.10351562 C-5.0370585 36.06904257 -5.01912348 38.03453085 -5 40 C-9.31746821 32.96476296 -7.40090157 22.85562206 -5.75 15.1875 C-4.38132959 9.84379161 -2.50070598 4.91255439 0 0 Z " fill="#373839" transform="translate(62,149)"/>
<path d="M0 0 C4.80186055 7.20279083 4.3083492 15.39634008 4.25 23.75 C4.25773438 24.87277344 4.26546875 25.99554688 4.2734375 27.15234375 C4.27085937 28.23128906 4.26828125 29.31023438 4.265625 30.421875 C4.26336914 31.39737305 4.26111328 32.37287109 4.25878906 33.37792969 C3.99435432 36.05720249 3.36674816 37.70489459 2 40 C2.01047363 39.2793335 2.02094727 38.55866699 2.03173828 37.81616211 C2.07353715 34.52331079 2.09940188 31.2305155 2.125 27.9375 C2.14175781 26.80376953 2.15851563 25.67003906 2.17578125 24.50195312 C2.2105587 18.53761975 1.90073534 13.64280803 0 8 C-0.21794764 5.28437244 -0.0958736 2.73239755 0 0 Z " fill="#4D4F50" transform="translate(136,16)"/>
<path d="M0 0 C2.02045442 0.60183749 4.02111039 1.27306096 6 2 C7.50156874 5.00313748 7.09281204 7.79067522 7.0625 11.125 C7.05347656 12.40632812 7.04445313 13.68765625 7.03515625 15.0078125 C7.02355469 15.99523437 7.01195313 16.98265625 7 18 C5.02 18.99 5.02 18.99 3 20 C2.63447197 18.58622218 2.28304505 17.16879424 1.9375 15.75 C1.74027344 14.96109375 1.54304688 14.1721875 1.33984375 13.359375 C1 11 1 11 2 7 C2.99 9.64 3.98 12.28 5 15 C5.29744153 9.94349401 4.97908145 7.124882 2 3 C1.34 2.01 0.68 1.02 0 0 Z " fill="#3A3C3D" transform="translate(76,127)"/>
<path d="M0 0 C0.33 0.99 0.66 1.98 1 3 C-2.60288305 9.53856554 -7.98291261 16.87474259 -15 20 C-17.234375 19.640625 -17.234375 19.640625 -19 19 C-18.01 18.525625 -17.02 18.05125 -16 17.5625 C-9.93376277 14.11549351 -4.84803241 8.36108763 -2 2 C-1.34 2 -0.68 2 0 2 C0 1.34 0 0.68 0 0 Z " fill="#343638" transform="translate(142,136)"/>
<path d="M0 0 C0.25 7.625 0.25 7.625 -2 11 C-2 8.69 -2 6.38 -2 4 C-3.43854058 5.26965531 -4.87579127 6.54077218 -6.3125 7.8125 C-7.11300781 8.52019531 -7.91351563 9.22789062 -8.73828125 9.95703125 C-10.54983162 11.59337122 -12.29681703 13.25272168 -14 15 C-14.66 14.67 -15.32 14.34 -16 14 C-14.625 12 -14.625 12 -13 10 C-12.34 10 -11.68 10 -11 10 C-11 9.34 -11 8.68 -11 8 C-9.4089357 6.56197818 -7.7513985 5.19674665 -6.0625 3.875 C-5.14597656 3.15054688 -4.22945312 2.42609375 -3.28515625 1.6796875 C-1 0 -1 0 0 0 Z " fill="#313334" transform="translate(124,144)"/>
<path d="M0 0 C0.99 0 1.98 0 3 0 C6.98837518 7.05087756 7.48817841 12.98573769 7 21 C6.67 21 6.34 21 6 21 C5.95101562 20.25234375 5.90203125 19.5046875 5.8515625 18.734375 C5.77679688 17.74953125 5.70203125 16.7646875 5.625 15.75 C5.52058594 14.28820312 5.52058594 14.28820312 5.4140625 12.796875 C5.01534751 10.10366811 4.36492937 8.33036721 3 6 C2.67 6.99 2.34 7.98 2 9 C1.34 9 0.68 9 0 9 C0 6.03 0 3.06 0 0 Z " fill="#535656" transform="translate(90,10)"/>
<path d="M0 0 C0.66 0.33 1.32 0.66 2 1 C-5.14171536 7.56265735 -13.13655632 12.62779458 -23 13 C-19.74780396 9.74780396 -15.24224275 8.46549206 -11.02929688 6.7421875 C-6.81529636 4.96458876 -3.45627671 3.0828087 0 0 Z " fill="#1E1F20" transform="translate(43,73)"/>
<path d="M0 0 C5.18114789 4.5296263 8.930585 12.47243351 9.875 19.25 C9.91625 20.1575 9.9575 21.065 10 22 C7.88069684 18.82104525 6.15369237 15.52907642 4.4375 12.125 C4.12103516 11.51269531 3.80457031 10.90039062 3.47851562 10.26953125 C1.76260864 6.86686221 0.52494667 3.78249246 0 0 Z " fill="#343637" transform="translate(150,73)"/>
<path d="M0 0 C0.99 0.33 1.98 0.66 3 1 C1.7315625 1.928125 1.7315625 1.928125 0.4375 2.875 C-3.31516574 5.96805229 -5.8067668 9.7705258 -8.484375 13.79296875 C-10 16 -10 16 -12 18 C-11.53747738 10.59963806 -5.12281848 4.82147622 0 0 Z " fill="#373A3B" transform="translate(79,178)"/>
<path d="M0 0 C0.66 0.33 1.32 0.66 2 1 C1.67 1.66 1.34 2.32 1 3 C0.69656053 6.48955396 0.60529918 8.37505704 2.5 11.375 C2.995 11.91125 3.49 12.4475 4 13 C1.53199953 11.84826645 -0.04783565 10.95216435 -2 9 C-2 8.01 -2 7.02 -2 6 C-3.32 5.34 -4.64 4.68 -6 4 C-5.67 3.01 -5.34 2.02 -5 1 C-5 1.66 -5 2.32 -5 3 C-3.68 3 -2.36 3 -1 3 C-0.67 2.01 -0.34 1.02 0 0 Z " fill="#4D4F50" transform="translate(9,101)"/>
<path d="M0 0 C5.62917348 0.40208382 8.00386479 2.28930302 12 6 C11.67 6.66 11.34 7.32 11 8 C9.68 7.34 8.36 6.68 7 6 C7 5.34 7 4.68 7 4 C4.525 3.01 4.525 3.01 2 2 C2 4.31 2 6.62 2 9 C1.67 9 1.34 9 1 9 C0.67 6.03 0.34 3.06 0 0 Z " fill="#404244" transform="translate(144,99)"/>
<path d="M0 0 C0.84304687 1.07314453 0.84304687 1.07314453 1.703125 2.16796875 C3.97236686 4.96592853 6.33051154 7.64394655 8.75 10.3125 C9.54921875 11.19550781 10.3484375 12.07851562 11.171875 12.98828125 C11.77515625 13.65214844 12.3784375 14.31601563 13 15 C12.67 15.66 12.34 16.32 12 17 C11.39671875 16.31292969 10.7934375 15.62585938 10.171875 14.91796875 C9.37265625 14.01691406 8.5734375 13.11585937 7.75 12.1875 C6.96109375 11.29417969 6.1721875 10.40085937 5.359375 9.48046875 C3.34120555 7.35871775 1.40083295 5.65745577 -1 4 C-0.67 2.68 -0.34 1.36 0 0 Z " fill="#242627" transform="translate(137,56)"/>
<path d="M0 0 C0.5775 0.78375 1.155 1.5675 1.75 2.375 C3.84165165 4.81526025 5.0430177 5.91577316 8 7 C8.66 7 9.32 7 10 7 C9.67 7.99 9.34 8.98 9 10 C6.75 9.875 6.75 9.875 4 9 C0 4.02702703 0 4.02702703 0 0 Z " fill="#3C3E3F" transform="translate(57,189)"/>
<path d="M0 0 C2 2 2 2 2.125 5.625 C2.08375 6.73875 2.0425 7.8525 2 9 C1.34 7.68 0.68 6.36 0 5 C-1.32 7.31 -2.64 9.62 -4 12 C-4.65234375 10.265625 -4.65234375 10.265625 -5 8 C-4.00390625 5.859375 -4.00390625 5.859375 -2.5625 3.75 C-2.08941406 3.04359375 -1.61632812 2.3371875 -1.12890625 1.609375 C-0.75636719 1.07828125 -0.38382812 0.5471875 0 0 Z " fill="#303233" transform="translate(126,32)"/>
<path d="M0 0 C2.51239382 3.76859072 3.12663199 6.26239249 3.0625 10.6875 C3.05347656 11.49574219 3.04445312 12.30398437 3.03515625 13.13671875 C3.02355469 13.75160156 3.01195312 14.36648437 3 15 C-0.34944548 9.97583178 -0.09834146 5.90048743 0 0 Z " fill="#737677" transform="translate(136,16)"/>
<path d="M0 0 C0.75 1.5625 0.75 1.5625 1 4 C-0.02332869 6.54719859 -1.27272296 8.86333587 -3 11 C-3.99 11.33 -4.98 11.66 -6 12 C-4.43358249 7.69235185 -2.31663844 3.93828536 0 0 Z " fill="#505254" transform="translate(51,61)"/>
<path d="M0 0 C3.00617269 3.00617269 2.59585316 5.82381598 3 10 C3.99 9.67 4.98 9.34 6 9 C5.34 10.32 4.68 11.64 4 13 C3.34 13 2.68 13 2 13 C1.66127487 11.58461283 1.32925376 10.16762037 1 8.75 C0.814375 7.96109375 0.62875 7.1721875 0.4375 6.359375 C0 4 0 4 0 0 Z " fill="#5C5F61" transform="translate(77,134)"/>
<path d="M0 0 C0.99 0 1.98 0 3 0 C2.67 2.97 2.34 5.94 2 9 C1.34 9 0.68 9 0 9 C0 6.03 0 3.06 0 0 Z " fill="#888C8D" transform="translate(90,10)"/>
<path d="M0 0 C2.67901932 2.31881505 3.66204403 4.31814468 4.6875 7.6875 C4.93886719 8.49574219 5.19023437 9.30398438 5.44921875 10.13671875 C5.63097656 10.75160156 5.81273437 11.36648438 6 12 C3.44518997 9.53106594 1.63100961 7.18435209 0 4 C0 2.68 0 1.36 0 0 Z " fill="#444647" transform="translate(130,4)"/>
<path d="M0 0 C2.96844435 -0.35338623 5.15598218 -0.5417682 7.734375 1.11328125 C9.20348819 2.35503168 10.60704814 3.67337918 12 5 C8.76344816 5 7.21247361 4.3449153 4.3125 3 C3.50425781 2.62875 2.69601563 2.2575 1.86328125 1.875 C1.24839844 1.58625 0.63351563 1.2975 0 1 C0 0.67 0 0.34 0 0 Z " fill="#363839" transform="translate(64,121)"/>
<path d="M0 0 C-1 2 -1 2 -4.3125 3.1875 C-7.57562063 3.90649268 -8.99282882 4.20286847 -12 3 C-4.71428571 -0.42857143 -4.71428571 -0.42857143 0 0 Z " fill="#4F5152" transform="translate(32,82)"/>
<path d="M0 0 C2.0245738 1.93254772 3.42105792 3.63158688 5 6 C4.625 8.1875 4.625 8.1875 4 10 C0 4.5 0 4.5 0 0 Z " fill="#565859" transform="translate(150,73)"/>
<path d="M0 0 C0.66 0 1.32 0 2 0 C2 3.3 2 6.6 2 10 C2.66 10.33 3.32 10.66 4 11 C2.68 11.33 1.36 11.66 0 12 C0 8.04 0 4.08 0 0 Z " fill="#B1B4B4" transform="translate(123,143)"/>
<path d="M0 0 C0.66 0.33 1.32 0.66 2 1 C-0.83430453 4.2542015 -2.68607774 5.5206753 -7 6 C-4.74259377 3.66475218 -2.7194239 1.81294927 0 0 Z " fill="#494C4E" transform="translate(107,157)"/>
</svg>
