<?xml version="1.0" encoding="UTF-8"?>
<svg version="1.1" xmlns="http://www.w3.org/2000/svg" width="267" height="325">
<path d="M0 0 C2.25390625 0.1171875 2.25390625 0.1171875 5 1 C11.45214363 9.3790844 15.62678436 20.050282 19 30 C19.41507813 31.20011719 19.83015625 32.40023437 20.2578125 33.63671875 C23.17075907 43.16798805 23.39300868 52.78980267 23.4375 62.6875 C23.44765137 63.98171875 23.45780273 65.2759375 23.46826172 66.609375 C23.39707574 74.49397361 22.49858886 81.46579158 20.54321289 89.08520508 C20.01308003 91.92981463 19.9091809 93.35874082 21 96 C23.22847788 98.47943955 23.22847788 98.47943955 26 101 C43.68721422 118.05645378 57.07347801 141.33881639 58.09375 166.29296875 C58.13291389 168.6545512 58.13667308 171.01314758 58.125 173.375 C58.12886719 174.18066406 58.13273437 174.98632812 58.13671875 175.81640625 C58.12678571 181.74642857 58.12678571 181.74642857 57 184 C55.265625 183.8515625 55.265625 183.8515625 53 183 C50.921875 180.5234375 50.921875 180.5234375 48.75 177.375 C44.09449264 170.84779064 39.26210199 165.53657316 32 162 C32.10175537 162.82286499 32.10175537 162.82286499 32.20556641 163.66235352 C34.8509711 187.13019134 35.52012849 212.596897 22 233 C21.39478516 234.01513672 21.39478516 234.01513672 20.77734375 235.05078125 C17.61797698 239.87195561 13.43323282 243.39252023 9 247 C8.40638672 247.49371094 7.81277344 247.98742187 7.20117188 248.49609375 C4.22009266 250.8268157 2.51628821 251.93181099 -1.3125 252.4375 C-4 252 -4 252 -6 250 C-6.1953125 247.3984375 -6.1953125 247.3984375 -6.125 244.375 C-6.10695312 243.37210938 -6.08890625 242.36921875 -6.0703125 241.3359375 C-6.04710937 240.56507813 -6.02390625 239.79421875 -6 239 C-6.89460937 239.7734375 -7.78921875 240.546875 -8.7109375 241.34375 C-20.51388981 251.52424705 -32.36813757 260.90183512 -45.55859375 269.2578125 C-57.28886722 275.6636473 -57.28886722 275.6636473 -66 285 C-66.99 285 -67.98 285 -69 285 C-69 285.66 -69 286.32 -69 287 C-70.65234375 288.375 -70.65234375 288.375 -72.9375 290 C-83.95617954 298.35063449 -91.87149212 309.23906569 -97 322 C-100.30311973 321.93393761 -102.96893231 321.79088957 -105.66015625 319.7265625 C-115.66945833 308.82128709 -115.63150682 294.84072154 -115.18359375 280.9375 C-114.29227714 266.6764343 -109.59209194 253.31649846 -103.35522461 240.57348633 C-98.10671203 229.78743694 -95.34881825 218.94100863 -94 207 C-88.6882336 207.41660913 -85.74804176 208.15332556 -82 212 C-77.07192607 218.69932369 -74.66237844 224.55946108 -75 233 C-74.34 233 -73.68 233 -73 233 C-71.83104279 224.77918139 -71.10322119 218.0571224 -76 211 C-84.96849252 199.65098169 -103.32022093 194.89039001 -116.8538208 193.22386169 C-120.0702219 192.88836827 -123.2758093 192.79698054 -126.5078125 192.71875 C-127.53973221 192.69113586 -127.53973221 192.69113586 -128.59249878 192.66296387 C-130.76992298 192.60493782 -132.94742219 192.5519164 -135.125 192.5 C-176.46112372 191.49978172 -176.46112372 191.49978172 -188 182 C-188.54785156 181.55140625 -189.09570312 181.1028125 -189.66015625 180.640625 C-191.0625 179.375 -191.0625 179.375 -193 177 C-193 175.68 -193 174.36 -193 173 C-193.59296875 172.94972656 -194.1859375 172.89945313 -194.796875 172.84765625 C-198.91322039 171.26388506 -200.00502242 166.95269155 -201.8046875 163.16796875 C-203.34313913 159.09056916 -203.49523848 156.29206683 -203 152 C-196.21251025 148.21262328 -189.52103267 144.6395291 -182.23828125 141.88671875 C-180.19378515 141.07677003 -178.31277633 140.15932506 -176.375 139.125 C-172.54434896 137.14044585 -168.55052035 135.71013869 -164.5 134.25 C-147.50620242 128.02880627 -134.78120199 121.83286323 -125.9375 105.51171875 C-115.24275335 85.84254575 -99.23367714 80.39829843 -79.1328125 73.2734375 C-60.68022295 66.69050895 -46.31634339 57.51423926 -32 44 C-31.31292969 43.36578125 -30.62585938 42.7315625 -29.91796875 42.078125 C-17.80073646 30.51058964 -7.66172711 14.87988054 0 0 Z M1 54 C-0.50432728 56.35538096 -1.95233654 58.72087883 -3.375 61.125 C-3.77460938 61.79015625 -4.17421875 62.4553125 -4.5859375 63.140625 C-9.02070058 69.6976223 -9.02070058 69.6976223 -11 77 C-9.73581754 77.69965443 -8.46334598 78.38434763 -7.1875 79.0625 C-6.12595703 79.63677734 -6.12595703 79.63677734 -5.04296875 80.22265625 C-2.85302199 81.30263511 -2.85302199 81.30263511 0 80 C3.24044375 71.71886596 3.47420244 62.68141435 2 54 C1.67 54 1.34 54 1 54 Z M-105 117.25 C-106.41575741 120.1001432 -107.31669534 122.89665801 -108 126 C-99.55438222 122.75053358 -91.5713318 118.99385715 -84 114 C-84 113.67 -84 113.34 -84 113 C-95.88754433 111.26411742 -95.88754433 111.26411742 -105 117.25 Z " fill="#FBFBFB" transform="translate(205,1)"/>
<path d="M0 0 C2.25390625 0.1171875 2.25390625 0.1171875 5 1 C11.45214363 9.3790844 15.62678436 20.050282 19 30 C19.41507813 31.20011719 19.83015625 32.40023437 20.2578125 33.63671875 C23.17075907 43.16798805 23.39300868 52.78980267 23.4375 62.6875 C23.44765137 63.98171875 23.45780273 65.2759375 23.46826172 66.609375 C23.39707574 74.49397361 22.49858886 81.46579158 20.54321289 89.08520508 C20.01308003 91.92981463 19.9091809 93.35874082 21 96 C23.22847788 98.47943955 23.22847788 98.47943955 26 101 C43.68721422 118.05645378 57.07347801 141.33881639 58.09375 166.29296875 C58.13291389 168.6545512 58.13667308 171.01314758 58.125 173.375 C58.12886719 174.18066406 58.13273437 174.98632812 58.13671875 175.81640625 C58.12678571 181.74642857 58.12678571 181.74642857 57 184 C55.265625 183.8515625 55.265625 183.8515625 53 183 C50.921875 180.5234375 50.921875 180.5234375 48.75 177.375 C44.09449264 170.84779064 39.26210199 165.53657316 32 162 C32.10175537 162.82286499 32.10175537 162.82286499 32.20556641 163.66235352 C34.8509711 187.13019134 35.52012849 212.596897 22 233 C21.39478516 234.01513672 21.39478516 234.01513672 20.77734375 235.05078125 C17.61797698 239.87195561 13.43323282 243.39252023 9 247 C8.40638672 247.49371094 7.81277344 247.98742187 7.20117188 248.49609375 C4.22009266 250.8268157 2.51628821 251.93181099 -1.3125 252.4375 C-4 252 -4 252 -6 250 C-6.1953125 247.3984375 -6.1953125 247.3984375 -6.125 244.375 C-6.10695312 243.37210938 -6.08890625 242.36921875 -6.0703125 241.3359375 C-6.04710937 240.56507813 -6.02390625 239.79421875 -6 239 C-6.89460937 239.7734375 -7.78921875 240.546875 -8.7109375 241.34375 C-20.51388981 251.52424705 -32.36813757 260.90183512 -45.55859375 269.2578125 C-57.28886722 275.6636473 -57.28886722 275.6636473 -66 285 C-66.99 285 -67.98 285 -69 285 C-69 285.66 -69 286.32 -69 287 C-70.65234375 288.375 -70.65234375 288.375 -72.9375 290 C-83.95617954 298.35063449 -91.87149212 309.23906569 -97 322 C-100.30311973 321.93393761 -102.96893231 321.79088957 -105.66015625 319.7265625 C-115.66945833 308.82128709 -115.63150682 294.84072154 -115.18359375 280.9375 C-114.29227714 266.6764343 -109.59209194 253.31649846 -103.35522461 240.57348633 C-98.10671203 229.78743694 -95.34881825 218.94100863 -94 207 C-88.6882336 207.41660913 -85.74804176 208.15332556 -82 212 C-77.07192607 218.69932369 -74.66237844 224.55946108 -75 233 C-74.34 233 -73.68 233 -73 233 C-71.83104279 224.77918139 -71.10322119 218.0571224 -76 211 C-84.96849252 199.65098169 -103.32022093 194.89039001 -116.8538208 193.22386169 C-120.0702219 192.88836827 -123.2758093 192.79698054 -126.5078125 192.71875 C-127.53973221 192.69113586 -127.53973221 192.69113586 -128.59249878 192.66296387 C-130.76992298 192.60493782 -132.94742219 192.5519164 -135.125 192.5 C-176.46112372 191.49978172 -176.46112372 191.49978172 -188 182 C-188.54785156 181.55140625 -189.09570312 181.1028125 -189.66015625 180.640625 C-191.0625 179.375 -191.0625 179.375 -193 177 C-193 175.68 -193 174.36 -193 173 C-193.59296875 172.94972656 -194.1859375 172.89945313 -194.796875 172.84765625 C-198.91322039 171.26388506 -200.00502242 166.95269155 -201.8046875 163.16796875 C-203.34313913 159.09056916 -203.49523848 156.29206683 -203 152 C-196.21251025 148.21262328 -189.52103267 144.6395291 -182.23828125 141.88671875 C-180.19378515 141.07677003 -178.31277633 140.15932506 -176.375 139.125 C-172.54434896 137.14044585 -168.55052035 135.71013869 -164.5 134.25 C-147.50620242 128.02880627 -134.78120199 121.83286323 -125.9375 105.51171875 C-115.24275335 85.84254575 -99.23367714 80.39829843 -79.1328125 73.2734375 C-60.68022295 66.69050895 -46.31634339 57.51423926 -32 44 C-31.31292969 43.36578125 -30.62585938 42.7315625 -29.91796875 42.078125 C-17.80073646 30.51058964 -7.66172711 14.87988054 0 0 Z M1 4 C-0.48480925 5.84003044 -0.48480925 5.84003044 -1.9765625 8.2421875 C-2.56163574 9.13953613 -3.14670898 10.03688477 -3.74951172 10.96142578 C-4.36842285 11.92290527 -4.98733398 12.88438477 -5.625 13.875 C-10.03686785 20.63941119 -14.41668986 27.17471268 -19.7421875 33.2578125 C-21.2926789 35.04725545 -21.2926789 35.04725545 -21 38 C-21.55042969 38.21785156 -22.10085937 38.43570313 -22.66796875 38.66015625 C-25.7465495 40.42892208 -27.90856493 42.87400102 -30.3125 45.4375 C-36.89992092 52.23548718 -44.19781357 57.67876695 -52 63 C-52.81597656 63.57363281 -53.63195312 64.14726563 -54.47265625 64.73828125 C-65.23431602 71.7798611 -78.21013292 75.85150624 -90.39086914 79.69726562 C-107.28247162 85.04272854 -117.05961473 92.91769054 -125.5625 108.5625 C-133.33325604 122.8032305 -140.6559405 128.29634664 -155.98828125 133.55078125 C-161.43451515 135.46580485 -166.71355013 137.78055883 -172.01855469 140.05126953 C-176.6862262 142.04347628 -181.36655735 143.92325869 -186.125 145.6875 C-194.02610893 148.51242422 -194.02610893 148.51242422 -201 153 C-202.39456342 156.89044095 -201.87341454 159.40714881 -200.375 163.1875 C-199.89160156 164.47720703 -199.89160156 164.47720703 -199.3984375 165.79296875 C-197.64187893 168.56519107 -196.08963328 169.08132167 -193 170 C-192.38125 168.865625 -191.7625 167.73125 -191.125 166.5625 C-189.25 163.125 -189.25 163.125 -187 162 C-187.20496094 162.59167969 -187.40992188 163.18335938 -187.62109375 163.79296875 C-188.17611607 165.42085719 -188.71596371 167.05398173 -189.2421875 168.69140625 C-189.78888822 170.35687081 -190.4048251 172.00015613 -191.0625 173.625 C-190.96991568 177.14320419 -189.36213728 178.84579527 -186.99609375 181.359375 C-173.24041704 192.66541065 -149.62443262 190.17662639 -132.8684082 190.47680664 C-114.91710794 190.81150209 -99.02050126 192.68812296 -83.5 202.4375 C-82.92443359 202.79658447 -82.34886719 203.15566895 -81.75585938 203.52563477 C-75.88236784 207.39672121 -71.54388558 211.98233826 -70 219 C-69.49795212 225.22539372 -70.54723446 229.2768804 -73 235 C-73.66 235 -74.32 235 -75 235 C-75.13277344 234.24074219 -75.26554687 233.48148438 -75.40234375 232.69921875 C-75.66724609 231.20841797 -75.66724609 231.20841797 -75.9375 229.6875 C-76.19853516 228.20830078 -76.19853516 228.20830078 -76.46484375 226.69921875 C-76.95746847 223.91810787 -76.95746847 223.91810787 -78 221 C-78.66 221 -79.32 221 -80 221 C-80.268125 220.443125 -80.53625 219.88625 -80.8125 219.3125 C-83.88345902 213.27631172 -83.88345902 213.27631172 -89 209 C-89.99 209 -90.98 209 -92 209 C-92 211.64 -92 214.28 -92 217 C-92.66 217 -93.32 217 -94 217 C-94.23074219 218.01578125 -94.46148437 219.0315625 -94.69921875 220.078125 C-96.74071353 228.79864987 -99.3350723 236.804081 -103 245 C-111.26819365 263.63014177 -117.7153081 286.46633258 -111.046875 306.62890625 C-108.80520248 311.70612723 -106.5054284 316.84169325 -101.3046875 319.24609375 C-100.16386719 319.61927734 -100.16386719 319.61927734 -99 320 C-98.5153125 319.03320312 -98.030625 318.06640625 -97.53125 317.0703125 C-92.12673017 306.49270063 -86.37646129 297.50116903 -77 290 C-77 289.34 -77 288.68 -77 288 C-76.2575 287.731875 -75.515 287.46375 -74.75 287.1875 C-72.10938051 286.04723249 -70.14447156 284.90619694 -68 283 C-68 282.34 -68 281.68 -68 281 C-67.44183594 280.75121094 -66.88367188 280.50242187 -66.30859375 280.24609375 C-63.60678529 278.7877572 -61.42733283 277.01922609 -59.0625 275.0625 C-55.82751957 272.38751618 -52.63570233 270.09620963 -49 268 C-37.25401358 260.83736057 -26.5662994 252.59804477 -16.13671875 243.6640625 C-11.84631682 239.99793592 -7.42570611 236.5009317 -3 233 C-3.33 238.61 -3.66 244.22 -4 250 C-2.02 249.67 -0.04 249.34 2 249 C2.33 248.01 2.66 247.02 3 246 C5.0625 245.3125 5.0625 245.3125 7 245 C7 244.34 7 243.68 7 243 C7.74378906 242.7525 8.48757812 242.505 9.25390625 242.25 C17.80185506 238.35904179 23.80390342 227.45412144 27.1875 219.05078125 C30.87855113 208.45257928 32.36522851 198.52225204 32.3125 187.3125 C32.31121094 186.17506348 32.30992187 185.03762695 32.30859375 183.86572266 C32.21058263 175.25422054 31.30186225 167.30314597 29 159 C36.11398382 162.24618679 41.7401941 165.18653032 47 171 C47.66 171 48.32 171 49 171 C49.268125 171.721875 49.53625 172.44375 49.8125 173.1875 C50.98982498 175.97590126 52.39145884 178.44095724 54 181 C54.99 180.67 55.98 180.34 57 180 C57.63297252 163.47238411 55.15314813 146.68243274 47 132 C46.505 131.525625 46.01 131.05125 45.5 130.5625 C44 129 44 129 43.0859375 126.68359375 C40.03964405 119.15552325 34.31068052 113.03661569 28.875 107.125 C28.37242676 106.57779297 27.86985352 106.03058594 27.35205078 105.46679688 C24.43430526 102.35427913 21.48253945 99.49441407 18 97 C17.34 97 16.68 97 16 97 C16.33 95.9275 16.66 94.855 17 93.75 C18.1717751 90.00268399 18.1717751 90.00268399 18 86 C18.66 86 19.32 86 20 86 C21.71256451 78.07963548 22.38466349 70.47179779 22.375 62.375 C22.37693359 60.68334717 22.37693359 60.68334717 22.37890625 58.95751953 C22.26072399 49.53382748 20.79929713 40.97274704 18 32 C17.34 32 16.68 32 16 32 C15.835 30.845 15.67 29.69 15.5 28.5 C14.40732217 23.50718013 12.33240594 19.16890918 10.0625 14.625 C9.54042969 13.5721582 9.54042969 13.5721582 9.0078125 12.49804688 C7.32935251 9.22029953 5.81189177 6.40183374 3 4 C2.34 4 1.68 4 1 4 Z " fill="#131415" transform="translate(205,1)"/>
<path d="M0 0 C2.74609375 0.54296875 2.74609375 0.54296875 6 2 C7.65829188 4.48593847 8.85852425 6.62309153 10.0625 9.3125 C10.40047607 10.03163574 10.73845215 10.75077148 11.08666992 11.49169922 C12.08638611 13.649597 13.04964051 15.81997302 14 18 C14.50015625 19.14082031 15.0003125 20.28164063 15.515625 21.45703125 C20.7575427 34.26183624 22.49811118 46.72522648 22.375 60.5 C22.38660156 61.79808594 22.39820313 63.09617188 22.41015625 64.43359375 C22.38628936 72.39718079 21.52637578 79.39954813 19.54541016 87.09179688 C19.01230319 89.93439765 18.90972799 91.35985311 20 94 C22.22847788 96.47943955 22.22847788 96.47943955 25 99 C42.68721422 116.05645378 56.07347801 139.33881639 57.09375 164.29296875 C57.13291389 166.6545512 57.13667308 169.01314758 57.125 171.375 C57.12886719 172.18066406 57.13273438 172.98632812 57.13671875 173.81640625 C57.12678571 179.74642857 57.12678571 179.74642857 56 182 C54.265625 181.8515625 54.265625 181.8515625 52 181 C49.921875 178.5234375 49.921875 178.5234375 47.75 175.375 C43.09449264 168.84779064 38.26210199 163.53657316 31 160 C31.10175537 160.82286499 31.10175537 160.82286499 31.20556641 161.66235352 C33.8509711 185.13019134 34.52012849 210.596897 21 231 C20.39478516 232.01513672 20.39478516 232.01513672 19.77734375 233.05078125 C16.61797698 237.87195561 12.43323282 241.39252023 8 245 C7.10958008 245.74056641 7.10958008 245.74056641 6.20117188 246.49609375 C3.22009266 248.8268157 1.51628821 249.93181099 -2.3125 250.4375 C-5 250 -5 250 -7 248 C-7.1953125 245.3984375 -7.1953125 245.3984375 -7.125 242.375 C-7.10695313 241.37210938 -7.08890625 240.36921875 -7.0703125 239.3359375 C-7.04710937 238.56507813 -7.02390625 237.79421875 -7 237 C-8.34191406 238.16015625 -8.34191406 238.16015625 -9.7109375 239.34375 C-21.51388981 249.52424705 -33.36813757 258.90183512 -46.55859375 267.2578125 C-58.28886722 273.6636473 -58.28886722 273.6636473 -67 283 C-67.99 283 -68.98 283 -70 283 C-70 283.66 -70 284.32 -70 285 C-71.65234375 286.375 -71.65234375 286.375 -73.9375 288 C-82.98092718 294.85366651 -91.58353888 304.20624358 -95.5625 315 C-96.036875 315.99 -96.51125 316.98 -97 318 C-99.6875 318.9375 -99.6875 318.9375 -102 319 C-101.35611328 317.93845703 -101.35611328 317.93845703 -100.69921875 316.85546875 C-99.59366165 314.99762452 -98.51147614 313.12560413 -97.45703125 311.23828125 C-92.44769575 302.32618554 -87.15885866 294.28855551 -79 288 C-78.2575 287.2575 -78.2575 287.2575 -77.5 286.5 C-75.46674571 284.46674571 -73.30622952 282.71488861 -71 281 C-70.34 281 -69.68 281 -69 281 C-69 280.34 -69 279.68 -69 279 C-65.53846154 276 -65.53846154 276 -63 276 C-62.67 275.01 -62.34 274.02 -62 273 C-60.546875 271.71875 -60.546875 271.71875 -58.75 270.5 C-58.16734375 270.0978125 -57.5846875 269.695625 -56.984375 269.28125 C-54.68772844 267.79837584 -52.34822101 266.39969603 -50 265 C-34.59381198 255.6053893 -20.78104646 244.29872984 -7.48828125 232.14453125 C-6 231 -6 231 -4 231 C-3.97290556 233.08326131 -3.95356127 235.16662441 -3.9375 237.25 C-3.92589844 238.41015625 -3.91429687 239.5703125 -3.90234375 240.765625 C-3.98217908 243.40977128 -4.21356222 245.49826091 -5 248 C-1.13862539 246.88449178 1.29521127 245.97526761 4 243 C4.66 243 5.32 243 6 243 C6 242.34 6 241.68 6 241 C6.825 240.505 7.65 240.01 8.5 239.5 C19.78981689 232.25747596 25.91605386 217.82976066 28.87060547 205.26782227 C31.94726986 189.69582091 30.87361264 172.54829696 28 157 C36.38512664 158.34916398 44.51650567 164.29376398 49.546875 171.08984375 C53 176.45382725 53 176.45382725 53 179 C53.66 178.67 54.32 178.34 55 178 C55.55666535 163.46484911 53.26102134 150.52213788 48.0859375 136.92578125 C47 134 47 134 46.5390625 131.66796875 C46.36117187 131.11753906 46.18328125 130.56710938 46 130 C45.01 129.67 44.02 129.34 43 129 C42.3126994 127.38484359 41.63180434 125.76671086 40.98046875 124.13671875 C37.67071743 116.92383441 32.23400028 110.94188984 26.9375 105.125 C26.4432251 104.57763184 25.9489502 104.03026367 25.43969727 103.46630859 C22.23676195 100.02743449 19.00422952 97.46322589 15 95 C16 87.57142857 16 87.57142857 17 84 C17.66 84 18.32 84 19 84 C20.71072611 68.06438732 21.87486146 51.04636252 17.65625 35.44140625 C17 33 17 33 17 30 C16.34 30 15.68 30 15 30 C14.72027344 29.12859375 14.44054687 28.2571875 14.15234375 27.359375 C11.38653624 19.14199192 8.40533489 10.90480139 3 4 C0.89693993 3.11010923 0.89693993 3.11010923 -1 3 C-0.67 2.01 -0.34 1.02 0 0 Z " fill="#212224" transform="translate(206,3)"/>
<path d="M0 0 C3 1 3 1 4.5703125 3.765625 C5.08335937 4.91546875 5.59640625 6.0653125 6.125 7.25 C6.64320313 8.38953125 7.16140625 9.5290625 7.6953125 10.703125 C9.94881209 16.39759701 10.20869341 21.57358459 10.25 27.625 C10.270625 28.388125 10.29125 29.15125 10.3125 29.9375 C10.35119459 35.45147869 10.35119459 35.45147869 8.83203125 37.82421875 C6.40948989 39.3789841 3.97223539 40.82056547 1.4375 42.1875 C0.46683594 42.71730469 -0.50382813 43.24710938 -1.50390625 43.79296875 C-4 45 -4 45 -6 45 C-6 45.66 -6 46.32 -6 47 C-12.625 48.25 -12.625 48.25 -16 46 C-14.50581719 42.0204438 -12.6253596 38.37239855 -10.625 34.625 C-5.49067725 24.64506869 -3.13906378 14.03070317 -1.39453125 2.9765625 C-1 1 -1 1 0 0 Z " fill="#E4E5E5" transform="translate(148,16)"/>
<path d="M0 0 C1.65 0.33 3.3 0.66 5 1 C5.33 2.32 5.66 3.64 6 5 C4.35 4.34 2.7 3.68 1 3 C0.40251953 4.50626953 0.40251953 4.50626953 -0.20703125 6.04296875 C-1.95219964 10.10617824 -4.20444078 13.66528358 -6.6875 17.3125 C-7.12376709 17.96186523 -7.56003418 18.61123047 -8.00952148 19.28027344 C-11.26866736 24.07323964 -14.76076539 28.61837032 -18.50390625 33.046875 C-20.19082756 35.02939698 -20.19082756 35.02939698 -21 38 C-22.56640625 39.54296875 -22.56640625 39.54296875 -24.5625 41.1875 C-27.40660624 43.58596284 -30.02076232 46.03546874 -32.5625 48.75 C-38.38064658 54.64847602 -45.21485401 59.29197862 -52 64 C-52.82113281 64.57878906 -53.64226562 65.15757813 -54.48828125 65.75390625 C-65.26012876 72.77569673 -78.21140681 76.85134301 -90.39111328 80.69750977 C-108.37061764 86.38614916 -116.96910023 94.68350749 -125.85546875 111.06054688 C-128.70144393 116.16128462 -131.42436774 120.30382394 -136 124 C-138.18164063 123.64672852 -138.18164063 123.64672852 -140 123 C-139.5153125 122.65710938 -139.030625 122.31421875 -138.53125 121.9609375 C-132.64567092 117.36565845 -129.43394037 111.94599153 -125.9375 105.51171875 C-115.24275335 85.84254575 -99.23367714 80.39829843 -79.1328125 73.2734375 C-60.68022295 66.69050895 -46.31634339 57.51423926 -32 44 C-31.31292969 43.36578125 -30.62585938 42.7315625 -29.91796875 42.078125 C-17.80073646 30.51058964 -7.66172711 14.87988054 0 0 Z " fill="#161719" transform="translate(205,1)"/>
<path d="M0 0 C-5.10422998 6.00497645 -12.74400708 8.04026442 -19.91796875 10.515625 C-25.38363884 12.45309779 -30.68910806 14.77013797 -36.01806641 17.05102539 C-40.68588238 19.04336285 -45.36638567 20.92319504 -50.125 22.6875 C-55.38347365 24.66700224 -60.20053216 27.08559446 -65 30 C-64.41825155 35.3086849 -64.41825155 35.3086849 -62 40 C-62 41.32 -62 42.64 -62 44 C-60.35 44.66 -58.7 45.32 -57 46 C-56.7525 45.05125 -56.505 44.1025 -56.25 43.125 C-55 40 -55 40 -52.921875 38.8046875 C-51.97054687 38.40636719 -51.97054687 38.40636719 -51 38 C-51.13277344 38.59167969 -51.26554687 39.18335938 -51.40234375 39.79296875 C-51.7662637 41.42131132 -52.12141562 43.05163294 -52.46875 44.68359375 C-53 47 -53 47 -53.9375 49.75 C-54.26881867 52.32659528 -54.26881867 52.32659528 -51.5625 54.6875 C-50.716875 55.450625 -49.87125 56.21375 -49 57 C-49 57.66 -49 58.32 -49 59 C-32.21264845 64.35766539 -15.67568495 65.10876651 1.8125 65.5625 C3.39128408 65.60582772 4.97006023 65.64944576 6.54882812 65.69335938 C10.36580244 65.79890974 14.18286163 65.90056705 18 66 C18 66.33 18 66.66 18 67 C11.40217644 67.07677759 4.80447029 67.12890148 -1.79370117 67.16479492 C-4.03300278 67.17977622 -6.27227558 67.20016833 -8.51147461 67.22631836 C-40.35328862 67.58856072 -40.35328862 67.58856072 -52 58 C-52.82177734 57.32710937 -52.82177734 57.32710937 -53.66015625 56.640625 C-55.0625 55.375 -55.0625 55.375 -57 53 C-57 51.68 -57 50.36 -57 49 C-57.59296875 48.94972656 -58.1859375 48.89945313 -58.796875 48.84765625 C-62.91322039 47.26388506 -64.00502242 42.95269155 -65.8046875 39.16796875 C-67.34313913 35.09056916 -67.49523848 32.29206683 -67 28 C-60.21251025 24.21262328 -53.52103267 20.6395291 -46.23828125 17.88671875 C-44.19378515 17.07677003 -42.31277633 16.15932506 -40.375 15.125 C-35.87160392 12.79628211 -31.11847916 11.15861793 -26.36157227 9.43554688 C-20.72067661 7.35646081 -15.31987277 4.90666214 -9.96069336 2.18432617 C-6.48287139 0.47083432 -3.88538241 -0.36585522 0 0 Z " fill="#2E3031" transform="translate(69,125)"/>
<path d="M0 0 C0.99 0.495 0.99 0.495 2 1 C-3.76503205 11.66438836 -16.59616709 17.9467486 -26.55859375 24.2578125 C-38.28886722 30.6636473 -38.28886722 30.6636473 -47 40 C-47.99 40 -48.98 40 -50 40 C-50 40.66 -50 41.32 -50 42 C-51.65234375 43.375 -51.65234375 43.375 -53.9375 45 C-62.98092718 51.85366651 -71.58353888 61.20624358 -75.5625 72 C-76.036875 72.99 -76.51125 73.98 -77 75 C-79.6875 75.9375 -79.6875 75.9375 -82 76 C-81.57074219 75.29230469 -81.14148438 74.58460938 -80.69921875 73.85546875 C-79.59366165 71.99762452 -78.51147614 70.12560413 -77.45703125 68.23828125 C-72.44769575 59.32618554 -67.15885866 51.28855551 -59 45 C-58.505 44.505 -58.01 44.01 -57.5 43.5 C-55.46674571 41.46674571 -53.30622952 39.71488861 -51 38 C-50.34 38 -49.68 38 -49 38 C-49 37.34 -49 36.68 -49 36 C-45.53846154 33 -45.53846154 33 -43 33 C-42.67 32.01 -42.34 31.02 -42 30 C-40.546875 28.71875 -40.546875 28.71875 -38.75 27.5 C-38.16734375 27.0978125 -37.5846875 26.695625 -36.984375 26.28125 C-34.68772844 24.79837584 -32.34822101 23.39969603 -30 22 C-19.35250223 15.50721305 -9.33652303 8.27555451 0 0 Z " fill="#282B2C" transform="translate(186,246)"/>
<path d="M0 0 C2.74609375 0.54296875 2.74609375 0.54296875 6 2 C7.65829188 4.48593847 8.85852425 6.62309153 10.0625 9.3125 C10.56946411 10.39120361 10.56946411 10.39120361 11.08666992 11.49169922 C12.08638611 13.649597 13.04964051 15.81997302 14 18 C14.75023437 19.71123047 14.75023437 19.71123047 15.515625 21.45703125 C20.7575427 34.26183624 22.49811118 46.72522648 22.375 60.5 C22.38660156 61.79808594 22.39820313 63.09617188 22.41015625 64.43359375 C22.38628936 72.39718079 21.52637578 79.39954813 19.54541016 87.09179688 C19.01230319 89.93439765 18.90972799 91.35985311 20 94 C22.22847788 96.47943955 22.22847788 96.47943955 25 99 C30.7509217 104.52799588 35.43066101 110.44359375 40 117 C40.55042969 117.77859375 41.10085937 118.5571875 41.66796875 119.359375 C44.09090561 122.97002601 45.70580736 125.48283289 45 130 C43.04332664 128.31014574 42.03840615 127.09715455 41.078125 124.66796875 C38.04820099 117.17000462 32.32735675 111.03764112 26.9375 105.125 C26.44330566 104.57779297 25.94911133 104.03058594 25.43994141 103.46679688 C22.23710488 100.02753779 19.00439075 97.46332507 15 95 C16 87.57142857 16 87.57142857 17 84 C17.66 84 18.32 84 19 84 C20.71072611 68.06438732 21.87486146 51.04636252 17.65625 35.44140625 C17 33 17 33 17 30 C16.34 30 15.68 30 15 30 C14.72027344 29.12859375 14.44054687 28.2571875 14.15234375 27.359375 C11.38653624 19.14199192 8.40533489 10.90480139 3 4 C0.89693993 3.11010923 0.89693993 3.11010923 -1 3 C-0.67 2.01 -0.34 1.02 0 0 Z " fill="#1E2020" transform="translate(206,3)"/>
<path d="M0 0 C1.65 0 3.3 0 5 0 C3.68 0.33 2.36 0.66 1 1 C1.12375 2.7325 1.12375 2.7325 1.25 4.5 C1.23164868 16.15309062 -3.31743179 27.52832008 -8 38 C-16.28605672 56.67039136 -22.65883332 79.41374008 -16.05859375 99.625 C-14.0679679 104.09105358 -11.52559313 109.73720344 -7 112 C-7 112.66 -7 113.32 -7 114 C-5.02 113.505 -5.02 113.505 -3 113 C-3 113.66 -3 114.32 -3 115 C-6.30311973 114.93393761 -8.96893231 114.79088957 -11.66015625 112.7265625 C-21.66945833 101.82128709 -21.63150682 87.84072154 -21.18359375 73.9375 C-20.29227714 59.6764343 -15.59209194 46.31649846 -9.35522461 33.57348633 C-4.10671203 22.78743694 -1.34881825 11.94100863 0 0 Z " fill="#1A1A1A" transform="translate(111,208)"/>
<path d="M0 0 C3 1 3 1 4.5703125 3.765625 C5.08335937 4.91546875 5.59640625 6.0653125 6.125 7.25 C6.64320313 8.38953125 7.16140625 9.5290625 7.6953125 10.703125 C9.94881209 16.39759701 10.20869341 21.57358459 10.25 27.625 C10.270625 28.388125 10.29125 29.15125 10.3125 29.9375 C10.35119459 35.45147869 10.35119459 35.45147869 8.83203125 37.82421875 C6.40948989 39.3789841 3.97223539 40.82056547 1.4375 42.1875 C0.46683594 42.71730469 -0.50382813 43.24710938 -1.50390625 43.79296875 C-4 45 -4 45 -6 45 C-6 45.66 -6 46.32 -6 47 C-12.625 48.25 -12.625 48.25 -16 46 C-14.50581719 42.0204438 -12.6253596 38.37239855 -10.625 34.625 C-5.49067725 24.64506869 -3.13906378 14.03070317 -1.39453125 2.9765625 C-1 1 -1 1 0 0 Z M0 3 C-0.23074219 4.29292969 -0.46148437 5.58585937 -0.69921875 6.91796875 C-3.11804641 19.99601561 -6.21692915 31.44365708 -13 43 C-13 43.99 -13 44.98 -13 46 C-11.35 46 -9.7 46 -8 46 C-8 45.34 -8 44.68 -8 44 C-7.12085938 43.731875 -6.24171875 43.46375 -5.3359375 43.1875 C0.26301785 41.19442924 4.49346021 38.91049921 8 34 C10.82344622 23.99628164 8.04303734 14.08069502 3.3125 5.2109375 C2.879375 4.48132813 2.44625 3.75171875 2 3 C1.34 3 0.68 3 0 3 Z " fill="#262829" transform="translate(148,16)"/>
<path d="M0 0 C-5.10422998 6.00497645 -12.74400708 8.04026442 -19.91796875 10.515625 C-25.38363884 12.45309779 -30.68910806 14.77013797 -36.01806641 17.05102539 C-40.68588238 19.04336285 -45.36638567 20.92319504 -50.125 22.6875 C-54.78771765 24.43825222 -59.02928219 26.51116273 -63.29296875 29.08203125 C-65 30 -65 30 -67 30 C-66 27 -66 27 -63.62890625 25.53515625 C-62.11103516 24.80619141 -62.11103516 24.80619141 -60.5625 24.0625 C-59.47582031 23.54042969 -58.38914062 23.01835937 -57.26953125 22.48046875 C-53.644825 20.83917404 -49.98597296 19.35067414 -46.2734375 17.921875 C-44.22547779 17.09143086 -42.32328833 16.16295273 -40.375 15.125 C-35.87160392 12.79628211 -31.11847916 11.15861793 -26.36157227 9.43554688 C-20.72067661 7.35646081 -15.31987277 4.90666214 -9.96069336 2.18432617 C-6.48287139 0.47083432 -3.88538241 -0.36585522 0 0 Z " fill="#1F2122" transform="translate(69,125)"/>
<path d="M0 0 C0.99 0 1.98 0 3 0 C6.72418363 7.44836727 3.97132895 20.88160865 3 29 C2.67 29.99 2.34 30.98 2 32 C-2.54577694 33.40843182 -5.04271032 32.4862514 -9.3125 30.5625 C-10.38113281 30.08941406 -11.44976562 29.61632812 -12.55078125 29.12890625 C-13.76314453 28.57009766 -13.76314453 28.57009766 -15 28 C-14.38301875 24.5037729 -13.01071531 22.43111923 -10.875 19.625 C-6.42741583 13.47388981 -3.24021265 6.83497745 0 0 Z M1 4 C-0.50432728 6.35538096 -1.95233654 8.72087883 -3.375 11.125 C-3.77460938 11.79015625 -4.17421875 12.4553125 -4.5859375 13.140625 C-9.02070058 19.6976223 -9.02070058 19.6976223 -11 27 C-9.73581754 27.69965443 -8.46334598 28.38434763 -7.1875 29.0625 C-6.12595703 29.63677734 -6.12595703 29.63677734 -5.04296875 30.22265625 C-2.85302199 31.30263511 -2.85302199 31.30263511 0 30 C3.24044375 21.71886596 3.47420244 12.68141435 2 4 C1.67 4 1.34 4 1 4 Z " fill="#17191A" transform="translate(205,51)"/>
<path d="M0 0 C0.9897583 0.02618408 1.9795166 0.05236816 2.99926758 0.0793457 C4.60898438 0.10351562 4.60898438 0.10351562 6.2512207 0.12817383 C7.37077148 0.17006836 8.49032227 0.21196289 9.64379883 0.25512695 C10.77495117 0.27768555 11.90610352 0.30024414 13.0715332 0.32348633 C15.86777859 0.38247885 18.66137979 0.46474456 21.45629883 0.56762695 C20.45629883 3.56762695 20.45629883 3.56762695 17.83911133 5.06762695 C16.7640332 5.56262695 15.68895508 6.05762695 14.58129883 6.56762695 C10.4771984 8.34432833 10.4771984 8.34432833 7.01489258 11.0559082 C4.57154421 13.42577241 1.49617595 14.47693496 -1.60620117 15.75512695 C-2.24364258 16.02776367 -2.88108398 16.30040039 -3.5378418 16.58129883 C-8.26221621 18.56762695 -8.26221621 18.56762695 -10.54370117 18.56762695 C-9.66870117 12.81762695 -9.66870117 12.81762695 -8.54370117 10.56762695 C-7.88370117 10.56762695 -7.22370117 10.56762695 -6.54370117 10.56762695 C-6.38901367 9.48481445 -6.38901367 9.48481445 -6.23120117 8.38012695 C-5.23968117 4.32390874 -4.37442925 0.97615395 0 0 Z M-3.54370117 5.81762695 C-4.95945858 8.66777015 -5.86039651 11.46428496 -6.54370117 14.56762695 C1.90191661 11.31816054 9.88496703 7.5614841 17.45629883 2.56762695 C17.45629883 2.23762695 17.45629883 1.90762695 17.45629883 1.56762695 C5.5687545 -0.16825563 5.5687545 -0.16825563 -3.54370117 5.81762695 Z " fill="#2F3133" transform="translate(103.543701171875,112.432373046875)"/>
<path d="M0 0 C-0.66 0 -1.32 0 -2 0 C-2 0.66 -2 1.32 -2 2 C-3.05058594 2.35191406 -4.10117188 2.70382813 -5.18359375 3.06640625 C-22.40009714 9.03361802 -31.27804718 18.16726309 -39.62890625 34.23999023 C-42.16302038 38.98737822 -44.82088579 42.55676135 -49 46 C-51.18579102 45.65307617 -51.18579102 45.65307617 -53 45 C-52.5153125 44.65710938 -52.030625 44.31421875 -51.53125 43.9609375 C-45.64567092 39.36565845 -42.43394037 33.94599153 -38.9375 27.51171875 C-32.45990111 15.59848533 -25.35384277 8.49874307 -13 3 C-12.08992188 2.59265625 -11.17984375 2.1853125 -10.2421875 1.765625 C-3.41773367 -1.13924456 -3.41773367 -1.13924456 0 0 Z " fill="#131517" transform="translate(118,79)"/>
<path d="M0 0 C0.66 0.33 1.32 0.66 2 1 C-3.18823076 10.59739812 -14.03349651 16.28020782 -23 22 C-23.89460937 22.5775 -24.78921875 23.155 -25.7109375 23.75 C-28 25 -28 25 -30.3125 24.6875 C-30.869375 24.460625 -31.42625 24.23375 -32 24 C-30.12206627 21.7906662 -28.41229372 20.6693697 -25.84765625 19.2265625 C-21.84394973 16.97392762 -18.18510844 14.36033822 -14.5 11.625 C-13.87480469 11.16867187 -13.24960938 10.71234375 -12.60546875 10.2421875 C-8.23082263 7.01781065 -4.08035916 3.58838982 0 0 Z " fill="#27292B" transform="translate(186,246)"/>
<path d="M0 0 C9.9501718 12.26416524 12.20060056 30.07848695 12.125 45.375 C12.12886719 46.18066406 12.13273437 46.98632812 12.13671875 47.81640625 C12.12678571 53.74642857 12.12678571 53.74642857 11 56 C8.59157615 55.60888843 7.28176826 55.2758363 5.515625 53.546875 C1.30726601 47.57204433 1.30726601 47.57204433 2 43 C4.74277578 46.19990508 6.6302836 49.00499382 8 53 C8.99 52.505 8.99 52.505 10 52 C10.60707308 36.14864738 8.47337703 20.04706437 0.84765625 5.85546875 C0 4 0 4 0 0 Z " fill="#131415" transform="translate(251,129)"/>
<path d="M0 0 C1.65 0 3.3 0 5 0 C3.68 0.33 2.36 0.66 1 1 C1.12375 2.7325 1.12375 2.7325 1.25 4.5 C1.23160287 16.18217457 -3.34956862 27.49002507 -8 38 C-9.1046849 40.65819062 -10.17936984 43.32794202 -11.25 46 C-11.63744385 46.95338257 -11.63744385 46.95338257 -12.03271484 47.92602539 C-13.23488682 50.9178398 -14.33639578 53.83997991 -15 57 C-15.66 57 -16.32 57 -17 57 C-16.59171568 49.78697696 -14.10684556 44.45459625 -11 38 C-5.22272547 25.66033414 -1.52113042 13.58474888 0 0 Z " fill="#0D0E10" transform="translate(111,208)"/>
<path d="M0 0 C2.74609375 0.54296875 2.74609375 0.54296875 6 2 C7.65811026 4.48566619 8.8584863 6.62341142 10.0625 9.3125 C10.39830078 10.02583496 10.73410156 10.73916992 11.08007812 11.47412109 C12.0834616 13.63736579 13.04893462 15.81330245 14 18 C14.27827637 18.63631348 14.55655273 19.27262695 14.84326172 19.92822266 C17.35818287 25.78058469 19.30588195 30.55736152 19 37 C17.5393715 34.35261084 17 33.10551666 17 30 C16.34 30 15.68 30 15 30 C14.72027344 29.12859375 14.44054687 28.2571875 14.15234375 27.359375 C11.38653624 19.14199192 8.40533489 10.90480139 3 4 C0.89693993 3.11010923 0.89693993 3.11010923 -1 3 C-0.67 2.01 -0.34 1.02 0 0 Z " fill="#212324" transform="translate(206,3)"/>
<path d="M0 0 C0.33 0 0.66 0 1 0 C2.0475555 14.9276659 -4.45845071 28.02804425 -11 41 C-7.535 40.505 -7.535 40.505 -4 40 C-4 40.66 -4 41.32 -4 42 C-10.625 43.25 -10.625 43.25 -14 41 C-12.50581719 37.0204438 -10.6253596 33.37239855 -8.625 29.625 C-3.78132634 20.23330549 -1.36497535 10.47819314 0 0 Z " fill="#0F1011" transform="translate(146,21)"/>
<path d="M0 0 C0.66666667 1.33333333 1.33333333 2.66666667 2 4 C2.53625 4.99 3.0725 5.98 3.625 7 C5 10 5 10 5 14 C7.475 14.99 7.475 14.99 10 16 C10.2475 15.05125 10.495 14.1025 10.75 13.125 C12 10 12 10 14.078125 8.8046875 C14.71234375 8.53914062 15.3465625 8.27359375 16 8 C14.84941444 13.39795989 13.57578241 18.70987333 12 24 C11.34 23.67 10.68 23.34 10 23 C10 21.68 10 20.36 10 19 C9.40703125 18.95230469 8.8140625 18.90460938 8.203125 18.85546875 C4.8898441 17.56892882 4.27811578 15.44976801 2.75 12.3125 C2.22921875 11.27738281 1.7084375 10.24226562 1.171875 9.17578125 C-0.04590785 5.87558972 -0.2298884 3.48489918 0 0 Z " fill="#1F2122" transform="translate(2,155)"/>
<path d="M0 0 C-5.75446235 3.89198468 -11.60406458 6.71918883 -18.0625 9.25 C-18.92166016 9.600625 -19.78082031 9.95125 -20.66601562 10.3125 C-25.48170855 12.22553309 -29.83572922 13.52351369 -35 14 C-34.34 13.67 -33.68 13.34 -33 13 C-33 12.34 -33 11.68 -33 11 C-32.37544922 10.77860352 -31.75089844 10.55720703 -31.10742188 10.32910156 C-28.23638439 9.30798127 -25.36820422 8.27905037 -22.5 7.25 C-21.51773438 6.90195313 -20.53546875 6.55390625 -19.5234375 6.1953125 C-15.02058706 4.57428634 -10.69773538 2.92191209 -6.46875 0.671875 C-3 -1 -3 -1 0 0 Z " fill="#1B1D1E" transform="translate(151,66)"/>
<path d="M0 0 C1.60031344 3.20062687 0.03173691 5.72271806 -1 9 C2.31114834 10.12880057 5.58978257 11.21302675 9 12 C9.66 10.35 10.32 8.7 11 7 C11.66 7 12.32 7 13 7 C12.67 9.31 12.34 11.62 12 14 C7.45422306 15.40843182 4.95728968 14.4862514 0.6875 12.5625 C-0.91544922 11.85287109 -0.91544922 11.85287109 -2.55078125 11.12890625 C-3.76314453 10.57009766 -3.76314453 10.57009766 -5 10 C-4.17707746 6.01532244 -2.33946269 3.32052768 0 0 Z " fill="#2E3131" transform="translate(195,69)"/>
<path d="M0 0 C7.59 0 15.18 0 23 0 C22 3 22 3 19.453125 4.5703125 C18.39609375 5.08335938 17.3390625 5.59640625 16.25 6.125 C15.20328125 6.64320312 14.1565625 7.16140625 13.078125 7.6953125 C10.33573553 8.85769585 7.93183384 9.5547956 5 10 C8.7935871 6.78119883 12.65829477 4.3836813 17 2 C14.56183415 1.9190277 12.12635616 1.85953028 9.6875 1.8125 C8.99720703 1.78736328 8.30691406 1.76222656 7.59570312 1.73632812 C3.51768766 1.64253333 3.51768766 1.64253333 0.01953125 3.51171875 C-0.31691406 4.00285156 -0.65335937 4.49398437 -1 5 C-0.67 3.35 -0.34 1.7 0 0 Z " fill="#1A1B1B" transform="translate(102,113)"/>
<path d="M0 0 C-5.12072433 6.02438157 -13.62109569 8.87559876 -21 11 C-22.32 11 -23.64 11 -25 11 C-25 10.34 -25 9.68 -25 9 C-24.4652002 8.76289307 -23.93040039 8.52578613 -23.37939453 8.28149414 C-20.96104794 7.20898029 -18.54302048 6.13574885 -16.125 5.0625 C-15.28324219 4.68931641 -14.44148438 4.31613281 -13.57421875 3.93164062 C-12.76855469 3.57392578 -11.96289062 3.21621094 -11.1328125 2.84765625 C-10.38918457 2.51773682 -9.64555664 2.18781738 -8.87939453 1.84790039 C-5.59815603 0.36754948 -3.65390196 -0.09615531 0 0 Z " fill="#1E1F20" transform="translate(69,125)"/>
<path d="M0 0 C1 2 1 2 0.3125 4.3125 C-2.45998402 9.98949109 -6.50314599 13.96195381 -12 17 C-15.4375 17.8125 -15.4375 17.8125 -18 18 C-16.68 17.34 -15.36 16.68 -14 16 C-14 15.34 -14 14.68 -14 14 C-13.175 13.505 -12.35 13.01 -11.5 12.5 C-6.59080248 9.44643217 -3.42580328 4.55614446 0 0 Z " fill="#1E1F21" transform="translate(226,230)"/>
<path d="M0 0 C7.17308811 2.9822467 12.69496903 12.15173762 16 19 C16.3125 22 16.3125 22 16 24 C14.05388768 22.31926664 13.04715384 21.12181409 12.109375 18.69921875 C10.91889748 15.80266958 9.44531155 13.54366679 7.625 11 C7.00753906 10.13503906 6.39007813 9.27007812 5.75390625 8.37890625 C3.90045201 5.86497834 1.96045989 3.43097026 0 1 C0 0.67 0 0.34 0 0 Z " fill="#1A1C1D" transform="translate(235,109)"/>
<path d="M0 0 C0 0.66 0 1.32 0 2 C-2.2192209 3.67034942 -4.41823005 5.1908183 -6.75 6.6875 C-7.70132813 7.33041992 -7.70132813 7.33041992 -8.671875 7.98632812 C-13.47311397 11.09212959 -13.47311397 11.09212959 -16.21582031 10.61254883 C-17.09898926 10.30933716 -17.09898926 10.30933716 -18 10 C-15.6558755 7.24220647 -12.8543975 5.7056583 -9.703125 3.984375 C-7.85178077 2.97117152 -7.85178077 2.97117152 -5.8125 1.25 C-4 0 -4 0 0 0 Z " fill="#242627" transform="translate(172,260)"/>
<path d="M0 0 C1.67477211 3.34954421 -0.10345887 6.69872422 -1.125 10.125 C-1.35147217 10.89384521 -1.57794434 11.66269043 -1.8112793 12.45483398 C-3.49688179 17.92650536 -5.55952447 22.37993286 -9 27 C-9.33 26.34 -9.66 25.68 -10 25 C-9.07684901 22.27913393 -8.08313181 19.65698865 -7 17 C-6.67386719 16.17371094 -6.34773437 15.34742188 -6.01171875 14.49609375 C-4.0869167 9.62835111 -2.08707255 4.80026687 0 0 Z " fill="#161919" transform="translate(236,207)"/>
<path d="M0 0 C3.71137193 -0.3452439 5.51625962 -0.31499373 8.6875 1.75 C13.92105263 6.84210526 13.92105263 6.84210526 14.1875 10.75 C14.125625 11.4925 14.06375 12.235 14 13 C11.75692469 10.91161954 10.08227373 9.15332832 8.625 6.4375 C6.55953601 3.33930402 4.38107704 2.42756586 1 1 C1 3.64 1 6.28 1 9 C0.67 9 0.34 9 0 9 C0 6.03 0 3.06 0 0 Z " fill="#414648" transform="translate(112,209)"/>
<path d="M0 0 C1.05424115 2.68521423 1.12687274 3.7066664 -0.0390625 6.40234375 C-6.01955307 15.9622905 -6.01955307 15.9622905 -10 19 C-12.1484375 18.61328125 -12.1484375 18.61328125 -14 18 C-13.49210937 17.62230469 -12.98421875 17.24460937 -12.4609375 16.85546875 C-6.48836393 12.07964681 -3.27356545 6.85712763 0 0 Z " fill="#0A0B0C" transform="translate(79,106)"/>
<path d="M0 0 C2.946915 1.78919839 4.45572294 3.58468924 6.0625 6.5625 C7.74786099 10.15869657 7.74786099 10.15869657 11 12 C11 12.66 11 13.32 11 14 C12.32 13.67 13.64 13.34 15 13 C15 13.66 15 14.32 15 15 C11.56729557 14.93134591 8.94832211 14.81345915 6.26953125 12.515625 C2.96303872 8.69478918 0 5.21111723 0 0 Z " fill="#161819" transform="translate(93,308)"/>
<path d="M0 0 C0 3.22163056 -0.65774017 4.98320151 -1.875 7.9375 C-2.22304687 8.79214844 -2.57109375 9.64679688 -2.9296875 10.52734375 C-3.28289062 11.34332031 -3.63609375 12.15929687 -4 13 C-4.3196875 13.74894531 -4.639375 14.49789063 -4.96875 15.26953125 C-6 17 -6 17 -8.625 17.75 C-9.40875 17.8325 -10.1925 17.915 -11 18 C-10.57976562 17.30390625 -10.15953125 16.6078125 -9.7265625 15.890625 C-7.28346648 11.80037375 -4.90773327 7.67160608 -2.5234375 3.546875 C-1 1 -1 1 0 0 Z " fill="#3B3D3F" transform="translate(115,304)"/>
<path d="M0 0 C0.33 0 0.66 0 1 0 C1.83211276 5.03854106 2.1078534 9.8125662 2.0625 14.9375 C2.05798828 15.62134766 2.05347656 16.30519531 2.04882812 17.00976562 C2.0371956 18.67321604 2.01926694 20.3366205 2 22 C1.01 22.33 0.02 22.66 -1 23 C-1.33 22.01 -1.66 21.02 -2 20 C-1.34 20 -0.68 20 0 20 C0 13.4 0 6.8 0 0 Z " fill="#B0B2B3" transform="translate(260,159)"/>
<path d="M0 0 C-1.09699219 0.54269531 -2.19398437 1.08539063 -3.32421875 1.64453125 C-4.77869939 2.3670797 -6.2331235 3.08974196 -7.6875 3.8125 C-8.40873047 4.16892578 -9.12996094 4.52535156 -9.87304688 4.89257812 C-12.95563638 6.426835 -15.95073476 7.97001535 -18.89453125 9.76171875 C-21 11 -21 11 -23 11 C-22 8 -22 8 -19.55859375 6.5 C-2.95724314 -1.47862157 -2.95724314 -1.47862157 0 0 Z " fill="#141516" transform="translate(25,144)"/>
<path d="M0 0 C-3.59054233 3.88975419 -7.73898882 6.89732195 -12 10 C-12.66 9.67 -13.32 9.34 -14 9 C-12.05904793 3.17714379 -6.0903478 -0.92277997 0 0 Z " fill="#3A3D3F" transform="translate(156,271)"/>
<path d="M0 0 C3.43772727 3.43772727 3.97127774 7.10960984 4.125 11.875 C4.08375 12.90625 4.0425 13.9375 4 15 C4.66 15 5.32 15 6 15 C6.33 13.02 6.66 11.04 7 9 C7.66 9 8.32 9 9 9 C8.55888874 13.85222386 7.54622073 15.73747692 4 19 C3.32900016 16.39688008 2.66304662 13.79264602 2 11.1875 C1.80921875 10.44951172 1.6184375 9.71152344 1.421875 8.95117188 C0.64737086 5.89464659 0 3.16626522 0 0 Z " fill="#080A0A" transform="translate(126,219)"/>
<path d="M0 0 C0.66 0 1.32 0 2 0 C0.47077103 3.98499078 -1.97949228 5.82276445 -5.375 8.3125 C-6.80972656 9.38951172 -6.80972656 9.38951172 -8.2734375 10.48828125 C-11 12 -11 12 -13.3515625 11.73046875 C-14.16753906 11.36888672 -14.16753906 11.36888672 -15 11 C-14.08476562 10.37351562 -13.16953125 9.74703125 -12.2265625 9.1015625 C-11.02596568 8.27615218 -9.82544901 7.45062527 -8.625 6.625 C-7.72007812 6.00625 -7.72007812 6.00625 -6.796875 5.375 C-4.36217249 3.6977605 -2.09532229 2.09532229 0 0 Z " fill="#111314" transform="translate(164,53)"/>
<path d="M0 0 C0.66 0 1.32 0 2 0 C2 1.65 2 3.3 2 5 C2.69867188 4.69964844 3.39734375 4.39929688 4.1171875 4.08984375 C5.02726563 3.70957031 5.93734375 3.32929688 6.875 2.9375 C7.77992188 2.55464844 8.68484375 2.17179688 9.6171875 1.77734375 C12 1 12 1 14 2 C8.87346025 6.88241881 8.87346025 6.88241881 4.75 7.4375 C2 7 2 7 0 5 C-0.125 2.375 -0.125 2.375 0 0 Z " fill="#101112" transform="translate(199,246)"/>
<path d="M0 0 C2.97189678 0.60788798 5.27109768 1.14298758 7.2890625 3.515625 C9.42559971 7.0509024 10.51130592 9.78172613 10 14 C7.77881995 11.3028528 5.78755939 8.65880751 3.9375 5.6875 C3.298125 4.800625 2.65875 3.91375 2 3 C1.01 3 0.02 3 -1 3 C-0.67 2.01 -0.34 1.02 0 0 Z " fill="#4C4F50" transform="translate(206,3)"/>
<path d="M0 0 C1.60031344 3.20062687 0.03173691 5.72271806 -1 9 C0.32 9.66 1.64 10.32 3 11 C0.36 10.67 -2.28 10.34 -5 10 C-4.38545304 6.00544473 -2.29353263 3.25533664 0 0 Z " fill="#37393A" transform="translate(195,69)"/>
<path d="M0 0 C0.66 0.33 1.32 0.66 2 1 C0.1875 4 0.1875 4 -2 7 C-2.99 7 -3.98 7 -5 7 C-5 7.66 -5 8.32 -5 9 C-6.98 9.99 -6.98 9.99 -9 11 C-8.75 9.125 -8.75 9.125 -8 7 C-5.9375 5.75 -5.9375 5.75 -4 5 C-4 4.34 -4 3.68 -4 3 C-2 1.375 -2 1.375 0 0 Z " fill="#1B1E1F" transform="translate(141,279)"/>
<path d="M0 0 C0.66 0 1.32 0 2 0 C1.00956295 4.83628305 0.04301154 9.47618873 -2 14 C-2.33 13.01 -2.66 12.02 -3 11 C-3.268125 10.236875 -3.53625 9.47375 -3.8125 8.6875 C-4.08563326 4.77259 -2.41370767 2.96541228 0 0 Z " fill="#666869" transform="translate(16,163)"/>
<path d="M0 0 C-1.24853673 0.79397239 -2.49890043 1.58507217 -3.75 2.375 C-4.44609375 2.81585938 -5.1421875 3.25671875 -5.859375 3.7109375 C-9.95365419 6.17647059 -9.95365419 6.17647059 -12 7 C-12.99 6.67 -13.98 6.34 -15 6 C-14.34 6 -13.68 6 -13 6 C-13 5.34 -13 4.68 -13 4 C-11.40233897 3.13372601 -9.79660056 2.28233535 -8.1875 1.4375 C-7.29417969 0.96183594 -6.40085938 0.48617187 -5.48046875 -0.00390625 C-3 -1 -3 -1 0 0 Z " fill="#212425" transform="translate(151,66)"/>
<path d="M0 0 C0 0.66 0 1.32 0 2 C-1.2375 2.8353125 -1.2375 2.8353125 -2.5 3.6875 C-5.4132668 5.86024403 -5.4132668 5.86024403 -5.3125 9.75 C-5.209375 10.8225 -5.10625 11.895 -5 13 C-7.76223278 10.23776722 -7.57856291 7.79293383 -8 4 C-2.25 0 -2.25 0 0 0 Z " fill="#C0C1C2" transform="translate(11,151)"/>
<path d="M0 0 C-2.79716804 3.29078593 -6.19528578 5.06305458 -10 7 C-10.66 6.67 -11.32 6.34 -12 6 C-11 3 -11 3 -8.25 1.3125 C-5.14979295 0.06049331 -3.28328088 -0.28970125 0 0 Z " fill="#424445" transform="translate(69,125)"/>
<path d="M0 0 C0 0.99 0 1.98 0 3 C-3.46669756 6.30545582 -6.39137539 8.50897439 -11 10 C-9.75537955 6.26613864 -8.08692325 5.35194152 -5 3 C-4.443125 2.4225 -3.88625 1.845 -3.3125 1.25 C-2 0 -2 0 0 0 Z " fill="#35393B" transform="translate(132,288)"/>
<path d="M0 0 C3.83325416 1.45399296 5.28279605 3.3080115 7 7 C7.1875 9.8125 7.1875 9.8125 7 12 C4.24971922 9.62475751 3.23805156 7.3840076 2 4 C1.34786461 2.65949948 0.68620031 1.32338632 0 0 Z " fill="#343638" transform="translate(244,121)"/>
<path d="M0 0 C0.66 0.33 1.32 0.66 2 1 C-3.58924205 6.8997555 -3.58924205 6.8997555 -7 8 C-8.34302277 7.70814606 -9.6789271 7.37901884 -11 7 C-10.28972656 6.57847656 -9.57945312 6.15695313 -8.84765625 5.72265625 C-7.92855469 5.17480469 -7.00945312 4.62695312 -6.0625 4.0625 C-5.14597656 3.51722656 -4.22945312 2.97195312 -3.28515625 2.41015625 C-1.11587323 1.19267827 -1.11587323 1.19267827 0 0 Z " fill="#333739" transform="translate(151,53)"/>
<path d="M0 0 C0.66 0 1.32 0 2 0 C1.47462276 5.0302076 0.89405214 10.01885239 0 15 C-0.33 15 -0.66 15 -1 15 C-1.02703381 13.06257659 -1.04641125 11.12504521 -1.0625 9.1875 C-1.07410156 8.10855469 -1.08570312 7.02960938 -1.09765625 5.91796875 C-1 3 -1 3 0 0 Z " fill="#252728" transform="translate(93,265)"/>
<path d="M0 0 C-1.09987776 3.29963329 -1.45586748 3.61064772 -4.3125 5.25 C-4.90675781 5.60578125 -5.50101562 5.9615625 -6.11328125 6.328125 C-8.4491564 7.15994803 -9.69274206 6.7945524 -12 6 C-10.37829621 4.99466333 -8.75252763 3.99588093 -7.125 3 C-5.76761719 2.1646875 -5.76761719 2.1646875 -4.3828125 1.3125 C-2 0 -2 0 0 0 Z " fill="#0B0C0C" transform="translate(119,116)"/>
<path d="M0 0 C0.66 0.33 1.32 0.66 2 1 C1.07038578 2.15224028 0.1309875 3.29659176 -0.8125 4.4375 C-1.59560547 5.39462891 -1.59560547 5.39462891 -2.39453125 6.37109375 C-4 8 -4 8 -7 9 C-5.44499019 5.18315774 -2.96404505 2.80804268 0 0 Z " fill="#BDBFC1" transform="translate(94,90)"/>
<path d="M0 0 C7.18421053 0.45614035 7.18421053 0.45614035 11 3 C6.71 2.67 2.42 2.34 -2 2 C-1.34 1.34 -0.68 0.68 0 0 Z " fill="#2B2D2E" transform="translate(96,193)"/>
<path d="M0 0 C2.74277578 3.19990508 4.6302836 6.00499382 6 10 C2.83884224 8.63016497 2.0072908 8.0109362 0 5 C-0.125 2.3125 -0.125 2.3125 0 0 Z " fill="#303334" transform="translate(253,172)"/>
<path d="M0 0 C4.34242429 4.34242429 4.7444669 8.13551546 5 14 C3.5393715 11.35261084 3 10.10551666 3 7 C2.34 7 1.68 7 1 7 C0.67 4.69 0.34 2.38 0 0 Z " fill="#393C3D" transform="translate(220,26)"/>
<path d="M0 0 C0.0825 0.61875 0.165 1.2375 0.25 1.875 C0.81258459 4.18437567 0.81258459 4.18437567 3.0625 5.25 C3.701875 5.4975 4.34125 5.745 5 6 C2.69 6.66 0.38 7.32 -2 8 C-1.125 2.25 -1.125 2.25 0 0 Z " fill="#5A5E60" transform="translate(95,123)"/>
<path d="M0 0 C0.99 0 1.98 0 3 0 C4.60725635 3.21451269 4.05748185 6.43612536 4 10 C3.67 10 3.34 10 3 10 C3 8.02 3 6.04 3 4 C2.01 4.33 1.02 4.66 0 5 C0 3.35 0 1.7 0 0 Z " fill="#4F5254" transform="translate(205,51)"/>
<path d="M0 0 C-3.20336822 2.83374881 -5.78087253 3.5205537 -10 4 C-8.68 3.34 -7.36 2.68 -6 2 C-6 1.34 -6 0.68 -6 0 C-3.50907189 -1.24546405 -2.58919267 -0.7767578 0 0 Z " fill="#4C4E50" transform="translate(218,244)"/>
<path d="M0 0 C0.33 0.66 0.66 1.32 1 2 C-0.65 3.98 -2.3 5.96 -4 8 C-4.99 7.67 -5.98 7.34 -7 7 C-4.69 4.69 -2.38 2.38 0 0 Z " fill="#BFC1C2" transform="translate(175,46)"/>
<path d="M0 0 C1.65 0.33 3.3 0.66 5 1 C5.33 2.32 5.66 3.64 6 5 C3.525 4.01 3.525 4.01 1 3 C0.34 3.66 -0.32 4.32 -1 5 C-0.67 3.35 -0.34 1.7 0 0 Z " fill="#0D0F0F" transform="translate(205,1)"/>
<path d="M0 0 C0.33 0 0.66 0 1 0 C1.66 3.3 2.32 6.6 3 10 C2.01 9.67 1.02 9.34 0 9 C-1.125 2.25 -1.125 2.25 0 0 Z " fill="#242627" transform="translate(92,299)"/>
<path d="M0 0 C0.66 0.33 1.32 0.66 2 1 C1.1875 2.9375 1.1875 2.9375 0 5 C-0.99 5.33 -1.98 5.66 -3 6 C-3.66 5.34 -4.32 4.68 -5 4 C-3.35 2.68 -1.7 1.36 0 0 Z " fill="#343739" transform="translate(175,255)"/>
<path d="M0 0 C3.2542015 2.83430453 4.5206753 4.68607774 5 9 C2 8 2 8 0.8125 6.1875 C0 4 0 4 0 0 Z " fill="#18191B" transform="translate(130,210)"/>
<path d="M0 0 C-2.98646769 1.99097846 -5.59687262 2.94124926 -9 4 C-8 1 -8 1 -6.1875 -0.25 C-3.66056586 -1.11637742 -2.47778006 -0.88492145 0 0 Z " fill="#2C2E2F" transform="translate(33,141)"/>
<path d="M0 0 C-0.66 0 -1.32 0 -2 0 C-2 0.66 -2 1.32 -2 2 C-4.64 2.33 -7.28 2.66 -10 3 C-9 1 -9 1 -6.125 -0.1875 C-3 -1 -3 -1 0 0 Z " fill="#0D0F11" transform="translate(118,79)"/>
<path d="M0 0 C-0.66 0 -1.32 0 -2 0 C-2 0.66 -2 1.32 -2 2 C-3.98 2.33 -5.96 2.66 -8 3 C-8 2.34 -8 1.68 -8 1 C-4.93251126 -0.86240388 -3.40254489 -1.2151946 0 0 Z " fill="#141516" transform="translate(138,72)"/>
<path d="M0 0 C0.66 0 1.32 0 2 0 C0.80100302 3.0831351 -0.47700477 6.06279492 -2 9 C-3 6 -3 6 -1.5625 2.8125 C-1.046875 1.884375 -0.53125 0.95625 0 0 Z " fill="#151718" transform="translate(198,65)"/>
</svg>
